<?xml version="1.0" encoding="UTF-8"?>
<svg version="1.1" xmlns="http://www.w3.org/2000/svg" width="3840" height="2160">
<path d="M0 0 C4.93282284 1.41873223 7.15115313 4.4243301 9.6484375 8.76171875 C12.64906563 15.00440485 14.60897063 21.53017207 16.46704102 28.18139648 C21.5791127 46.39731107 30.92525165 58.8907893 47.296875 68.421875 C52.39814031 71.24806398 57.69562541 73.57508564 63.05639648 75.85961914 C73.25990009 80.22970508 84.09021254 85.65250542 92.6484375 92.76171875 C92.6484375 93.42171875 92.6484375 94.08171875 92.6484375 94.76171875 C93.21046875 94.99246094 93.7725 95.22320313 94.3515625 95.4609375 C110.56095997 104.64074933 118.00684944 127.04445442 122.6484375 143.76171875 C123.3290625 143.01921875 123.3290625 143.01921875 124.0234375 142.26171875 C125.6484375 140.76171875 125.6484375 140.76171875 127.6484375 140.76171875 C127.6484375 140.10171875 127.6484375 139.44171875 127.6484375 138.76171875 C128.99365234 137.52490234 128.99365234 137.52490234 130.859375 136.16015625 C131.86097656 135.42539062 131.86097656 135.42539062 132.8828125 134.67578125 C133.58921875 134.16789063 134.295625 133.66 135.0234375 133.13671875 C135.72210937 132.62109375 136.42078125 132.10546875 137.140625 131.57421875 C142.38533399 127.76171875 142.38533399 127.76171875 144.6484375 127.76171875 C144.6484375 127.10171875 144.6484375 126.44171875 144.6484375 125.76171875 C168.76835039 113.28376638 190.14790606 108.28490415 217.21337891 108.17675781 C228.89224304 108.08839611 239.31872387 106.53789368 249.7734375 101.07421875 C250.45519043 100.72246582 251.13694336 100.37071289 251.83935547 100.00830078 C261.74828875 94.74249109 269.28288991 87.35565388 277.00439453 79.33349609 C277.86460205 78.44718506 277.86460205 78.44718506 278.7421875 77.54296875 C279.25458984 77.00736328 279.76699219 76.47175781 280.29492188 75.91992188 C281.6484375 74.76171875 281.6484375 74.76171875 283.6484375 74.76171875 C283.9784375 73.77171875 284.3084375 72.78171875 284.6484375 71.76171875 C285.3084375 71.76171875 285.9684375 71.76171875 286.6484375 71.76171875 C286.8340625 71.18421875 287.0196875 70.60671875 287.2109375 70.01171875 C289.32953248 66.69565705 292.00357772 65.02286795 295.6484375 63.76171875 C299.93141767 63.22442733 303.21986453 63.87476127 306.89453125 66.15625 C313.20963041 71.2894407 315.80119644 76.62820456 316.6484375 84.76171875 C318.0477173 128.02745007 300.42325316 176.00904718 271.86328125 208.22265625 C269.56491094 210.74732301 269.56491094 210.74732301 267.6484375 213.76171875 C266.9884375 213.76171875 266.3284375 213.76171875 265.6484375 213.76171875 C265.40480469 214.33792969 265.16117188 214.91414062 264.91015625 215.5078125 C255.71456665 231.93460877 228.55008842 245.31096652 212.0859375 252.82421875 C210.83647339 253.397771 210.83647339 253.397771 209.56176758 253.98291016 C205.90870685 255.59083245 202.60089357 256.9118003 198.62109375 257.3828125 C197.64011719 257.50785156 196.65914062 257.63289063 195.6484375 257.76171875 C195.3184375 258.42171875 194.9884375 259.08171875 194.6484375 259.76171875 C191.79345447 260.66523329 188.99179571 261.43328492 186.0859375 262.13671875 C185.21074463 262.35440918 184.33555176 262.57209961 183.43383789 262.79638672 C175.17680135 264.77795969 166.83950263 266.14870534 158.43334961 267.32958984 C157.46147705 267.47477051 156.48960449 267.61995117 155.48828125 267.76953125 C154.19458618 267.94959717 154.19458618 267.94959717 152.87475586 268.13330078 C150.27306192 268.86767519 149.23115704 269.58099834 147.6484375 271.76171875 C147.39976228 274.67477133 147.32197463 277.35612978 147.3984375 280.26171875 C147.40359375 281.01453125 147.40875 281.76734375 147.4140625 282.54296875 C147.47127105 286.7764011 147.763123 290.91437947 148.23828125 295.12109375 C148.80714785 301.05637223 148.25383079 306.62044644 147.4609375 312.51171875 C147.32365234 313.5879248 147.18636719 314.66413086 147.04492188 315.77294922 C145.59029833 326.82970438 143.70756282 337.80331121 141.6484375 348.76171875 C141.514375 349.48568848 141.3803125 350.2096582 141.2421875 350.95556641 C139.60110436 359.76570414 137.56386071 368.4503803 135.31884766 377.12304688 C134.53436936 380.2106803 133.78575153 383.30630084 133.03515625 386.40234375 C124.00314199 423.14687929 112.36258825 460.97473548 93.60986328 494.01611328 C92.02495632 496.89373766 90.63338862 499.86380423 89.2109375 502.82421875 C85.56260351 510.18860523 81.2416814 517.06163631 76.79589844 523.96630859 C75.80409788 525.51815993 74.83716143 527.08584996 73.875 528.65625 C69.10060805 536.42337057 63.61164258 543.61384613 58.09130859 550.85742188 C56.80082232 552.56060173 55.5264581 554.27375755 54.26171875 555.99609375 C49.89948198 561.91683163 45.33688167 567.58822992 40.54296875 573.15966797 C37.4182132 576.80187769 34.50724577 580.52871574 31.76953125 584.46875 C31.39957031 584.89542969 31.02960937 585.32210937 30.6484375 585.76171875 C29.9884375 585.76171875 29.3284375 585.76171875 28.6484375 585.76171875 C28.34099609 586.54869141 28.34099609 586.54869141 28.02734375 587.3515625 C26.04332556 590.819379 23.34330141 593.45419761 20.5859375 596.32421875 C15.68781965 601.50404779 11.05431175 606.77648629 6.59375 612.33984375 C4.01835216 615.54616234 1.34166258 618.65415135 -1.3515625 621.76171875 C-0.6709375 622.00921875 0.0096875 622.25671875 0.7109375 622.51171875 C3.6484375 623.76171875 3.6484375 623.76171875 6.875 625.6953125 C10.44173064 627.75277255 13.9920636 628.94084354 17.9609375 630.07421875 C30.47326105 633.79529551 42.57528314 638.6031728 54.36328125 644.20703125 C61.13512581 647.41178052 67.9720412 650.46971028 74.83203125 653.48046875 C76.91677382 654.4073111 79.00140872 655.33439567 81.0859375 656.26171875 C82.14748047 656.72191406 83.20902344 657.18210937 84.30273438 657.65625 C90.67619815 660.51484714 94.38069614 662.79317137 97.8984375 668.94921875 C100.04343285 676.99295131 98.68463515 683.60730342 94.6484375 690.76171875 C93.0234375 693.32421875 93.0234375 693.32421875 91.6484375 694.76171875 C90.9884375 694.76171875 90.3284375 694.76171875 89.6484375 694.76171875 C89.6484375 695.42171875 89.6484375 696.08171875 89.6484375 696.76171875 C77.66017779 706.90820672 58.52706103 707.72611668 43.5234375 709.33203125 C41.08961105 709.6019112 38.65950417 709.91124819 36.23828125 710.27734375 C22.62141157 712.11465805 7.53671708 712.97791725 -6 710.22265625 C-8.42348289 709.7476214 -10.57513115 709.69478683 -13.0390625 709.76171875 C-17.13146681 709.8717666 -17.13146681 709.8717666 -19.3515625 708.76171875 C-20.73122418 708.52150336 -22.11835551 708.32330618 -23.5078125 708.1484375 C-24.35641846 708.03717529 -25.20502441 707.92591309 -26.0793457 707.8112793 C-26.99417725 707.69179932 -27.90900879 707.57231934 -28.8515625 707.44921875 C-43.44120065 705.43018942 -57.19716285 702.61267702 -70.8984375 697.12890625 C-77.49385283 694.10264806 -77.49385283 694.10264806 -84.3515625 694.76171875 C-84.3515625 695.42171875 -84.3515625 696.08171875 -84.3515625 696.76171875 C-86.0015625 697.42171875 -87.6515625 698.08171875 -89.3515625 698.76171875 C-89.3515625 699.42171875 -89.3515625 700.08171875 -89.3515625 700.76171875 C-91.08704419 702.20698611 -92.89132213 703.57044095 -94.7265625 704.88671875 C-95.72429688 705.61117187 -96.72203125 706.335625 -97.75 707.08203125 C-100.3515625 708.76171875 -100.3515625 708.76171875 -102.3515625 708.76171875 C-102.3515625 709.42171875 -102.3515625 710.08171875 -102.3515625 710.76171875 C-103.6715625 711.09171875 -104.9915625 711.42171875 -106.3515625 711.76171875 C-106.3515625 712.42171875 -106.3515625 713.08171875 -106.3515625 713.76171875 C-108.03125 715.05078125 -108.03125 715.05078125 -110.2265625 716.38671875 C-110.94585938 716.83273437 -111.66515625 717.27875 -112.40625 717.73828125 C-114.3515625 718.76171875 -114.3515625 718.76171875 -116.3515625 718.76171875 C-116.3515625 719.42171875 -116.3515625 720.08171875 -116.3515625 720.76171875 C-116.90118652 721.06319824 -117.45081055 721.36467773 -118.01708984 721.67529297 C-121.90454314 723.819553 -125.76878859 725.98895349 -129.578125 728.26953125 C-164.19136976 748.94078428 -201.57476537 762.27407643 -241.3515625 768.76171875 C-242.28242676 768.91479492 -243.21329102 769.06787109 -244.17236328 769.22558594 C-256.8157692 771.24980455 -269.47449083 772.32696386 -282.25146484 773.1159668 C-283.39180176 773.18726807 -284.53213867 773.25856934 -285.70703125 773.33203125 C-286.72434326 773.39148926 -287.74165527 773.45094727 -288.78979492 773.51220703 C-291.46915881 773.67715447 -291.46915881 773.67715447 -294.3515625 774.76171875 C-296.21971489 774.8601543 -298.09118334 774.89994995 -299.96191406 774.90698242 C-301.69081879 774.9165522 -301.69081879 774.9165522 -303.45465088 774.92631531 C-305.32948151 774.92798454 -305.32948151 774.92798454 -307.2421875 774.9296875 C-308.53413025 774.9330159 -309.826073 774.9363443 -311.15716553 774.93977356 C-313.90100944 774.94576723 -316.64482188 774.9476137 -319.38867188 774.94702148 C-322.86118167 774.94692095 -326.33348192 774.96045726 -329.80594254 774.97779369 C-333.15969266 774.99178571 -336.51340875 774.99100847 -339.8671875 774.9921875 C-341.09278381 774.99937302 -342.31838013 775.00655853 -343.58111572 775.01396179 C-352.34837893 774.99130305 -360.70127259 774.08103993 -369.3515625 772.76171875 C-371.20675582 772.49934716 -373.06216633 772.23849687 -374.91796875 771.98046875 C-377.48466384 771.61265575 -380.05092906 771.24194035 -382.6171875 770.87109375 C-386.52528337 770.30715495 -390.43268877 769.74482937 -394.34765625 769.23046875 C-426.04522927 764.98999075 -457.20577639 753.5541147 -486.3515625 740.76171875 C-487.47908936 740.26841064 -487.47908936 740.26841064 -488.62939453 739.76513672 C-496.72070442 736.19381311 -504.45061421 732.13795126 -512.07421875 727.66796875 C-515.03299756 725.9470104 -518.01927184 724.30977377 -521.0390625 722.69921875 C-530.67377777 717.46814336 -539.70668307 711.23863162 -548.80078125 705.1328125 C-550.95774509 703.68620184 -553.12401789 702.26477585 -555.30859375 700.859375 C-556.12714844 700.33214844 -556.94570313 699.80492187 -557.7890625 699.26171875 C-558.48902344 698.81828125 -559.18898438 698.37484375 -559.91015625 697.91796875 C-560.62365234 697.345625 -560.62365234 697.345625 -561.3515625 696.76171875 C-561.3515625 696.10171875 -561.3515625 695.44171875 -561.3515625 694.76171875 C-562.6715625 694.43171875 -563.9915625 694.10171875 -565.3515625 693.76171875 C-565.3515625 693.10171875 -565.3515625 692.44171875 -565.3515625 691.76171875 C-566.0940625 691.49359375 -566.8365625 691.22546875 -567.6015625 690.94921875 C-570.24218199 689.80895124 -572.20709094 688.66791569 -574.3515625 686.76171875 C-574.3515625 686.10171875 -574.3515625 685.44171875 -574.3515625 684.76171875 C-574.90457031 684.51808594 -575.45757813 684.27445313 -576.02734375 684.0234375 C-578.83798986 682.49765818 -581.08823734 680.62895096 -583.5390625 678.57421875 C-587.04511493 675.65328855 -590.57686231 672.81302224 -594.2265625 670.07421875 C-597.8553405 667.28934261 -600.53321684 664.34870414 -603.3515625 660.76171875 C-604.0115625 660.43171875 -604.6715625 660.10171875 -605.3515625 659.76171875 C-605.3515625 659.10171875 -605.3515625 658.44171875 -605.3515625 657.76171875 C-605.8878125 657.55546875 -606.4240625 657.34921875 -606.9765625 657.13671875 C-610.27134259 655.22921449 -612.94519878 652.71352491 -615.3515625 649.76171875 C-615.3515625 649.10171875 -615.3515625 648.44171875 -615.3515625 647.76171875 C-616.23098511 647.37584595 -616.23098511 647.37584595 -617.12817383 646.98217773 C-619.5463531 645.6547946 -621.04316097 644.24303273 -622.92578125 642.234375 C-623.58852051 641.53062744 -624.25125977 640.82687988 -624.93408203 640.10180664 C-625.62872559 639.35020264 -626.32336914 638.59859863 -627.0390625 637.82421875 C-627.7594873 637.05005615 -628.47991211 636.27589355 -629.22216797 635.47827148 C-634.51268588 629.75513171 -639.56010689 623.91075344 -644.3515625 617.76171875 C-645.48677429 616.32145307 -646.62221059 614.88136435 -647.7578125 613.44140625 C-660.00356899 597.85840167 -660.00356899 597.85840167 -665.3515625 589.76171875 C-665.85429688 589.00117187 -666.35703125 588.240625 -666.875 587.45703125 C-670.3515625 582.05971599 -670.3515625 582.05971599 -670.3515625 579.76171875 C-671.0115625 579.76171875 -671.6715625 579.76171875 -672.3515625 579.76171875 C-672.6196875 579.26285156 -672.8878125 578.76398437 -673.1640625 578.25 C-675.68529276 573.63050904 -678.35171258 569.14794585 -681.1640625 564.69921875 C-685.74676969 557.29308335 -689.57835167 549.60418155 -693.3515625 541.76171875 C-693.71926758 541.00552246 -694.08697266 540.24932617 -694.46582031 539.47021484 C-712.58287997 502.19177313 -724.74670293 462.63990187 -730.7734375 421.59765625 C-731.08770654 419.51243871 -731.42180542 417.42823474 -731.85644531 415.36474609 C-732.37080883 412.66053317 -732.63881294 410.02124324 -732.8515625 407.27734375 C-732.9340625 406.26027344 -733.0165625 405.24320313 -733.1015625 404.1953125 C-733.26944867 402.05738708 -733.4360978 399.91936419 -733.6015625 397.78125 C-733.7253125 396.26337891 -733.7253125 396.26337891 -733.8515625 394.71484375 C-733.92375 393.78833008 -733.9959375 392.86181641 -734.0703125 391.90722656 C-734.12718434 389.78302968 -734.12718434 389.78302968 -735.3515625 388.76171875 C-735.44542631 386.88990935 -735.46900054 385.01453815 -735.46508789 383.14038086 C-735.46501236 381.93921127 -735.46493683 380.73804169 -735.46485901 379.50047302 C-735.45969772 378.19320755 -735.45453644 376.88594208 -735.44921875 375.5390625 C-735.44735448 374.19527743 -735.44593062 372.85149168 -735.44493103 371.50770569 C-735.44110652 367.96489598 -735.43127682 364.42212705 -735.42022705 360.8793335 C-735.41001149 357.26656648 -735.4054331 353.65379291 -735.40039062 350.04101562 C-735.38965448 342.94789995 -735.37257886 335.85481201 -735.3515625 328.76171875 C-734.6915625 328.76171875 -734.0315625 328.76171875 -733.3515625 328.76171875 C-733.36968994 328.0346875 -733.38781738 327.30765625 -733.40649414 326.55859375 C-733.51049888 319.14156975 -732.95331855 312.08194294 -731.7890625 304.76171875 C-731.61415283 303.65159424 -731.43924316 302.54146973 -731.2590332 301.39770508 C-727.4601301 278.50343065 -721.8742831 254.36382376 -711.60131836 233.40332031 C-710.33076425 230.71775762 -709.21284866 228.00263747 -708.10546875 225.24609375 C-705.38039969 218.66839289 -702.21813853 212.37708192 -698.9140625 206.07421875 C-698.36685547 205.01138672 -697.81964844 203.94855469 -697.25585938 202.85351562 C-693.96592324 196.54228902 -690.3864263 190.6187298 -686.3515625 184.76171875 C-685.34509102 183.14071901 -684.34400096 181.51634782 -683.3515625 179.88671875 C-675.93455966 168.20081872 -667.67196073 156.86032855 -658.18359375 146.7734375 C-655.6129333 143.95064404 -653.52624455 140.89581936 -651.3515625 137.76171875 C-649.84375 136.0703125 -649.84375 136.0703125 -648.3515625 134.76171875 C-647.6915625 134.76171875 -647.0315625 134.76171875 -646.3515625 134.76171875 C-646.1040625 134.18421875 -645.8565625 133.60671875 -645.6015625 133.01171875 C-644.16856262 130.43231896 -642.56731574 128.70050283 -640.3515625 126.76171875 C-639.6915625 126.76171875 -639.0315625 126.76171875 -638.3515625 126.76171875 C-638.3515625 126.10171875 -638.3515625 125.44171875 -638.3515625 124.76171875 C-637.6915625 124.76171875 -637.0315625 124.76171875 -636.3515625 124.76171875 C-636.3515625 124.10171875 -636.3515625 123.44171875 -636.3515625 122.76171875 C-634.75822011 121.32622149 -633.09905168 119.96344548 -631.4140625 118.63671875 C-627.8493892 115.79314349 -624.38371979 112.92275975 -621.0390625 109.82421875 C-609.37972176 99.41702551 -595.84558588 91.52173019 -582.3515625 83.76171875 C-581.64161133 83.35034668 -580.93166016 82.93897461 -580.20019531 82.51513672 C-553.89750609 67.42623243 -523.34070022 56.93620613 -493.20703125 53.15625 C-490.4927406 52.83784504 -490.4927406 52.83784504 -488.45336914 52.26831055 C-486.24636499 51.73636333 -484.12671094 51.47464818 -481.8671875 51.26171875 C-481.01382813 51.17921875 -480.16046875 51.09671875 -479.28125 51.01171875 C-478.39695312 50.92921875 -477.51265625 50.84671875 -476.6015625 50.76171875 C-474.85667747 50.59603234 -473.11188414 50.42937729 -471.3671875 50.26171875 C-470.5114917 50.17978271 -469.6557959 50.09784668 -468.77416992 50.01342773 C-466.6715769 49.79496826 -464.57503463 49.5197094 -462.48046875 49.234375 C-457.02290536 48.53384375 -451.53356791 48.39494767 -446.0390625 48.19921875 C-444.88768799 48.15748535 -443.73631348 48.11575195 -442.55004883 48.07275391 C-420.73035822 47.32929737 -398.97101387 47.43935317 -377.3515625 50.76171875 C-374.83094091 51.11738928 -372.31011111 51.47158773 -369.7890625 51.82421875 C-366.61191061 52.27702838 -363.44668932 52.745117 -360.28515625 53.296875 C-344.70395079 55.76580103 -331.34655189 49.59018904 -317.13085938 44.06542969 C-309.1332593 40.98832873 -301.04176932 38.22023725 -292.9140625 35.51171875 C-291.06723877 34.893573 -291.06723877 34.893573 -289.18310547 34.26293945 C-280.96299218 31.54330036 -272.68876258 29.0947052 -264.3515625 26.76171875 C-262.55987109 26.24097052 -260.76819972 25.72015336 -258.9765625 25.19921875 C-235.62268176 18.97151722 -203.22763436 13.19981803 -180.4140625 24.19921875 C-177.29846358 26.02072946 -174.42342213 27.74810474 -172.3515625 30.76171875 C-171.7890625 33.26171875 -171.7890625 33.26171875 -172.3515625 35.76171875 C-175.03826152 38.53508548 -178.09879288 40.17240278 -181.4765625 41.94921875 C-190.33227752 46.76885664 -197.93567838 53.23345967 -203.3515625 61.76171875 C-203.72796875 62.33535156 -204.104375 62.90898438 -204.4921875 63.5 C-210.4544865 73.17761219 -212.10626744 83.50688041 -209.73046875 94.68359375 C-206.03934131 106.03586127 -199.26031304 115.21346364 -189.3515625 121.76171875 C-188.44535156 122.37144531 -187.53914062 122.98117187 -186.60546875 123.609375 C-184.6018849 124.94775837 -182.5938772 126.27953732 -180.58203125 127.60546875 C-170.78895348 134.14208172 -161.41822542 141.17301285 -152.21484375 148.51171875 C-149.38405835 150.79635044 -149.38405835 150.79635044 -146.3515625 152.76171875 C-146.3515625 153.42171875 -146.3515625 154.08171875 -146.3515625 154.76171875 C-145.784375 155.01050781 -145.2171875 155.25929688 -144.6328125 155.515625 C-141.99372424 156.95718177 -140.06328586 158.66074705 -137.8515625 160.69921875 C-136.53285156 161.90964844 -136.53285156 161.90964844 -135.1875 163.14453125 C-134.25164063 164.00820313 -133.31578125 164.871875 -132.3515625 165.76171875 C-131.39507813 166.62539063 -130.43859375 167.4890625 -129.453125 168.37890625 C-122.18407328 174.94778871 -115.23322824 181.79016188 -108.3515625 188.76171875 C-106.6862118 190.42970034 -105.01951766 192.09634157 -103.3515625 193.76171875 C-102.37231255 194.74080213 -101.3931496 195.71997252 -100.4140625 196.69921875 C-99.91132812 197.20195313 -99.40859375 197.7046875 -98.890625 198.22265625 C-96.37760417 200.73567708 -93.86458333 203.24869792 -91.3515625 205.76171875 C-90.20679947 206.90549988 -90.20679947 206.90549988 -89.03890991 208.0723877 C-86.60921935 210.50387171 -84.18520835 212.94077484 -81.76416016 215.38085938 C-77.41404756 219.76295699 -73.05954575 224.14064585 -68.7017765 228.51512909 C-66.07553144 231.15181734 -63.45119634 233.79035092 -60.83105469 236.43310547 C-58.28154486 239.00446309 -55.7270743 241.57079776 -53.1692009 244.13383484 C-52.20189924 245.10480361 -51.23634559 246.07751735 -50.27266312 247.05207825 C-44.10184381 253.33353455 -44.10184381 253.33353455 -37.20458984 258.77148438 C-36.26309082 259.42826172 -35.3215918 260.08503906 -34.3515625 260.76171875 C-34.3515625 261.42171875 -34.3515625 262.08171875 -34.3515625 262.76171875 C-33.83078125 262.98859375 -33.31 263.21546875 -32.7734375 263.44921875 C-29.47729685 265.23551433 -26.58390464 267.50637092 -23.6015625 269.76171875 C1.79561141 289.72253156 1.79561141 289.72253156 31.0859375 298.94921875 C32.849375 298.85640625 32.849375 298.85640625 34.6484375 298.76171875 C37.78337915 292.90486231 39.90755404 287.2065435 41.7109375 280.82421875 C46.57230226 263.97062793 46.57230226 263.97062793 48.8359375 259.32421875 C50.14020822 255.21074956 49.79803247 251.04179719 49.6484375 246.76171875 C48.9884375 246.76171875 48.3284375 246.76171875 47.6484375 246.76171875 C46.50050477 245.58002329 45.35484512 244.39600698 44.22265625 243.19921875 C41.81340843 240.99921081 39.05061015 239.47977236 36.22265625 237.875 C35.70316406 237.50761719 35.18367187 237.14023437 34.6484375 236.76171875 C34.6484375 236.10171875 34.6484375 235.44171875 34.6484375 234.76171875 C32.1734375 233.77171875 32.1734375 233.77171875 29.6484375 232.76171875 C29.6484375 232.10171875 29.6484375 231.44171875 29.6484375 230.76171875 C29.11992188 230.54902344 28.59140625 230.33632813 28.046875 230.1171875 C24.70665058 228.22947109 22.05433254 225.68349784 19.2734375 223.07421875 C18.69271484 222.534021 18.11199219 221.99382324 17.51367188 221.43725586 C13.59252953 217.75096209 10.05410792 213.93366502 6.6484375 209.76171875 C5.8028125 208.93671875 4.9571875 208.11171875 4.0859375 207.26171875 C-3.3515625 199.63351362 -3.3515625 199.63351362 -3.3515625 195.76171875 C-4.0115625 195.76171875 -4.6715625 195.76171875 -5.3515625 195.76171875 C-6.86989194 193.53888446 -8.25107537 191.33438886 -9.6015625 189.01171875 C-10.00487793 188.32505127 -10.40819336 187.63838379 -10.82373047 186.9309082 C-34.63539807 145.99480181 -43.53908884 94.82737292 -31.6574707 48.56396484 C-30.65393087 44.92935195 -29.53909085 41.34013751 -28.3515625 37.76171875 C-28.12065918 37.0646582 -27.88975586 36.36759766 -27.65185547 35.64941406 C-15.15477582 -1.26635798 -15.15477582 -1.26635798 0 0 Z M-660.3515625 288.19921875 C-664.72533827 293.80311895 -664.63833605 298.85238875 -664.5390625 305.69921875 C-664.53044189 306.64361816 -664.52182129 307.58801758 -664.51293945 308.56103516 C-664.41840333 315.99576218 -664.13029038 323.36380391 -663.3515625 330.76171875 C-663.27067383 331.53016113 -663.18978516 332.29860352 -663.10644531 333.09033203 C-659.13368297 369.49338069 -651.53014455 407.96130363 -636.71875 441.6015625 C-635.25314876 444.98919507 -633.90562257 448.41168075 -632.56030273 451.84838867 C-626.47240414 467.35266401 -619.35450152 482.16199703 -611.3515625 496.76171875 C-610.91199219 497.56738281 -610.47242188 498.37304688 -610.01953125 499.203125 C-609.24156126 500.61596013 -608.4563969 502.02485776 -607.6640625 503.4296875 C-606.67047226 505.19508444 -605.69433633 506.97031976 -604.7265625 508.75 C-599.3817669 518.40403706 -593.25388982 527.42768986 -586.92871094 536.46337891 C-584.75456885 539.631703 -582.68995675 542.86911911 -580.63525391 546.1159668 C-579.99982666 546.93061401 -579.99982666 546.93061401 -579.3515625 547.76171875 C-578.6915625 547.76171875 -578.0315625 547.76171875 -577.3515625 547.76171875 C-577.10148437 548.31988281 -576.85140625 548.87804688 -576.59375 549.453125 C-575.14708832 552.14173209 -573.40735303 554.3349111 -571.4765625 556.69921875 C-570.79851562 557.53324219 -570.12046875 558.36726563 -569.421875 559.2265625 C-568.73867188 560.06316406 -568.05546875 560.89976562 -567.3515625 561.76171875 C-566.64773438 562.69113281 -565.94390625 563.62054687 -565.21875 564.578125 C-564.60257813 565.29871094 -563.98640625 566.01929688 -563.3515625 566.76171875 C-562.6915625 566.76171875 -562.0315625 566.76171875 -561.3515625 566.76171875 C-561.1040625 567.31859375 -560.8565625 567.87546875 -560.6015625 568.44921875 C-559.12231432 571.18582788 -557.41688811 573.43822744 -555.3515625 575.76171875 C-554.6915625 575.76171875 -554.0315625 575.76171875 -553.3515625 575.76171875 C-553.1246875 576.3134375 -552.8978125 576.86515625 -552.6640625 577.43359375 C-550.96430324 580.44864292 -548.80351434 582.57402244 -546.3515625 585.01171875 C-545.4646875 585.90375 -544.5778125 586.79578125 -543.6640625 587.71484375 C-541.61667147 589.98264948 -541.61667147 589.98264948 -539.3515625 589.76171875 C-539.3515625 590.42171875 -539.3515625 591.08171875 -539.3515625 591.76171875 C-537.67196412 593.53843572 -537.67196412 593.53843572 -535.5390625 595.32421875 C-534.83136719 595.94425781 -534.12367188 596.56429688 -533.39453125 597.203125 C-531.33882782 598.94596629 -531.33882782 598.94596629 -528.3515625 599.76171875 C-528.3515625 600.42171875 -528.3515625 601.08171875 -528.3515625 601.76171875 C-524.90713772 605.01272011 -521.08011809 607.84376266 -517.3515625 610.76171875 C-516.73007324 611.25140137 -516.10858398 611.74108398 -515.46826172 612.24560547 C-483.56048515 637.86538062 -483.56048515 637.86538062 -446.53515625 654.15625 C-444.3515625 654.76171875 -444.3515625 654.76171875 -441.92578125 655.7421875 C-425.2937356 662.32938616 -403.66599613 664.21556886 -386.7890625 657.88671875 C-380.87593174 655.2096297 -376.03449536 652.62758447 -373.0546875 646.66796875 C-371.39858845 642.17810022 -371.49590649 638.74710808 -373.3515625 634.44140625 C-374.93747416 631.49485447 -376.6293353 628.63096288 -378.3515625 625.76171875 C-387.4991816 610.40487616 -398.25558979 591.92326195 -394.90234375 573.26171875 C-393.47966669 568.78809841 -391.427529 566.02614458 -387.3515625 563.76171875 C-381.15208358 562.31517367 -376.39270322 562.95304896 -370.3515625 564.76171875 C-369.37960937 565.04660156 -368.40765625 565.33148437 -367.40625 565.625 C-343.34166478 573.44741245 -322.10865432 588.77214357 -301.31835938 602.76611328 C-298.61957553 604.58144073 -295.91563524 606.38881662 -293.2109375 608.1953125 C-283.60127787 614.65219922 -274.37412985 621.47204608 -265.3046875 628.66796875 C-259.3396099 634.09742197 -259.3396099 634.09742197 -252.3515625 636.76171875 C-252.3515625 637.42171875 -252.3515625 638.08171875 -252.3515625 638.76171875 C-250.61608081 640.20698611 -248.81180287 641.57044095 -246.9765625 642.88671875 C-245.97882813 643.61117188 -244.98109375 644.335625 -243.953125 645.08203125 C-241.58764012 646.94252347 -241.58764012 646.94252347 -239.3515625 646.76171875 C-239.3515625 647.42171875 -239.3515625 648.08171875 -239.3515625 648.76171875 C-237.61608081 650.20698611 -235.81180287 651.57044095 -233.9765625 652.88671875 C-232.97882813 653.61117188 -231.98109375 654.335625 -230.953125 655.08203125 C-228.58764012 656.94252347 -228.58764012 656.94252347 -226.3515625 656.76171875 C-226.3515625 657.42171875 -226.3515625 658.08171875 -226.3515625 658.76171875 C-206.07630118 675.2705003 -179.03309043 681.35233893 -153.77246094 684.45214844 C-151.85268182 684.69763855 -149.93828208 684.98514138 -148.02661133 685.28735352 C-142.195883 686.03996795 -136.36230013 685.94767395 -130.4934082 685.94702148 C-128.31896816 685.94918894 -126.14505247 685.96733063 -123.97070312 685.98632812 C-114.9061672 686.02150544 -106.30312773 685.3252529 -97.3515625 683.76171875 C-98.10695313 683.1579541 -98.86234375 682.55418945 -99.640625 681.93212891 C-101.67336394 680.30469292 -103.7013929 678.67196253 -105.7265625 677.03515625 C-106.93464181 676.0686928 -108.14297946 675.1025522 -109.3515625 674.13671875 C-109.95484375 673.646875 -110.558125 673.15703125 -111.1796875 672.65234375 C-113.84474218 670.5318872 -116.04048271 668.8859816 -119.2265625 667.61328125 C-119.9278125 667.33226562 -120.6290625 667.05125 -121.3515625 666.76171875 C-121.6815625 665.77171875 -122.0115625 664.78171875 -122.3515625 663.76171875 C-124.16176055 662.08241744 -124.16176055 662.08241744 -126.4765625 660.38671875 C-131.15850363 656.74520898 -135.68264284 652.9598745 -140.1640625 649.07421875 C-140.79779785 648.52781738 -141.4315332 647.98141602 -142.08447266 647.41845703 C-144.86954874 644.99962544 -147.54922669 642.56350396 -150.15625 639.94921875 C-152.17551178 637.93714295 -153.73666262 636.82704833 -156.3515625 635.76171875 C-156.3515625 635.10171875 -156.3515625 634.44171875 -156.3515625 633.76171875 C-157.0115625 633.76171875 -157.6715625 633.76171875 -158.3515625 633.76171875 C-158.3515625 633.10171875 -158.3515625 632.44171875 -158.3515625 631.76171875 C-159.0115625 631.76171875 -159.6715625 631.76171875 -160.3515625 631.76171875 C-160.3515625 631.10171875 -160.3515625 630.44171875 -160.3515625 629.76171875 C-161.0115625 629.76171875 -161.6715625 629.76171875 -162.3515625 629.76171875 C-162.3515625 629.10171875 -162.3515625 628.44171875 -162.3515625 627.76171875 C-163.0115625 627.76171875 -163.6715625 627.76171875 -164.3515625 627.76171875 C-164.6196875 627.12234375 -164.8878125 626.48296875 -165.1640625 625.82421875 C-166.23824002 623.43040189 -166.23824002 623.43040189 -169.3515625 622.76171875 C-170.05550862 621.44768599 -170.71501908 620.10969305 -171.3515625 618.76171875 C-173.27015417 616.02952682 -173.27015417 616.02952682 -175.3515625 613.76171875 C-176.0115625 613.76171875 -176.6715625 613.76171875 -177.3515625 613.76171875 C-177.58359375 613.21 -177.815625 612.65828125 -178.0546875 612.08984375 C-179.69977385 609.13661644 -181.78319201 606.97059654 -184.1015625 604.51171875 C-187.77881717 600.55282463 -191.12970029 596.57192004 -194.1953125 592.125 C-194.576875 591.67511719 -194.9584375 591.22523438 -195.3515625 590.76171875 C-196.0115625 590.76171875 -196.6715625 590.76171875 -197.3515625 590.76171875 C-197.75375 589.64796875 -197.75375 589.64796875 -198.1640625 588.51171875 C-199.30433001 585.87109926 -200.44536556 583.90619031 -202.3515625 581.76171875 C-203.0115625 581.76171875 -203.6715625 581.76171875 -204.3515625 581.76171875 C-204.54878906 581.10816406 -204.74601562 580.45460938 -204.94921875 579.78125 C-206.94046826 575.49368491 -209.83326125 572.11583942 -212.7890625 568.44921875 C-217.62284291 562.35289779 -222.2779508 556.18881174 -226.6640625 549.76171875 C-227.12546631 549.08584717 -227.58687012 548.40997559 -228.06225586 547.71362305 C-231.18384299 543.09715776 -231.18384299 543.09715776 -232.3515625 540.76171875 C-233.0115625 540.76171875 -233.6715625 540.76171875 -234.3515625 540.76171875 C-234.59132813 540.06820313 -234.83109375 539.3746875 -235.078125 538.66015625 C-236.57238285 535.25911538 -238.5668632 532.38413024 -240.7265625 529.38671875 C-243.85742153 524.96274679 -246.79386346 520.5435039 -249.3515625 515.76171875 C-250.0115625 515.76171875 -250.6715625 515.76171875 -251.3515625 515.76171875 C-251.70927734 514.73498047 -251.70927734 514.73498047 -252.07421875 513.6875 C-253.61065477 510.16826276 -255.63258531 507.1070066 -257.7890625 503.94921875 C-258.23008301 503.29614746 -258.67110352 502.64307617 -259.12548828 501.97021484 C-260.52863133 499.89688441 -261.93927323 497.82882764 -263.3515625 495.76171875 C-264.02034424 494.77921143 -264.02034424 494.77921143 -264.70263672 493.77685547 C-278.1870908 473.97758559 -291.92868298 454.40231567 -307.16381836 435.90014648 C-307.68210205 435.27052002 -308.20038574 434.64089355 -308.734375 433.9921875 C-309.19215332 433.43942139 -309.64993164 432.88665527 -310.12158203 432.31713867 C-311.27617884 430.8570481 -312.31902146 429.31053032 -313.3515625 427.76171875 C-314.0115625 427.76171875 -314.6715625 427.76171875 -315.3515625 427.76171875 C-315.70541016 426.93027344 -315.70541016 426.93027344 -316.06640625 426.08203125 C-317.664208 423.19724633 -319.67007259 421.04999843 -321.9140625 418.63671875 C-326.25434028 413.95616319 -326.25434028 413.95616319 -327.3515625 411.76171875 C-328.0115625 411.76171875 -328.6715625 411.76171875 -329.3515625 411.76171875 C-329.6196875 411.16359375 -329.8878125 410.56546875 -330.1640625 409.94921875 C-331.35073656 407.76324021 -332.44755363 406.34839281 -334.3515625 404.76171875 C-335.0115625 404.76171875 -335.6715625 404.76171875 -336.3515625 404.76171875 C-336.75375 403.86453125 -336.75375 403.86453125 -337.1640625 402.94921875 C-338.35073656 400.76324021 -339.44755363 399.34839281 -341.3515625 397.76171875 C-342.0115625 397.76171875 -342.6715625 397.76171875 -343.3515625 397.76171875 C-343.6815625 396.77171875 -344.0115625 395.78171875 -344.3515625 394.76171875 C-345.0115625 394.76171875 -345.6715625 394.76171875 -346.3515625 394.76171875 C-346.3515625 394.10171875 -346.3515625 393.44171875 -346.3515625 392.76171875 C-347.76476169 391.29301147 -347.76476169 391.29301147 -349.6640625 389.76171875 C-353.09108213 386.85449399 -356.42437765 383.87275071 -359.7265625 380.82421875 C-367.65415892 372.36886993 -367.65415892 372.36886993 -377.3515625 367.76171875 C-377.3515625 367.10171875 -377.3515625 366.44171875 -377.3515625 365.76171875 C-379.32290236 364.38636536 -381.32838172 363.05960831 -383.3515625 361.76171875 C-384.2590625 361.01921875 -385.1665625 360.27671875 -386.1015625 359.51171875 C-388.13960681 357.55707188 -388.13960681 357.55707188 -390.3515625 357.76171875 C-390.3515625 357.10171875 -390.3515625 356.44171875 -390.3515625 355.76171875 C-392.3315625 355.10171875 -394.3115625 354.44171875 -396.3515625 353.76171875 C-396.3515625 353.10171875 -396.3515625 352.44171875 -396.3515625 351.76171875 C-397.78982572 350.54073842 -397.78982572 350.54073842 -399.7890625 349.32421875 C-400.61019531 348.79570313 -401.43132812 348.2671875 -402.27734375 347.72265625 C-403.29183594 347.07554687 -404.30632812 346.4284375 -405.3515625 345.76171875 C-406.63762798 344.92196374 -407.92271658 344.0807115 -409.20703125 343.23828125 C-413.5693199 340.38243831 -417.95387067 337.56270094 -422.3515625 334.76171875 C-422.98900391 334.3548584 -423.62644531 333.94799805 -424.28320312 333.52880859 C-433.06271613 327.96798286 -442.10756717 323.33267223 -451.55078125 319 C-455.1427008 317.35141752 -458.66631306 315.59529559 -462.1875 313.80078125 C-468.10722366 310.82612833 -474.13002579 308.25864974 -480.2890625 305.82421875 C-481.90651367 305.18190308 -481.90651367 305.18190308 -483.55664062 304.52661133 C-507.69629541 295.05204518 -532.17533705 288.31292156 -557.57861328 283.31152344 C-560.38890028 282.75431563 -563.19637402 282.18418975 -566.00390625 281.61328125 C-567.84886749 281.24563756 -569.69391714 280.87843726 -571.5390625 280.51171875 C-572.38694336 280.33656738 -573.23482422 280.16141602 -574.10839844 279.98095703 C-578.91919522 279.03798009 -583.42690045 278.5976746 -588.33105469 278.74902344 C-590.40732861 278.76206914 -592.36026378 278.55380758 -594.4140625 278.26171875 C-613.51396608 275.9283972 -644.77980184 275.54716321 -660.3515625 288.19921875 Z M-182.3515625 315.76171875 C-183.52730961 317.86161527 -183.52730961 317.86161527 -184.3515625 319.76171875 C-185.3415625 320.09171875 -186.3315625 320.42171875 -187.3515625 320.76171875 C-189.65312452 323.79008983 -189.77815694 327.06640636 -189.66015625 330.80078125 C-189.14440274 334.07810101 -187.78643738 335.57657463 -185.3515625 337.76171875 C-180.9417865 340.38881935 -177.45631169 340.91736143 -172.3515625 341.19921875 C-159.00745645 341.98416616 -147.3217178 345.26761411 -138.0390625 355.13671875 C-131.47594426 363.00214532 -130.64564341 369.71594702 -131.3515625 379.76171875 C-131.8465625 381.24671875 -131.8465625 381.24671875 -132.3515625 382.76171875 C-133.73403411 392.86570881 -134.40784531 402.94944237 -131.3515625 412.76171875 C-131.05958984 413.72851562 -131.05958984 413.72851562 -130.76171875 414.71484375 C-127.95668297 423.14654892 -122.85642381 430.8294001 -115.3515625 435.76171875 C-114.6915625 435.76171875 -114.0315625 435.76171875 -113.3515625 435.76171875 C-113.3515625 436.42171875 -113.3515625 437.08171875 -113.3515625 437.76171875 C-111.27641012 439.47917239 -111.27641012 439.47917239 -108.6640625 441.19921875 C-107.35888672 442.09447266 -107.35888672 442.09447266 -106.02734375 443.0078125 C-102.08547425 445.59160725 -98.41509565 447.92649053 -93.9140625 449.38671875 C-93.19347656 449.62648438 -92.47289062 449.86625 -91.73046875 450.11328125 C-74.93827807 454.69046295 -59.91035087 450.1107082 -44.3515625 443.76171875 C-44.3515625 443.10171875 -44.3515625 442.44171875 -44.3515625 441.76171875 C-43.7534375 441.69984375 -43.1553125 441.63796875 -42.5390625 441.57421875 C-40.2043413 440.89882822 -40.2043413 440.89882822 -38.6015625 438.82421875 C-35.85853905 432.10381129 -36.80788315 426.52276952 -39.50634766 419.95507812 C-42.89557459 412.23223504 -46.88120843 404.91428526 -51.3515625 397.76171875 C-51.89425781 396.88515625 -52.43695312 396.00859375 -52.99609375 395.10546875 C-54.75411849 392.30580406 -56.54734142 389.53183596 -58.3515625 386.76171875 C-58.71620605 386.19582031 -59.08084961 385.62992188 -59.45654297 385.046875 C-70.78045826 367.50211662 -83.77199815 350.7700108 -99.3515625 336.76171875 C-100.0115625 336.76171875 -100.6715625 336.76171875 -101.3515625 336.76171875 C-101.5578125 336.20484375 -101.7640625 335.64796875 -101.9765625 335.07421875 C-103.92839282 331.79159504 -106.29387244 330.05498629 -109.3515625 327.76171875 C-110.0115625 327.76171875 -110.6715625 327.76171875 -111.3515625 327.76171875 C-111.3515625 327.10171875 -111.3515625 326.44171875 -111.3515625 325.76171875 C-113.67829923 324.18361031 -115.9902229 322.73831556 -118.4140625 321.32421875 C-119.07083984 320.92912109 -119.72761719 320.53402344 -120.40429688 320.12695312 C-137.72054405 309.87368756 -165.01510952 301.45914504 -182.3515625 315.76171875 Z M-179.3515625 365.76171875 C-182.7819322 369.64345288 -184.00863992 372.72488861 -183.74609375 377.80078125 C-182.81083563 382.4492919 -180.16829914 385.21722766 -176.3515625 387.76171875 C-171.45152525 389.09809255 -168.03580015 388.72058177 -163.3515625 386.76171875 C-160.12854768 384.01872741 -158.69542964 382.48385014 -157.87109375 378.35546875 C-157.6324149 374.0721511 -157.84068492 370.75340074 -160.4765625 367.26171875 C-166.56892934 361.96400846 -172.51019783 361.48586583 -179.3515625 365.76171875 Z " fill="#4D6AFE" transform="translate(841.3515625,699.23828125)"/>
<path d="M0 0 C1.07318481 0.00142502 2.14636963 0.00285004 3.2520752 0.00431824 C4.46673462 0.00124161 5.68139404 -0.00183502 6.93286133 -0.00500488 C8.25056519 0.00218063 9.56826904 0.00936615 10.92590332 0.01676941 C12.28588823 0.01796127 13.64587397 0.01841436 15.00585938 0.01815796 C17.85735216 0.01972311 20.70871945 0.02801492 23.56018066 0.04142761 C27.21891409 0.05841753 30.87750952 0.06224196 34.53627777 0.06148243 C37.34492312 0.06175411 40.15353818 0.06723498 42.96217346 0.07448387 C44.96859366 0.07922262 46.97502024 0.08094714 48.98144531 0.0826416 C50.80343445 0.09221138 50.80343445 0.09221138 52.66223145 0.10197449 C54.27200867 0.10769218 54.27200867 0.10769218 55.91430664 0.11352539 C58.45715332 0.24723816 58.45715332 0.24723816 60.45715332 1.24723816 C60.45715332 9.16723816 60.45715332 17.08723816 60.45715332 25.24723816 C70.85575711 24.7833974 70.85575711 24.7833974 77.39465332 19.21208191 C90.97316002 6.27649693 109.55127188 3.00751238 127.45715332 1.24723816 C128.22769043 1.1713446 128.99822754 1.09545105 129.79211426 1.01725769 C152.3344295 -1.05052618 175.14836562 1.63857432 196.45715332 9.24723816 C197.59797363 9.63911316 198.73879395 10.03098816 199.91418457 10.43473816 C215.38318992 16.01312206 227.55126888 25.14494805 239.45715332 36.24723816 C240.04883301 36.78993347 240.6405127 37.33262878 241.25012207 37.89176941 C242.45715332 39.24723816 242.45715332 39.24723816 242.45715332 41.24723816 C243.11715332 41.24723816 243.77715332 41.24723816 244.45715332 41.24723816 C263.28794671 65.29325129 270.78798213 94.81130834 273.2364502 124.72209167 C273.45463331 127.21840581 273.72276726 129.70566512 273.99621582 132.19645691 C276.55880504 157.67804792 275.24016194 190.20919586 264.51184082 213.91130066 C263.23304373 216.74359941 262.20602451 219.63923311 261.14465332 222.55973816 C258.50641788 229.48510618 255.11107763 235.81338296 251.45715332 242.24723816 C250.79715332 242.24723816 250.13715332 242.24723816 249.45715332 242.24723816 C249.2173877 242.95493347 248.97762207 243.66262878 248.73059082 244.39176941 C247.25246534 247.70621643 245.38374763 250.13229858 243.08215332 252.93473816 C242.31129395 253.88735535 241.54043457 254.83997253 240.74621582 255.82145691 C238.67041047 258.0212438 237.23619623 259.16226935 234.45715332 260.24723816 C234.45715332 260.90723816 234.45715332 261.56723816 234.45715332 262.24723816 C205.02558868 287.36555625 167.99270825 292.65726721 130.55041504 292.50798035 C127.27305486 292.4970409 123.99621804 292.50806115 120.71887207 292.52067566 C118.62902711 292.51935751 116.53918248 292.51680231 114.44934082 292.51286316 C113.47246307 292.51691162 112.49558533 292.52096008 111.48910522 292.52513123 C110.14466843 292.51567474 110.14466843 292.51567474 108.77307129 292.50602722 C107.98512177 292.50443604 107.19717224 292.50284485 106.38534546 292.50120544 C104.45715332 292.24723816 104.45715332 292.24723816 102.45715332 290.24723816 C102.21664429 287.8427887 102.21664429 287.8427887 102.23010254 284.7877655 C102.2302536 283.6467337 102.23040466 282.5057019 102.2305603 281.33009338 C102.24088287 280.09361053 102.25120544 278.85712769 102.26184082 277.58317566 C102.26467072 276.32083099 102.26750061 275.05848633 102.27041626 273.75788879 C102.27973201 270.40076872 102.29770497 267.04391904 102.31982422 263.68687439 C102.34027782 260.26170694 102.34941692 256.83651157 102.35949707 253.41130066 C102.38158874 246.68987145 102.41508955 239.96857042 102.45715332 233.24723816 C104.8921879 232.02972087 106.4663744 232.11630109 109.18786621 232.10539246 C110.17392349 232.098358 111.15998077 232.09132355 112.17591858 232.08407593 C113.24970261 232.07991165 114.32348663 232.07574738 115.42980957 232.07145691 C117.71562568 232.04822031 120.00143296 232.02410154 122.28723145 231.99919128 C125.88079398 231.96437796 129.47404005 231.93491078 133.06774902 231.92131042 C150.07789345 231.84437358 167.15471081 231.67382218 182.45715332 223.24723816 C183.28602051 222.79348816 184.1148877 222.33973816 184.96887207 221.87223816 C199.80109891 213.35867298 208.97477206 200.91462394 213.82385254 184.58757019 C221.71604201 155.42237039 221.59507065 121.58301314 207.87512207 94.07536316 C206.49455262 91.7126671 205.04949609 89.4710272 203.45715332 87.24723816 C202.83840332 86.36036316 202.21965332 85.47348816 201.58215332 84.55973816 C198.07784235 80.74622328 194.12630835 76.58181567 189.45715332 74.24723816 C189.45715332 73.58723816 189.45715332 72.92723816 189.45715332 72.24723816 C188.60121582 71.96880066 187.74527832 71.69036316 186.86340332 71.40348816 C182.41269399 69.89269692 178.0533806 68.17528881 173.67590332 66.46598816 C172.61371582 66.06380066 171.55152832 65.66161316 170.45715332 65.24723816 C169.54191895 64.88887878 168.62668457 64.53051941 167.68371582 64.16130066 C163.26750736 62.91021981 158.89521734 62.51729456 154.33215332 62.12223816 C152.92220093 61.99703796 152.92220093 61.99703796 151.48376465 61.86930847 C129.85340439 60.03891791 108.8518991 61.71455422 90.45715332 74.24723816 C89.8358252 74.62364441 89.21449707 75.00005066 88.57434082 75.38786316 C80.29778129 80.65813874 74.59996458 89.52478861 70.45715332 98.24723816 C70.03691895 99.09673035 69.61668457 99.94622253 69.18371582 100.82145691 C60.85375439 119.72794512 60.86244685 141.65858632 60.91125488 161.9427948 C60.90249162 164.39965968 60.89199643 166.85651888 60.87992859 169.31336975 C60.85804487 174.5437002 60.847855 179.7739041 60.84903717 185.00427437 C60.85072492 192.56595413 60.83018644 200.12745359 60.80468187 207.6890847 C60.7638588 219.96521495 60.7403542 232.24131216 60.72814941 244.51750183 C60.71627437 256.423784 60.6959888 268.33000425 60.66467285 280.23625183 C60.66273675 280.97344564 60.66080065 281.71063945 60.65880588 282.47017247 C60.64903948 286.16944072 60.6391107 289.86870852 60.62910128 293.56797612 C60.54662226 324.12770244 60.4927164 354.68741905 60.45715332 385.24723816 C56.43448992 385.94903087 52.66122502 386.37335985 48.57531738 386.37663269 C47.44104309 386.37978485 46.3067688 386.38293701 45.13812256 386.38618469 C43.92855896 386.38416046 42.71899536 386.38213623 41.47277832 386.38005066 C40.22083679 386.38100739 38.96889526 386.38196411 37.67901611 386.38294983 C35.03975938 386.38362904 32.40059589 386.38229775 29.76135254 386.37760925 C26.37626594 386.37188896 22.99125823 386.37521069 19.60617447 386.38118172 C16.37420621 386.38565634 13.1422476 386.38252808 9.91027832 386.38005066 C8.08378754 386.38308701 8.08378754 386.38308701 6.22039795 386.38618469 C5.0987323 386.38303253 3.97706665 386.37988037 2.82141113 386.37663269 C1.83135071 386.3758371 0.84129028 386.3750415 -0.17877197 386.3742218 C-2.54284668 386.24723816 -2.54284668 386.24723816 -4.54284668 385.24723816 C-4.58858052 336.48935022 -4.62384369 287.73146445 -4.64497734 238.9735593 C-4.64747888 233.22298867 -4.65006752 227.47241809 -4.65270996 221.72184753 C-4.65323458 220.5769667 -4.6537592 219.43208586 -4.65429972 218.25251167 C-4.66301277 199.69169205 -4.67878768 181.13088477 -4.69715227 162.57007249 C-4.71582632 143.53839475 -4.72695811 124.5067235 -4.73102367 105.47503698 C-4.73377392 93.72251521 -4.74247398 81.97002829 -4.75867961 70.21751724 C-4.76921573 62.16874454 -4.772455 54.11998998 -4.76984943 46.07121088 C-4.76856286 41.42092727 -4.77059557 36.77070476 -4.78125763 32.1204319 C-4.79093399 27.86925636 -4.79151848 23.61818346 -4.78464447 19.36700337 C-4.78379391 17.82323435 -4.78637841 16.27945913 -4.79261304 14.73570247 C-4.80055676 12.64860234 -4.79636406 10.56188019 -4.78894234 8.47478676 C-4.78970178 7.31208311 -4.79046122 6.14937946 -4.79124367 4.95144236 C-4.45713511 1.31412867 -3.66234612 0.35608585 0 0 Z " fill="#4D6AFE" transform="translate(2198.5428466796875,975.7527618408203)"/>
<path d="M0 0 C1.63166611 -0.00461494 1.63166611 -0.00461494 3.29629517 -0.00932312 C4.4558371 -0.0021376 5.61537903 0.00504791 6.81005859 0.01245117 C8.61426773 0.0131385 8.61426773 0.0131385 10.45492554 0.01383972 C12.99160756 0.01685485 15.52828785 0.02471897 18.06494141 0.03710938 C21.95140118 0.05538656 25.83762278 0.05761878 29.72412109 0.05737305 C32.19026899 0.06228785 34.65641527 0.068116 37.12255859 0.07495117 C38.28614899 0.076064 39.44973938 0.07717682 40.64859009 0.07832336 C41.73006317 0.08470322 42.81153625 0.09108307 43.92578125 0.09765625 C45.35091537 0.10337395 45.35091537 0.10337395 46.80484009 0.10920715 C49.13695719 0.23252714 51.08880496 0.64378249 53.33349609 1.24291992 C53.48378767 49.87340213 53.62881653 98.50389757 53.76674369 147.13441651 C53.78301554 152.86996594 53.79933116 158.60551523 53.81567383 164.34106445 C53.81892675 165.48295468 53.82217968 166.6248449 53.82553118 167.80133785 C53.87837209 186.31366095 53.93476238 204.82597164 53.9924543 223.33828019 C54.05153118 242.32022823 54.10681719 261.30218456 54.15855163 280.28415406 C54.19061932 292.00596353 54.22567745 303.72775635 54.264508 315.4495454 C54.29081866 323.47728143 54.3134618 331.50502247 54.33316726 339.53277741 C54.34466229 344.17089823 54.35782559 348.80899921 54.37532616 353.44710159 C54.39128923 357.68713893 54.40268252 361.92716224 54.41032719 366.16722251 C54.4139304 367.70695696 54.4192601 369.24668845 54.42642445 370.78641044 C54.43586602 372.86795694 54.43920754 374.94942367 54.44092655 377.03098869 C54.44434403 378.19065458 54.44776152 379.35032047 54.45128256 380.54512775 C54.33349609 383.24291992 54.33349609 383.24291992 53.33349609 385.24291992 C40.62998652 387.54978974 26.81178224 386.35457029 13.95849609 386.30541992 C11.66162207 386.30039429 9.36474698 386.29583327 7.06787109 386.29174805 C1.4897225 386.28082803 -4.08838561 386.26417439 -9.66650391 386.24291992 C-11.42487042 382.951324 -11.90547962 380.794831 -11.86181641 377.03979492 C-11.85214844 375.57026367 -11.85214844 375.57026367 -11.84228516 374.07104492 C-11.82552734 373.05526367 -11.80876953 372.03948242 -11.79150391 370.99291992 C-11.78248047 369.96166992 -11.77345703 368.93041992 -11.76416016 367.86791992 C-11.74062402 365.32601705 -11.70774414 362.78458712 -11.66650391 360.24291992 C-13.26517024 360.32866708 -14.86270661 360.43564824 -16.45947266 360.55151367 C-17.34916748 360.60879639 -18.2388623 360.6660791 -19.15551758 360.72509766 C-22.83383279 361.48364958 -24.24552981 363.46667072 -26.63916016 366.20385742 C-33.6664338 373.27175115 -43.29077848 377.33956084 -52.66650391 380.24291992 C-53.41673828 380.51749023 -54.16697266 380.79206055 -54.93994141 381.07495117 C-62.60611856 383.73064053 -70.56451805 384.30281969 -78.59375 385.03881836 C-80.29540954 385.20637871 -81.99199903 385.42468251 -83.68603516 385.65698242 C-116.40627154 389.77695362 -148.85297527 378.31295869 -176.66650391 362.24291992 C-176.66650391 361.58291992 -176.66650391 360.92291992 -176.66650391 360.24291992 C-177.50181641 360.15010742 -177.50181641 360.15010742 -178.35400391 360.05541992 C-180.96689314 359.13737776 -182.32625496 357.81398989 -184.19384766 355.80932617 C-185.25587593 354.67968868 -186.35790815 353.58720106 -187.48291016 352.52026367 C-199.37822775 341.18363027 -207.15872686 327.57686399 -212.66650391 312.24291992 C-213.16212971 310.94846982 -213.65824839 309.65420836 -214.15478516 308.36010742 C-231.55216564 261.96340966 -229.16854356 203.53828679 -209.66650391 158.24291992 C-203.02423077 143.95042697 -192.23943737 127.78884099 -178.66650391 119.24291992 C-178.00650391 119.24291992 -177.34650391 119.24291992 -176.66650391 119.24291992 C-176.66650391 118.58291992 -176.66650391 117.92291992 -176.66650391 117.24291992 C-147.6826505 96.21420926 -112.39632654 93.86083894 -77.97900391 94.11791992 C-75.60856502 94.12797997 -73.23812196 94.13710042 -70.86767578 94.14526367 C-65.13385859 94.16701398 -59.40020163 94.20024703 -53.66650391 94.24291992 C-52.72320394 105.54935718 -52.44992509 116.81121126 -52.42626953 128.15405273 C-52.41637531 131.03030373 -52.38514938 133.90589239 -52.35400391 136.78198242 C-52.34748883 138.61791575 -52.34223253 140.45385408 -52.33837891 142.28979492 C-52.3260321 143.14595398 -52.3136853 144.00211304 -52.30096436 144.88421631 C-52.32332017 150.78570092 -52.32332017 150.78570092 -53.96357727 152.97099304 C-56.86872568 155.14086711 -60.31067453 154.56376994 -63.78759766 154.46557617 C-64.59540176 154.45563629 -65.40320587 154.44569641 -66.23548889 154.43545532 C-67.96355257 154.41399409 -69.69155004 154.38651715 -71.41943359 154.35360718 C-75.88566408 154.27343964 -80.35199318 154.25281814 -84.81884766 154.23510742 C-85.68847137 154.23135605 -86.55809509 154.22760468 -87.45407104 154.22373962 C-106.53021303 154.18461411 -126.00700446 156.19715111 -141.66650391 168.24291992 C-142.32650391 168.24291992 -142.98650391 168.24291992 -143.66650391 168.24291992 C-143.66650391 168.90291992 -143.66650391 169.56291992 -143.66650391 170.24291992 C-144.79881088 171.2216427 -145.97469204 172.15010129 -147.16650391 173.05541992 C-153.13818278 178.10100956 -159.30699365 186.37307886 -160.66650391 194.24291992 C-161.32650391 194.24291992 -161.98650391 194.24291992 -162.66650391 194.24291992 C-162.85212891 195.73178711 -162.85212891 195.73178711 -163.04150391 197.25073242 C-163.71451404 201.96417312 -164.96163005 206.5180591 -166.20556641 211.10620117 C-168.66443461 220.51962943 -168.84858727 229.7971355 -168.85400391 239.49291992 C-168.87237305 241.2002832 -168.87237305 241.2002832 -168.89111328 242.94213867 C-168.92411294 262.32393919 -164.99115597 284.65585996 -152.66650391 300.24291992 C-152.66650391 300.90291992 -152.66650391 301.56291992 -152.66650391 302.24291992 C-152.00650391 302.24291992 -151.34650391 302.24291992 -150.66650391 302.24291992 C-149.52181641 303.72791992 -149.52181641 303.72791992 -148.35400391 305.24291992 C-141.47186754 313.51826926 -130.82258077 318.30450443 -120.66650391 321.24291992 C-119.70744141 321.5290918 -118.74837891 321.81526367 -117.76025391 322.11010742 C-93.58185744 328.52104588 -65.7277827 326.15601047 -43.66650391 314.24291992 C-43.00650391 314.24291992 -42.34650391 314.24291992 -41.66650391 314.24291992 C-41.66650391 313.58291992 -41.66650391 312.92291992 -41.66650391 312.24291992 C-40.25944692 311.31632142 -38.85094821 310.39185231 -37.43603516 309.47729492 C-24.7958546 300.65986213 -19.42961817 286.52233412 -15.66650391 272.24291992 C-15.33862822 271.09075171 -15.01075253 269.93858349 -14.67294121 268.75150108 C-13.32726756 263.32473112 -12.95609939 257.84508496 -12.55569458 252.28140259 C-12.47138597 251.13830773 -12.38707735 249.99521287 -12.30021393 248.81747878 C-11.49467782 237.08209626 -11.39842731 225.38504664 -11.43945312 213.62719727 C-11.4400194 211.29826869 -11.43969647 208.96933975 -11.43856812 206.64041138 C-11.43800205 200.41071227 -11.44963334 194.18109261 -11.46371603 187.95141172 C-11.4763499 181.40654641 -11.47740374 174.86167861 -11.47976685 168.31680298 C-11.48491335 157.36166025 -11.49767718 146.40654485 -11.515625 135.45141602 C-11.53406729 124.18253723 -11.54818255 112.91366628 -11.55664062 101.64477539 C-11.5574288 100.59762517 -11.5574288 100.59762517 -11.55823289 99.5293204 C-11.56084353 96.02611613 -11.56337081 92.5229118 -11.5658567 89.01970744 C-11.58648968 60.09409308 -11.62177844 31.16850689 -11.66650391 2.24291992 C-7.59710448 0.82522866 -4.31836916 -0.0064662 0 0 Z " fill="#4D6AFE" transform="translate(1459.66650390625,892.757080078125)"/>
<path d="M0 0 C0.84820313 0.21140625 1.69640625 0.4228125 2.5703125 0.640625 C18.29740306 4.68918297 33.84128308 14.35207002 45 26 C45 26.66 45 27.32 45 28 C45.66 28 46.32 28 47 28 C58.84841409 42.51626892 65.48576968 63.27239143 64 82 C63 83 63 83 60.41209412 83.12025452 C59.25959671 83.11803391 58.1070993 83.11581329 56.91967773 83.11352539 C54.96776772 83.11341209 54.96776772 83.11341209 52.97642517 83.11329651 C51.54548098 83.10818909 50.11453718 83.10297308 48.68359375 83.09765625 C47.2277074 83.09579203 45.77182043 83.09436815 44.31593323 83.09336853 C40.47720621 83.08954365 36.63851681 83.07971364 32.79980469 83.06866455 C28.88542184 83.05844978 24.97103294 83.05387077 21.05664062 83.04882812 C13.37107657 83.03809134 5.68554355 83.02101529 -2 83 C-2.1853833 82.11014404 -2.3707666 81.22028809 -2.56176758 80.3034668 C-2.81595459 79.13468994 -3.0701416 77.96591309 -3.33203125 76.76171875 C-3.7029187 75.02474731 -3.7029187 75.02474731 -4.08129883 73.25268555 C-5.29814026 68.9444266 -7.18185098 66.42747854 -10 63 C-10 62.34 -10 61.68 -10 61 C-10.56589844 60.72027344 -11.13179687 60.44054688 -11.71484375 60.15234375 C-13.21769959 59.39449337 -14.71048089 58.61626433 -16.19140625 57.81640625 C-38.7978409 45.86143834 -70.90251616 45.94961397 -95.08203125 53.1015625 C-102.6405539 55.82931805 -109.99439589 59.36603342 -114.375 66.375 C-118.67435407 75.96586676 -119.21888235 84.7263443 -115.92578125 94.76171875 C-114.41735342 98.40867717 -112.56457752 101.21771124 -109 103 C-109 103.66 -109 104.32 -109 105 C-108.195625 105.2475 -107.39125 105.495 -106.5625 105.75 C-103.88019781 106.69115866 -101.58629585 107.68994183 -99.0625 108.9375 C-83.5899411 115.91838516 -65.20741086 115.16777511 -48.5715332 115.47680664 C-39.72638457 115.64783128 -31.12119541 116.21469294 -22.3659668 117.51513672 C-18.95738891 118.00613807 -15.55246301 118.3573351 -12.125 118.6875 C4.62120407 120.94383065 21.07345212 126.11722178 36 134 C37.99861815 135.00275893 39.99820253 136.00360306 42 137 C42 137.66 42 138.32 42 139 C42.72445312 139.24492188 43.44890625 139.48984375 44.1953125 139.7421875 C49.30512519 142.03377481 53.01583083 146.14111917 57 150 C57.63421875 150.6084375 58.2684375 151.216875 58.921875 151.84375 C66.50427919 159.7739709 72.53996115 171.34599716 75 182 C75.20238281 182.86625 75.40476562 183.7325 75.61328125 184.625 C78.67066595 200.59827516 78.54761518 217.65709069 73 233 C72.66097656 234.01835938 72.32195313 235.03671875 71.97265625 236.0859375 C65.30716886 254.16103143 50.47114343 269.38107278 33.0625 277.4375 C30.35994451 278.60975184 29.00789379 279 26 279 C25.67 279.66 25.34 280.32 25 281 C22.56484576 281.90756671 20.17440414 282.7002307 17.6875 283.4375 C16.96344971 283.65704346 16.23939941 283.87658691 15.4934082 284.1027832 C-25.70617171 296.44765236 -78.9905397 300.60728977 -121 289 C-122.3693576 288.68252047 -123.74054176 288.3728349 -125.11328125 288.0703125 C-151.06194302 282.26797552 -174.19182293 271.41625791 -189.625 248.9375 C-198.26007924 234.82892659 -201 220.40629196 -201 204 C-175.92 204 -150.84 204 -125 204 C-124.01 208.29 -123.02 212.58 -122 217 C-117.79100381 224.79902236 -110.62986286 229.54396755 -102.28515625 232.34765625 C-88.28322207 236.3447896 -74.80651289 237.21220031 -60.3125 237.1875 C-59.60312286 237.18656342 -58.89374573 237.18562683 -58.16287231 237.18466187 C-39.2014035 237.13034481 -17.73517131 236.76986144 -3 223 C2.78657611 215.95138641 3.70531103 208.91619598 3 200 C1.72807254 192.9285501 -1.5635787 187.67000853 -7 183 C-16.97007547 176.5595989 -28.40491029 174.43632868 -40 173 C-40.66725098 172.91459961 -41.33450195 172.82919922 -42.02197266 172.74121094 C-50.443872 171.771449 -58.90820411 171.69016523 -67.375 171.5 C-93.96744333 170.89995963 -93.96744333 170.89995963 -107 168 C-108.38906034 167.71745601 -109.77840961 167.43633059 -111.16796875 167.15625 C-119.50832092 165.43713071 -127.32103358 163.42221621 -135.203125 160.1484375 C-138.09856701 158.95952695 -141.02185949 157.96040626 -144 157 C-144 156.34 -144 155.68 -144 155 C-144.68320313 154.93039062 -145.36640625 154.86078125 -146.0703125 154.7890625 C-149.90755608 153.7555649 -152.7231373 151.70015158 -155.875 149.375 C-156.49560303 148.92350586 -157.11620605 148.47201172 -157.75561523 148.00683594 C-162.23547142 144.69330845 -166.34566496 141.22444869 -170 137 C-170.81210938 136.07832031 -171.62421875 135.15664062 -172.4609375 134.20703125 C-184.27057169 119.93126107 -188.4043743 99.35125886 -188.375 81.3125 C-188.37338867 80.26884277 -188.37177734 79.22518555 -188.37011719 78.14990234 C-188.22994988 69.23003947 -186.86620885 61.45037437 -184 53 C-183.68804688 52.07316406 -183.37609375 51.14632813 -183.0546875 50.19140625 C-182.14080862 47.730077 -181.11656881 45.37567832 -180 43 C-179.61585938 42.1440625 -179.23171875 41.288125 -178.8359375 40.40625 C-169.40473047 21.21291639 -150.93657943 9.22446477 -131.2734375 2.265625 C-115.53270053 -3.00786473 -99.89788507 -5.47989834 -83.40673828 -6.80029297 C-81.37188716 -6.96914144 -79.33976595 -7.17041556 -77.30859375 -7.37890625 C-51.7787887 -9.7159336 -24.54878676 -7.46870819 0 0 Z " fill="#4D6AFE" transform="translate(2715,984)"/>
<path d="M0 0 C0.81339844 0.45890625 1.62679687 0.9178125 2.46484375 1.390625 C4.43809501 2.50493159 6.40799731 3.62471242 8.375 4.75 C8.375 5.41 8.375 6.07 8.375 6.75 C8.95507812 7.01296875 9.53515625 7.2759375 10.1328125 7.546875 C16.31541568 10.86436939 21.62564078 16.64443884 26.375 21.75 C26.375 22.41 26.375 23.07 26.375 23.75 C27.035 23.75 27.695 23.75 28.375 23.75 C29.6640625 25.2109375 29.6640625 25.2109375 31 27.125 C31.44601563 27.75148438 31.89203125 28.37796875 32.3515625 29.0234375 C33.375 30.75 33.375 30.75 33.375 32.75 C34.035 32.75 34.695 32.75 35.375 32.75 C55.04127261 67.68973518 59.37633005 104.49334056 59.5 144 C59.50467285 145.05453369 59.5093457 146.10906738 59.51416016 147.19555664 C59.51206543 148.1674292 59.5099707 149.13930176 59.5078125 150.140625 C59.50668457 151.00719727 59.50555664 151.87376953 59.50439453 152.76660156 C59.375 154.75 59.375 154.75 58.375 155.75 C56.18771076 155.84918212 53.99715387 155.87632398 51.80761719 155.87698364 C51.11326443 155.87854363 50.41891167 155.88010362 49.70351791 155.88171089 C47.35961582 155.88572311 45.01577766 155.8825304 42.671875 155.87939453 C40.99849408 155.88074847 39.32511345 155.88252837 37.6517334 155.88470459 C33.0940122 155.88927976 28.53631353 155.88748902 23.97859192 155.8843255 C19.21977678 155.88180233 14.46096364 155.88413932 9.70214844 155.88571167 C1.70898083 155.88753349 -6.28417755 155.88512673 -14.27734375 155.88037109 C-23.53238286 155.87492845 -32.78739994 155.8766911 -42.04243851 155.8821975 C-49.97362075 155.88672827 -57.90479634 155.88737935 -65.83597946 155.88475883 C-70.57949942 155.88319586 -75.32300902 155.88300284 -80.06652832 155.88629532 C-84.52500953 155.88917352 -88.9834622 155.88719929 -93.44194031 155.88140106 C-95.08310397 155.88007319 -96.72427001 155.88046804 -98.36543274 155.88266373 C-100.59619386 155.88537417 -102.82686207 155.88199544 -105.05761719 155.87698364 C-106.93474396 155.8764181 -106.93474396 155.8764181 -108.84979248 155.87584114 C-111.625 155.75 -111.625 155.75 -112.625 154.75 C-112.71795815 153.30710213 -112.74246513 151.85970215 -112.73852539 150.41381836 C-112.73841209 149.03249977 -112.73841209 149.03249977 -112.73829651 147.62327576 C-112.73313522 146.62224319 -112.72797394 145.62121063 -112.72265625 144.58984375 C-112.7212413 143.57024063 -112.71982635 142.55063751 -112.71836853 141.50013733 C-112.71275097 138.22922893 -112.7001955 134.95838787 -112.6875 131.6875 C-112.68248726 129.47591244 -112.67792396 127.26432382 -112.67382812 125.05273438 C-112.66277584 119.61846643 -112.64602063 114.18423803 -112.625 108.75 C-110.24943706 107.56221853 -108.82075841 107.62675422 -106.17050171 107.62974548 C-105.23378128 107.62837082 -104.29706085 107.62699615 -103.33195496 107.62557983 C-102.30121353 107.62917511 -101.27047211 107.63277039 -100.20849609 107.63647461 C-99.12555771 107.63632858 -98.04261932 107.63618256 -96.92686462 107.6360321 C-93.33403547 107.63673085 -89.74125764 107.64452148 -86.1484375 107.65234375 C-83.66264881 107.65420807 -81.17685975 107.6556319 -78.69107056 107.65663147 C-72.80853603 107.66006435 -66.92602057 107.66795227 -61.04349387 107.67798096 C-53.69045754 107.69024508 -46.33741893 107.69562374 -38.984375 107.70117188 C-25.86457391 107.71190732 -12.74478812 107.72879114 0.375 107.75 C-0.23806534 105.38037576 -0.85594538 103.01217862 -1.4765625 100.64453125 C-1.64744385 99.98199341 -1.8183252 99.31945557 -1.99438477 98.63684082 C-5.76339427 84.32075459 -13.13577222 67.01993222 -26.40234375 59.08984375 C-27.13582031 58.64769531 -27.86929688 58.20554687 -28.625 57.75 C-28.625 57.09 -28.625 56.43 -28.625 55.75 C-29.68847656 55.33041016 -29.68847656 55.33041016 -30.7734375 54.90234375 C-32.64242706 54.14706715 -34.50244352 53.36910403 -36.3515625 52.56640625 C-43.01054225 49.68563469 -49.55184516 47.36903401 -56.625 45.75 C-57.45386719 45.54375 -58.28273438 45.3375 -59.13671875 45.125 C-71.09169486 42.61183714 -85.646028 42.18741449 -97.625 44.75 C-100.77458939 45.00180727 -103.92372505 45.19029278 -107.078125 45.37109375 C-107.91859375 45.49613281 -108.7590625 45.62117188 -109.625 45.75 C-109.955 46.41 -110.285 47.07 -110.625 47.75 C-112.76953125 48.53125 -112.76953125 48.53125 -115.4375 49.25 C-118.03419425 49.95574851 -120.36395255 50.61637425 -122.76171875 51.84375 C-124.625 52.75 -124.625 52.75 -127.625 52.75 C-127.625 53.41 -127.625 54.07 -127.625 54.75 C-129.28515625 55.66145833 -130.9453125 56.57291667 -132.60546875 57.484375 C-148.66567462 67.54918487 -155.58070941 86.89255801 -159.8125 104.4375 C-161.66536043 113.65386412 -161.78127589 122.87765881 -161.75 132.25 C-161.75386719 133.40886719 -161.75773437 134.56773437 -161.76171875 135.76171875 C-161.750534 145.6602195 -161.15224902 155.15863325 -158.625 164.75 C-158.36976563 165.72710938 -158.11453125 166.70421875 -157.8515625 167.7109375 C-152.68046315 185.96447623 -143.50526011 201.25326241 -126.625 210.75 C-118.92475266 214.57393235 -111.02880509 217.02171104 -102.625 218.75 C-101.64273438 218.95625 -100.66046875 219.1625 -99.6484375 219.375 C-75.22492957 223.82687993 -48.6982037 220.21783695 -27.625 206.75 C-23.0801062 203.19581875 -18.72394702 199.72048833 -15.8918457 194.64233398 C-13.89433045 192.25884975 -12.80953944 191.78329433 -9.70236206 191.22270203 C-5.8387442 191.05382806 -2.00064087 191.07522947 1.86328125 191.1640625 C3.29101272 191.17526138 4.71876733 191.18379831 6.14653015 191.18978882 C9.89377155 191.21263401 13.63960442 191.27151586 17.3862915 191.3380127 C21.21371406 191.39953083 25.04136556 191.4268239 28.86914062 191.45703125 C36.37173401 191.52126689 43.87316922 191.62358961 51.375 191.75 C50.90194999 193.67079486 50.42696816 195.59111403 49.95117188 197.51123047 C49.68687378 198.58065887 49.42257568 199.65008728 49.15026855 200.75192261 C42.39555953 226.87337471 24.31085441 249.49012763 1.50390625 263.515625 C-1.17009014 265.01761446 -3.86772308 266.40774789 -6.625 267.75 C-7.91277344 268.39195312 -7.91277344 268.39195312 -9.2265625 269.046875 C-26.92313669 277.50364497 -45.29366697 281.03141688 -64.70385742 282.52368164 C-66.83296901 282.68863663 -68.960624 282.87272182 -71.0871582 283.06811523 C-80.19438177 283.82472266 -88.85848695 283.52767279 -97.9375 282.5625 C-98.61131714 282.49309204 -99.28513428 282.42368408 -99.97937012 282.35217285 C-131.6254333 279.06774182 -164.98711161 269.20779935 -186.04296875 243.74609375 C-186.56503906 243.08738281 -187.08710938 242.42867187 -187.625 241.75 C-188.51638672 240.65365234 -188.51638672 240.65365234 -189.42578125 239.53515625 C-205.77774829 219.05142881 -213.63846477 194.34659395 -217.625 168.75 C-217.80377686 167.6662207 -217.98255371 166.58244141 -218.16674805 165.46582031 C-219.76553275 154.91170479 -219.98123014 144.53115134 -219.9375 133.875 C-219.93600952 132.97702698 -219.93451904 132.07905396 -219.9329834 131.15386963 C-219.87368914 111.23763676 -218.65274814 91.86289535 -212.625 72.75 C-212.22571325 71.39255804 -211.8286649 70.03445611 -211.43359375 68.67578125 C-209.08473243 60.7275017 -206.23564361 53.21944142 -202.625 45.75 C-201.60156065 43.42585487 -200.61281866 41.0895705 -199.625 38.75 C-198.965 38.75 -198.305 38.75 -197.625 38.75 C-197.48578125 37.91855469 -197.48578125 37.91855469 -197.34375 37.0703125 C-193.04139855 23.18119968 -177.9918903 11.95070505 -166.625 3.75 C-165.87605469 3.18410156 -165.12710938 2.61820313 -164.35546875 2.03515625 C-145.60520763 -11.48080635 -121.12066746 -15.88865501 -98.64306641 -18.0546875 C-96.88995209 -18.22435741 -95.1381841 -18.40782847 -93.38671875 -18.59375 C-61.94383604 -21.79585404 -27.50640322 -15.74409768 0 0 Z " fill="#4D6AFE" transform="translate(3372.625,995.25)"/>
<path d="M0 0 C0.80695312 0.56074219 1.61390625 1.12148438 2.4453125 1.69921875 C6.52363232 4.63361959 6.52363232 4.63361959 8 6 C8 6.66 8 7.32 8 8 C8.87205078 8.37125 8.87205078 8.37125 9.76171875 8.75 C17.21091954 12.91011214 22.41596274 22.02618029 27 29 C27.75410156 30.11761719 27.75410156 30.11761719 28.5234375 31.2578125 C36.04048206 42.99076564 40.6582844 56.55469357 44 70 C44.26425781 71.01191406 44.52851563 72.02382812 44.80078125 73.06640625 C49.36784963 92.15440998 50.2796178 111.52298926 50.25 131.0625 C50.24883682 132.38808426 50.24883682 132.38808426 50.24765015 133.740448 C50.24124086 136.25549481 50.22504783 138.77020062 50.203125 141.28515625 C50.19873917 142.05058746 50.19435333 142.81601868 50.18983459 143.60464478 C50.11819847 148.88180153 50.11819847 148.88180153 49 150 C46.81040962 150.09698498 44.6176247 150.12186727 42.42588806 150.12025452 C41.73082974 150.12110894 41.03577141 150.12196337 40.31965071 150.12284368 C37.97341014 150.12450049 35.62723992 150.11897387 33.28100586 150.11352539 C31.60600282 150.11324354 29.93099967 150.11340122 28.2559967 150.1139679 C23.69420721 150.11425594 19.13244377 150.10835814 14.57066035 150.10139394 C9.80871 150.09516151 5.0467591 150.09455669 0.2848053 150.09336853 C-8.73915566 150.09025489 -17.76310456 150.08204106 -26.7870602 150.07201904 C-37.05774487 150.06085893 -47.32843009 150.05534771 -57.59911931 150.05032361 C-78.73275294 150.03985847 -99.86637571 150.02225839 -121 150 C-122.12443315 142.32521838 -122.12443315 142.32521838 -122.14526367 138.65698242 C-122.15164352 137.8831572 -122.15802338 137.10933197 -122.16459656 136.3120575 C-122.16570938 135.50138321 -122.1668222 134.69070892 -122.16796875 133.85546875 C-122.17296135 132.57897209 -122.17296135 132.57897209 -122.17805481 131.27668762 C-122.18308935 129.49086036 -122.18546422 127.7050238 -122.18530273 125.91918945 C-122.18750732 123.17839433 -122.20574837 120.43799065 -122.22460938 117.69726562 C-122.22754035 115.95833471 -122.22952712 114.21940188 -122.23046875 112.48046875 C-122.23765427 111.65967331 -122.24483978 110.83887787 -122.25224304 109.99320984 C-122.22884819 104.22884819 -122.22884819 104.22884819 -120 102 C-118.02037621 101.75390434 -118.02037621 101.75390434 -115.54550171 101.75949097 C-114.60878128 101.75674164 -113.67206085 101.75399231 -112.70695496 101.75115967 C-111.67621353 101.75835022 -110.64547211 101.76554077 -109.58349609 101.77294922 C-108.50055771 101.77265717 -107.41761932 101.77236511 -106.30186462 101.77206421 C-102.70897512 101.77346172 -99.11629094 101.78904282 -95.5234375 101.8046875 C-93.03764967 101.80841613 -90.55186038 101.81126381 -88.06607056 101.81326294 C-82.18350914 101.82012874 -76.30102398 101.83590453 -70.41849387 101.85596192 C-63.06546742 101.88049014 -55.71243187 101.89124745 -48.359375 101.90234375 C-35.23954563 101.92381469 -22.1197775 101.95758232 -9 102 C-9.78208251 99.13324423 -10.56774901 96.26755083 -11.35546875 93.40234375 C-11.57456909 92.59776733 -11.79366943 91.79319092 -12.01940918 90.9642334 C-17.40019948 71.44334226 -27.5327041 57.2871869 -45 46.875 C-51.95615341 43.18437417 -59.32399308 41.55044889 -67 40 C-67.8463501 39.82194824 -68.6927002 39.64389648 -69.56469727 39.46044922 C-92.91649407 34.82365379 -119.24387977 37.94884849 -139.8125 50.3125 C-154.46318457 60.20011731 -163.83243346 75.89625204 -167.43066406 93.12988281 C-167.99517174 96.07947151 -168.49451406 99.03981614 -169 102 C-169.16894775 102.64775391 -169.33789551 103.29550781 -169.51196289 103.96289062 C-171.98339941 114.27888179 -171.12943661 126.11334979 -170.6875 136.625 C-170.63553467 137.97343994 -170.63553467 137.97343994 -170.58251953 139.34912109 C-170.29129078 145.08942105 -169.39619015 150.43154528 -168 156 C-167.77699219 157.01707031 -167.55398437 158.03414062 -167.32421875 159.08203125 C-163.04302131 177.44127671 -154.57075649 192.70786758 -138.796875 203.3671875 C-115.04529864 217.23333124 -84.58021168 217.76025808 -58.5546875 211.12109375 C-55.63069823 210.20877856 -52.82935001 209.17187263 -50 208 C-49.01902344 207.60296875 -48.03804687 207.2059375 -47.02734375 206.796875 C-38.18870644 202.82804173 -29.69370034 196.50382791 -24.23345947 188.36775208 C-22 186 -22 186 -19.08929443 185.39872742 C-17.39718842 185.415382 -17.39718842 185.415382 -15.67089844 185.43237305 C-14.38987244 185.4327507 -13.10884644 185.43312836 -11.78900146 185.43351746 C-10.39578272 185.45904888 -9.00257394 185.48512883 -7.609375 185.51171875 C-6.18020871 185.52104833 -4.75102639 185.52816376 -3.32183838 185.53315735 C0.43343528 185.55221645 4.18773657 185.60130568 7.94262695 185.65667725 C11.77672166 185.70789452 15.61097405 185.73067654 19.4453125 185.75585938 C26.96398419 185.80942735 34.48185567 185.89472459 42 186 C40.03911197 196.57425838 40.03911197 196.57425838 38.15234375 201.078125 C37.62241821 202.34402466 37.62241821 202.34402466 37.08178711 203.63549805 C36.70417236 204.49828369 36.32655762 205.36106934 35.9375 206.25 C35.34304077 207.61862183 35.34304077 207.61862183 34.73657227 209.01489258 C28.85449069 222.19238115 20.73723731 235.21472394 10 245 C9.34 245 8.68 245 8 245 C8 245.66 8 246.32 8 247 C-15.07202469 266.30516352 -43.63792992 274.01026979 -73 277 C-73.80937012 277.08266113 -74.61874023 277.16532227 -75.45263672 277.25048828 C-88.77471186 278.50676687 -101.73364604 277.50189777 -115 276 C-115.78584473 275.91314941 -116.57168945 275.82629883 -117.38134766 275.73681641 C-123.81658385 275.01005022 -129.85800269 274.15245862 -136 272 C-138.37140433 271.30019805 -140.74656393 270.61301694 -143.125 269.9375 C-144.32382813 269.59589844 -145.52265625 269.25429687 -146.7578125 268.90234375 C-149.16605304 268.23209849 -151.57042982 267.58623957 -154 267 C-154 266.34 -154 265.68 -154 265 C-154.84820313 264.90847656 -155.69640625 264.81695313 -156.5703125 264.72265625 C-160.50637113 263.89330449 -163.3733263 262.40272503 -166.875 260.4375 C-168.02742188 259.79683594 -169.17984375 259.15617187 -170.3671875 258.49609375 C-171.23601563 258.00238281 -172.10484375 257.50867187 -173 257 C-173 256.34 -173 255.68 -173 255 C-174.65 254.67 -176.3 254.34 -178 254 C-178 253.34 -178 252.68 -178 252 C-178.58136719 251.73574219 -179.16273438 251.47148438 -179.76171875 251.19921875 C-186.16878359 247.76646324 -192.32566095 241.53617032 -197 236 C-197 235.34 -197 234.68 -197 234 C-197.66 234 -198.32 234 -199 234 C-200.2890625 232.3203125 -200.2890625 232.3203125 -201.625 230.125 C-202.07101563 229.40570312 -202.51703125 228.68640625 -202.9765625 227.9453125 C-204 226 -204 226 -204 224 C-204.66 224 -205.32 224 -206 224 C-216.79082892 203.40430623 -224.4942455 182.25729418 -227 159 C-227.08878418 158.27748047 -227.17756836 157.55496094 -227.26904297 156.81054688 C-233.47516065 106.28249265 -226.61893017 55.23231512 -194.91796875 14.3125 C-192.83285906 11.79847773 -190.57680332 9.99702257 -188 8 C-187.278125 7.2575 -186.55625 6.515 -185.8125 5.75 C-184 4 -184 4 -182 4 C-182 3.34 -182 2.68 -182 2 C-180.68 1.67 -179.36 1.34 -178 1 C-178 0.34 -178 -0.32 -178 -1 C-164.82642041 -8.78169469 -151.96501235 -15.30400401 -137 -19 C-136.07082764 -19.23775146 -135.14165527 -19.47550293 -134.18432617 -19.72045898 C-125.93098559 -21.74873174 -117.76542054 -22.87633877 -109.3125 -23.6875 C-107.45141602 -23.88182617 -107.45141602 -23.88182617 -105.55273438 -24.08007812 C-69.02246895 -27.73503851 -30.46994622 -21.32896235 0 0 Z " fill="#4D6AFE" transform="translate(3062,1001)"/>
<path d="M0 0 C1.46759766 0.81210937 1.46759766 0.81210937 2.96484375 1.640625 C29.64054452 17.40875802 45.22944057 45.5231313 53.19140625 74.62890625 C54.21235879 78.88534124 54.97084886 83.1469128 55.60546875 87.4765625 C55.93807221 89.89394541 55.93807221 89.89394541 56.47753906 91.79125977 C60.22244808 107.62312513 60.29750649 125.08748078 60.25 141.3125 C60.24904327 141.99688141 60.24808655 142.68126282 60.24710083 143.38638306 C60.20977096 154.79022904 60.20977096 154.79022904 59 156 C56.79774546 156.0970006 54.59231336 156.12186709 52.38792419 156.12025452 C51.68878232 156.12110894 50.98964044 156.12196337 50.26931244 156.12284368 C47.90925249 156.12450051 45.54926247 156.11897384 43.18920898 156.11352539 C41.50435386 156.11324354 39.81949861 156.11340122 38.13464355 156.1139679 C33.54599547 156.11425594 28.9573733 156.10835811 24.36873126 156.10139394 C19.57875368 156.09516153 14.78877557 156.09455669 9.99879456 156.09336853 C0.92170968 156.09025488 -8.15536321 156.08204104 -17.2324428 156.07201904 C-27.56358581 156.06085895 -37.89472939 156.05534772 -48.22587693 156.05032361 C-69.48392465 156.03985845 -90.74196157 156.02225836 -112 156 C-112.02526945 149.3247966 -112.04283268 142.64960543 -112.05493164 135.97436523 C-112.05997325 133.70157409 -112.06680637 131.4287862 -112.07543945 129.15600586 C-112.08751261 125.89696449 -112.09322987 122.63796583 -112.09765625 119.37890625 C-112.10281754 118.35599991 -112.10797882 117.33309357 -112.11329651 116.27919006 C-112.11337204 115.33829025 -112.11344757 114.39739044 -112.11352539 113.42797852 C-112.115746 112.59524918 -112.11796661 111.76251984 -112.12025452 110.90455627 C-112 109 -112 109 -111 108 C-109.55786001 107.90441964 -108.11105921 107.87811606 -106.66575623 107.87974548 C-105.73041046 107.87837082 -104.7950647 107.87699615 -103.83137512 107.87557983 C-102.79703842 107.87917511 -101.76270172 107.88277039 -100.69702148 107.88647461 C-99.61422913 107.88632858 -98.53143677 107.88618256 -97.41583252 107.8860321 C-93.81756626 107.88673177 -90.21935103 107.89452667 -86.62109375 107.90234375 C-84.13387582 107.90420774 -81.64665752 107.90563173 -79.15943909 107.90663147 C-73.26978809 107.9100665 -67.3801561 107.91795723 -61.49051291 107.92798096 C-54.12974626 107.94023754 -46.76897736 107.94562209 -39.40820312 107.95117188 C-26.27212602 107.96191185 -13.13606417 107.97879911 0 108 C-0.63470458 105.42396772 -1.27174987 102.84855254 -1.91015625 100.2734375 C-2.17826111 99.18373657 -2.17826111 99.18373657 -2.45178223 98.07202148 C-3.66214874 93.20005364 -5.00798043 88.62148541 -7 84 C-7.45052734 82.89205078 -7.45052734 82.89205078 -7.91015625 81.76171875 C-14.49429709 66.96510115 -26.53853885 56.01941264 -41.5078125 50.12890625 C-48.533159 47.85784905 -55.75831904 46.40196761 -63 45 C-63.93199219 44.80148437 -64.86398437 44.60296875 -65.82421875 44.3984375 C-70.69174035 43.78775213 -75.53717632 43.8563321 -80.4375 43.875 C-81.44876953 43.87113281 -82.46003906 43.86726563 -83.50195312 43.86328125 C-104.56742841 43.89076393 -125.60103698 50.23187328 -141.07421875 64.9765625 C-145.26365289 69.53859273 -148.25764568 74.470038 -151 80 C-151.42152344 80.79792969 -151.84304688 81.59585937 -152.27734375 82.41796875 C-155.0458681 87.98026236 -156.81753042 93.54360885 -158.25 99.5625 C-158.41314697 100.24634766 -158.57629395 100.93019531 -158.74438477 101.63476562 C-161.02518903 111.86014889 -161.22501273 122.11847843 -161.25 132.5625 C-161.25250763 133.55387466 -161.25250763 133.55387466 -161.25506592 134.5652771 C-161.25665523 145.07203731 -160.40393134 154.79854519 -158 165 C-157.88011719 165.80953125 -157.76023437 166.6190625 -157.63671875 167.453125 C-156.24182003 176.52836968 -150.90340106 185.86246912 -145.7421875 193.36328125 C-144 196 -144 196 -144 198 C-143.34 198 -142.68 198 -142 198 C-142 198.66 -142 199.32 -142 200 C-141.34 200 -140.68 200 -140 200 C-140 200.66 -140 201.32 -140 202 C-139.4328125 202.26167969 -138.865625 202.52335937 -138.28125 202.79296875 C-135.8151383 204.0978121 -133.72953223 205.63663494 -131.5 207.3125 C-122.5540251 213.62190459 -112.64383247 216.81103702 -102 219 C-101.01773437 219.20625 -100.03546875 219.4125 -99.0234375 219.625 C-74.83051457 224.03484924 -47.91798027 220.79250225 -27.33203125 206.71875 C-20.75615788 202.02088953 -20.75615788 202.02088953 -16.31713867 195.43334961 C-14.36355659 192.70923485 -13.36349824 192.07590285 -10.03625488 191.38113403 C-6.11083468 191.18785563 -2.21870392 191.21276025 1.70703125 191.31640625 C3.15717679 191.32947125 4.60735334 191.33943117 6.05754089 191.34642029 C9.86418814 191.37307691 13.66894887 191.44177239 17.47485352 191.51934814 C21.36253336 191.59111289 25.25051979 191.62295963 29.13867188 191.65820312 C36.75997226 191.73315102 44.37972126 191.85252923 52 192 C51.53326886 193.74533279 51.06402895 195.48999481 50.59375 197.234375 C50.33271484 198.20600586 50.07167969 199.17763672 49.80273438 200.17871094 C48.74886266 203.88264692 47.44840189 207.43528032 46 211 C45.74089844 211.66386719 45.48179687 212.32773438 45.21484375 213.01171875 C43.25222363 217.87388818 43.25222363 217.87388818 41 219 C40.8659375 219.72960938 40.731875 220.45921875 40.59375 221.2109375 C38.34238024 231.78645071 26.88445161 243.84436325 19 251 C18.34 251 17.68 251 17 251 C17 251.66 17 252.32 17 253 C-3.18196583 271.57992682 -38.24418079 283.91873158 -65.45605469 282.99389648 C-68.43842316 283.00105188 -71.34727831 283.29297846 -74.31640625 283.57421875 C-82.16582385 284.1529941 -89.68892544 283.57997515 -97.5 282.75 C-98.79808594 282.62753906 -100.09617187 282.50507812 -101.43359375 282.37890625 C-120.50626471 280.4544909 -138.2669509 276.01927948 -155.16943359 266.97851562 C-156.83038741 266.09066515 -158.5025132 265.22379392 -160.17578125 264.359375 C-165.73636887 261.43679783 -171.41624023 258.36048208 -176 254 C-176 253.34 -176 252.68 -176 252 C-176.56074219 251.773125 -177.12148437 251.54625 -177.69921875 251.3125 C-196.522388 240.57466491 -207.10512436 211.07807574 -212.5625 191.5 C-223.89217138 147.55420407 -223.94638184 93.95007578 -205.1875 52.0625 C-204.8363916 51.27689697 -204.4852832 50.49129395 -204.12353516 49.68188477 C-201.47331837 43.84766834 -198.53094979 38.35368332 -195 33 C-194.46117187 32.14277344 -193.92234375 31.28554687 -193.3671875 30.40234375 C-190.33846296 25.66904718 -190.33846296 25.66904718 -189 24 C-188.34 24 -187.68 24 -187 24 C-186.62101562 23.13761719 -186.62101562 23.13761719 -186.234375 22.2578125 C-175.85821356 3.27863113 -148.32163709 -7.12999842 -128.87109375 -12.93359375 C-86.75869033 -23.53032629 -38.29370129 -21.78253771 0 0 Z " fill="#4D6AFE" transform="translate(1774,995)"/>
<path d="M0 0 C0.85722656 0.73992188 1.71445313 1.47984375 2.59765625 2.2421875 C3.56832031 3.06460938 4.53898437 3.88703125 5.5390625 4.734375 C10.53731233 9.08611963 10.53731233 9.08611963 12.59765625 11.2421875 C12.59765625 11.9021875 12.59765625 12.5621875 12.59765625 13.2421875 C13.25765625 13.2421875 13.91765625 13.2421875 14.59765625 13.2421875 C20.96801202 20.78905042 32.59765625 34.89161263 32.59765625 45.2421875 C33.25765625 45.5721875 33.91765625 45.9021875 34.59765625 46.2421875 C35.50297009 48.53086869 36.29524262 50.7750741 37.03515625 53.1171875 C37.36555908 54.14211304 37.36555908 54.14211304 37.70263672 55.18774414 C45.74118351 80.36948129 47.77583388 105.42756061 47.78515625 131.7421875 C47.78665176 132.89131622 47.78665176 132.89131622 47.78817749 134.06365967 C47.78785594 136.23785436 47.7789083 138.41178691 47.765625 140.5859375 C47.75813232 141.84599609 47.75063965 143.10605469 47.74291992 144.40429688 C47.59765625 147.2421875 47.59765625 147.2421875 46.59765625 148.2421875 C44.40806587 148.33917248 42.21528095 148.36405477 40.02354431 148.36244202 C39.32848599 148.36329644 38.63342766 148.36415087 37.91730696 148.36503118 C35.57106639 148.36668799 33.22489617 148.36116137 30.87866211 148.35571289 C29.20365907 148.35543104 27.52865592 148.35558872 25.85365295 148.3561554 C21.29186346 148.35644344 16.73010002 148.35054564 12.1683166 148.34358144 C7.40636625 148.33734901 2.64441535 148.33674419 -2.11753845 148.33555603 C-11.14149941 148.33244239 -20.16544831 148.32422856 -29.18940395 148.31420654 C-39.46008862 148.30304643 -49.73077384 148.29753521 -60.00146306 148.29251111 C-81.13509669 148.28204597 -102.26871946 148.26444589 -123.40234375 148.2421875 C-123.4276132 141.5669841 -123.44517643 134.89179293 -123.45727539 128.21655273 C-123.462317 125.94376159 -123.46915012 123.6709737 -123.4777832 121.39819336 C-123.48985636 118.13915199 -123.49557362 114.88015333 -123.5 111.62109375 C-123.50516129 110.59818741 -123.51032257 109.57528107 -123.51564026 108.52137756 C-123.51571579 107.58047775 -123.51579132 106.63957794 -123.51586914 105.67016602 C-123.51808975 104.83743668 -123.52031036 104.00470734 -123.52259827 103.14674377 C-123.40234375 101.2421875 -123.40234375 101.2421875 -122.40234375 100.2421875 C-120.96020376 100.14660714 -119.51340296 100.12030356 -118.06809998 100.12193298 C-117.13275421 100.12055832 -116.19740845 100.11918365 -115.23371887 100.11776733 C-114.19938217 100.12136261 -113.16504547 100.12495789 -112.09936523 100.12866211 C-111.01657288 100.12851608 -109.93378052 100.12837006 -108.81817627 100.1282196 C-105.21991001 100.12891927 -101.62169478 100.13671417 -98.0234375 100.14453125 C-95.53621957 100.14639524 -93.04900127 100.14781923 -90.56178284 100.14881897 C-84.67213184 100.152254 -78.78249985 100.16014473 -72.89285666 100.17016846 C-65.53209001 100.18242504 -58.17132111 100.18780959 -50.81054688 100.19335938 C-37.67446977 100.20409935 -24.53840792 100.22098661 -11.40234375 100.2421875 C-12.03699273 97.83329101 -12.67357632 95.4249338 -13.3112793 93.0168457 C-13.57913868 91.99893322 -13.57913868 91.99893322 -13.85240936 90.96045685 C-16.62665454 80.50264729 -20.25071634 70.9466746 -26.88671875 62.29296875 C-28.32763733 60.34327222 -29.39053457 58.43940056 -30.40234375 56.2421875 C-31.06234375 56.2421875 -31.72234375 56.2421875 -32.40234375 56.2421875 C-32.40234375 55.5821875 -32.40234375 54.9221875 -32.40234375 54.2421875 C-32.95921875 53.98050781 -33.51609375 53.71882813 -34.08984375 53.44921875 C-36.66140508 52.10696799 -38.99384406 50.54610619 -41.40234375 48.9296875 C-63.48232943 34.96308239 -91.35424239 33.10002008 -116.50756836 38.45800781 C-122.5897144 39.88414054 -128.31580821 41.83507979 -134.06640625 44.2890625 C-136.40234375 45.2421875 -136.40234375 45.2421875 -138.40234375 45.2421875 C-138.40234375 45.9021875 -138.40234375 46.5621875 -138.40234375 47.2421875 C-141.38503435 48.76667381 -144.22054575 50.18158817 -147.40234375 51.2421875 C-147.40234375 51.9021875 -147.40234375 52.5621875 -147.40234375 53.2421875 C-148.18609375 53.4896875 -148.96984375 53.7371875 -149.77734375 53.9921875 C-152.90458448 55.48134975 -152.97342585 56.21844737 -154.40234375 59.2421875 C-155.48798253 60.77630174 -156.59397933 62.29611831 -157.71484375 63.8046875 C-163.4722564 71.95603473 -166.79873731 80.67054763 -169.40234375 90.2421875 C-169.73492188 91.24507812 -170.0675 92.24796875 -170.41015625 93.28125 C-171.90399172 98.53188076 -172.18434907 103.94469004 -172.58984375 109.3671875 C-172.71891113 111.08131836 -172.71891113 111.08131836 -172.85058594 112.83007812 C-173.34171288 120.16233842 -173.50007855 127.40141841 -173.15234375 134.7421875 C-173.11391357 135.5583252 -173.0754834 136.37446289 -173.03588867 137.21533203 C-172.67099644 143.01419225 -171.65851013 148.57521805 -170.40234375 154.2421875 C-170.01175781 156.07136719 -170.01175781 156.07136719 -169.61328125 157.9375 C-166.32139207 171.44347522 -160.92853395 184.72908134 -150.40234375 194.2421875 C-149.74234375 194.5721875 -149.08234375 194.9021875 -148.40234375 195.2421875 C-148.40234375 195.9021875 -148.40234375 196.5621875 -148.40234375 197.2421875 C-147.31953125 197.6134375 -147.31953125 197.6134375 -146.21484375 197.9921875 C-143.40234375 199.2421875 -143.40234375 199.2421875 -141.265625 201.09765625 C-123.98858512 214.03775843 -96.64819733 215.16322715 -76.06079102 212.36645508 C-67.88360347 211.127879 -60.07128456 209.41854313 -52.40234375 206.2421875 C-51.42136719 205.84515625 -50.44039062 205.448125 -49.4296875 205.0390625 C-40.59105019 201.07022923 -32.09604409 194.74601541 -26.63580322 186.60993958 C-24.40234375 184.2421875 -24.40234375 184.2421875 -21.49163818 183.64091492 C-19.79953217 183.6575695 -19.79953217 183.6575695 -18.07324219 183.67456055 C-16.79221619 183.6749382 -15.51119019 183.67531586 -14.19134521 183.67570496 C-12.79812647 183.70123638 -11.40491769 183.72731633 -10.01171875 183.75390625 C-8.58255246 183.76323583 -7.15337014 183.77035126 -5.72418213 183.77534485 C-1.96890847 183.79440395 1.78539282 183.84349318 5.5402832 183.89886475 C9.37437791 183.95008202 13.2086303 183.97286404 17.04296875 183.99804688 C24.56164044 184.05161485 32.07951192 184.13691209 39.59765625 184.2421875 C39.11461531 188.8369968 38.64407641 192.85116842 36.8125 197.125 C36.45019287 197.97618408 36.08788574 198.82736816 35.71459961 199.7043457 C35.3253833 200.5830835 34.93616699 201.46182129 34.53515625 202.3671875 C33.93876343 203.73846802 33.93876343 203.73846802 33.33032227 205.13745117 C29.92193598 212.82572833 26.01168807 220.08592338 21.59765625 227.2421875 C20.93765625 227.2421875 20.27765625 227.2421875 19.59765625 227.2421875 C19.39140625 227.9228125 19.18515625 228.6034375 18.97265625 229.3046875 C16.01827326 235.61632389 10.95406944 239.95705695 5.59765625 244.2421875 C5.02015625 244.8403125 4.44265625 245.4384375 3.84765625 246.0546875 C2.59765625 247.2421875 2.59765625 247.2421875 0.59765625 247.2421875 C0.59765625 247.9021875 0.59765625 248.5621875 0.59765625 249.2421875 C-11.48325207 257.9717475 -25.10984575 264.23192543 -39.40234375 268.2421875 C-40.40007813 268.57605469 -41.3978125 268.90992188 -42.42578125 269.25390625 C-53.40969246 272.90079541 -64.51538378 274.09646808 -75.98779297 275.03808594 C-78.1512713 275.22096439 -80.3090944 275.43356073 -82.46875 275.65625 C-93.92916847 276.66711768 -105.00638973 275.53569073 -116.40234375 274.2421875 C-117.20397949 274.15533691 -118.00561523 274.06848633 -118.83154297 273.97900391 C-134.35492814 272.2910306 -149.32073231 268.08632267 -163.40234375 261.2421875 C-164.57990234 260.69111328 -164.57990234 260.69111328 -165.78125 260.12890625 C-174.39588477 255.99010676 -182.93392497 251.39149247 -189.40234375 244.2421875 C-190.91966504 242.738635 -192.44086738 241.23899412 -193.96484375 239.7421875 C-202.40234375 231.290625 -202.40234375 231.290625 -202.40234375 228.2421875 C-203.06234375 228.2421875 -203.72234375 228.2421875 -204.40234375 228.2421875 C-206.07851414 225.79381429 -207.60235675 223.36582434 -209.08984375 220.8046875 C-209.53537598 220.03914551 -209.9809082 219.27360352 -210.43994141 218.48486328 C-217.50154082 206.06163206 -222.22998512 193.16202281 -225.40234375 179.2421875 C-225.67820312 178.04207031 -225.9540625 176.84195312 -226.23828125 175.60546875 C-236.736979 126.69816884 -234.51816542 67.82648222 -206.828125 24.68359375 C-202.95888472 18.99090002 -198.23695476 14.11325862 -193.40234375 9.2421875 C-192.68175781 8.48421875 -191.96117187 7.72625 -191.21875 6.9453125 C-187.83740794 3.43040391 -187.83740794 3.43040391 -186.40234375 2.2421875 C-185.74234375 2.2421875 -185.08234375 2.2421875 -184.40234375 2.2421875 C-184.40234375 1.5821875 -184.40234375 0.9221875 -184.40234375 0.2421875 C-182.97216797 -0.89941406 -182.97216797 -0.89941406 -180.95703125 -2.1484375 C-180.21735107 -2.60774658 -179.4776709 -3.06705566 -178.71557617 -3.5402832 C-177.91095947 -4.02456787 -177.10634277 -4.50885254 -176.27734375 -5.0078125 C-175.45274658 -5.50434326 -174.62814941 -6.00087402 -173.77856445 -6.51245117 C-153.12554865 -18.73223554 -131.07667064 -23.43629984 -107.40234375 -25.7578125 C-106.4896875 -25.85352539 -105.57703125 -25.94923828 -104.63671875 -26.04785156 C-103.76144531 -26.13905273 -102.88617187 -26.23025391 -101.984375 -26.32421875 C-101.21198486 -26.40486572 -100.43959473 -26.4855127 -99.64379883 -26.56860352 C-66.22595515 -29.38951941 -26.4449064 -21.38422647 0 0 Z " fill="#4D6AFE" transform="translate(2105.40234375,1002.7578125)"/>
<path d="M0 0 C1.6965699 -0.00472824 1.6965699 -0.00472824 3.42741394 -0.009552 C5.23705376 -0.00651566 5.23705376 -0.00651566 7.08325195 -0.00341797 C8.33282181 -0.00437469 9.58239166 -0.00533142 10.86982727 -0.00631714 C14.17796588 -0.0071699 17.48605712 -0.00315814 20.79418945 0.00244141 C23.49709916 0.00504537 26.19997555 0.00023449 28.90288067 -0.00454903 C32.12967395 -0.00902936 35.35645764 -0.00589423 38.58325195 -0.00341797 C40.40200081 -0.00645432 40.40200081 -0.00645432 42.25749207 -0.009552 C43.93987724 -0.00482376 43.93987724 -0.00482376 45.65625 0 C47.13800972 0.00119339 47.13800972 0.00119339 48.64970398 0.00241089 C51.1340332 0.12939453 51.1340332 0.12939453 54.1340332 1.12939453 C54.20263342 51.54339974 54.25552843 101.95740024 54.28722919 152.37144291 C54.29098151 158.31729014 54.29486446 164.26313728 54.29882812 170.20898438 C54.29961506 171.3927432 54.30040199 172.57650203 54.30121277 173.79613234 C54.31428248 192.98744599 54.3379449 212.1787328 54.36549159 231.37003051 C54.39350231 251.04807443 54.41020026 270.72610425 54.41629869 290.40416729 C54.42042415 302.55592998 54.43347462 314.70761683 54.4577826 326.85935618 C54.47358635 335.18145566 54.47844579 343.50351568 54.47453734 351.8256291 C54.47260739 356.63391165 54.47565726 361.44206126 54.49164963 366.25032043 C54.50616334 370.6458674 54.50704164 375.04119104 54.49672989 379.43674792 C54.49545395 381.03300891 54.49933158 382.62928339 54.50868275 384.2255175 C54.52059741 386.38356413 54.51431107 388.54078808 54.50317669 390.69882011 C54.50431585 391.90101468 54.50545501 393.10320925 54.50662869 394.34183395 C54.38367218 395.26172894 54.26071567 396.18162393 54.1340332 397.12939453 C50.75664829 399.38098447 49.61069575 399.38181388 45.65625 399.38818359 C43.97386482 399.39764008 43.97386482 399.39764008 42.25749207 399.4072876 C40.43874321 399.4012149 40.43874321 399.4012149 38.58325195 399.39501953 C37.33655228 399.39693298 36.0898526 399.39884644 34.80537415 399.40081787 C32.16486804 399.40218025 29.52473084 399.39948271 26.88427734 399.39013672 C24.18106292 399.3810317 21.47811659 399.38098547 18.77490234 399.39013672 C14.87760405 399.40251136 10.98056105 399.40098744 7.08325195 399.39501953 C5.87682541 399.39906799 4.67039886 399.40311646 3.42741394 399.4072876 C2.29636734 399.40098328 1.16532074 399.39467896 0 399.38818359 C-1.48533989 399.38579681 -1.48533989 399.38579681 -3.00068665 399.38336182 C-5.8659668 399.12939453 -5.8659668 399.12939453 -11.8659668 397.12939453 C-11.8659668 266.44939453 -11.8659668 135.76939453 -11.8659668 1.12939453 C-7.62619921 0.4227666 -4.20507634 0.00337855 0 0 Z " fill="#4D6AFE" transform="translate(3483.865966796875,879.87060546875)"/>
<path d="M0 0 C1.17152367 -0.00131424 1.17152367 -0.00131424 2.36671448 -0.00265503 C4.9378098 0.00151176 7.50626724 0.04811538 10.0769043 0.09521484 C11.86336339 0.10641035 13.64984095 0.11494886 15.43632507 0.12094116 C20.13037287 0.14381186 24.82330048 0.20271926 29.51690674 0.26916504 C34.30953824 0.33062594 39.10235138 0.35796426 43.89526367 0.38818359 C53.29354136 0.45246474 62.69098893 0.55482247 72.08862305 0.68115234 C72.08862305 3.68115234 72.08862305 3.68115234 69.94018555 5.96630859 C68.52866211 7.31015625 68.52866211 7.31015625 67.08862305 8.68115234 C65.16479445 10.7852104 63.31428862 12.95017102 61.46362305 15.11865234 C60.68148437 16.03227539 60.68148437 16.03227539 59.88354492 16.96435547 C55.87219107 21.68388061 52.03562192 26.52181478 48.2434082 31.41796875 C44.89482582 35.71778453 41.40593148 39.87406183 37.83862305 43.99365234 C32.96811387 49.62157414 28.32184501 55.36161923 23.8605957 61.32177734 C22.95743471 62.52730235 22.05180153 63.73097888 21.14379883 64.93286133 C20.24457556 66.12342523 19.35083936 67.31815699 18.46313477 68.51733398 C17.38541899 69.94217202 16.2420411 71.31687175 15.08862305 72.68115234 C14.42862305 72.68115234 13.76862305 72.68115234 13.08862305 72.68115234 C12.82049805 73.25349609 12.55237305 73.82583984 12.27612305 74.41552734 C11.04729669 76.75999869 9.66340129 78.80520172 8.08862305 80.93115234 C7.57299805 81.63755859 7.05737305 82.34396484 6.52612305 83.07177734 C6.05174805 83.60287109 5.57737305 84.13396484 5.08862305 84.68115234 C4.42862305 84.68115234 3.76862305 84.68115234 3.08862305 84.68115234 C2.86174805 85.20193359 2.63487305 85.72271484 2.40112305 86.25927734 C0.61342944 89.55799769 -1.63028019 92.46572656 -3.91137695 95.43115234 C-4.36254883 96.03314453 -4.8137207 96.63513672 -5.27856445 97.25537109 C-6.43960197 98.77021591 -7.67065634 100.23085055 -8.91137695 101.68115234 C-9.57137695 101.68115234 -10.23137695 101.68115234 -10.91137695 101.68115234 C-11.16918945 102.24962891 -11.42700195 102.81810547 -11.69262695 103.40380859 C-13.03616321 105.91432666 -14.60200942 107.91997417 -16.41137695 110.11865234 C-17.11004883 110.98748047 -17.8087207 111.85630859 -18.52856445 112.75146484 C-19.77595531 114.28514212 -21.02544509 115.81727741 -22.29516602 117.33251953 C-23.72495975 119.04030172 -25.13124013 120.76556069 -26.53637695 122.49365234 C-26.99850586 123.0323999 -27.46063477 123.57114746 -27.93676758 124.1262207 C-29.39144175 125.85556271 -29.39144175 125.85556271 -30.91137695 128.68115234 C-30.10778936 132.98270947 -27.18062979 136.48444203 -24.72387695 140.05615234 C-23.83606962 141.36921906 -22.94943351 142.68307813 -22.0637207 143.99755859 C-21.32484619 145.09221436 -21.32484619 145.09221436 -20.57104492 146.20898438 C-17.27691075 151.11578088 -14.0295245 156.0530668 -10.78637695 160.99365234 C-10.1106665 162.01442871 -9.43495605 163.03520508 -8.73876953 164.08691406 C-8.11252686 165.04227051 -7.48628418 165.99762695 -6.84106445 166.98193359 C-6.27629395 167.83956299 -5.71152344 168.69719238 -5.12963867 169.58081055 C-3.91137695 171.68115234 -3.91137695 171.68115234 -3.91137695 173.68115234 C-3.25137695 173.68115234 -2.59137695 173.68115234 -1.91137695 173.68115234 C-0.75512695 175.34130859 -0.75512695 175.34130859 0.58862305 177.74365234 C3.16886118 182.19190791 5.90399689 186.48195033 8.77612305 190.74365234 C12.43651001 196.18771421 16.03705205 201.66546921 19.58862305 207.18115234 C23.04467053 212.54477817 26.53689959 217.88039926 30.08862305 223.18115234 C33.82401686 228.76764131 37.53645757 234.36863436 41.21362305 239.99365234 C41.69959961 240.72970703 42.18557617 241.46576172 42.6862793 242.22412109 C46.08862305 247.45091004 46.08862305 247.45091004 46.08862305 249.68115234 C46.74862305 249.68115234 47.40862305 249.68115234 48.08862305 249.68115234 C49.63597973 251.94362207 51.06135214 254.20517377 52.46362305 256.55615234 C56.88170914 263.82023465 61.52587959 270.89936715 66.32836914 277.91503906 C66.81901855 278.63965332 67.30966797 279.36426758 67.81518555 280.11083984 C68.47381592 281.07352783 68.47381592 281.07352783 69.14575195 282.05566406 C70.08862305 283.68115234 70.08862305 283.68115234 70.08862305 285.68115234 C70.74862305 285.68115234 71.40862305 285.68115234 72.08862305 285.68115234 C71.75862305 287.00115234 71.42862305 288.32115234 71.08862305 289.68115234 C61.02262853 289.86667737 50.95704192 290.0087413 40.88968468 290.09564972 C36.21465969 290.13736679 31.54080593 290.19392768 26.86645508 290.28466797 C22.35354778 290.37172395 17.84176531 290.41945268 13.32808304 290.44017029 C11.60797033 290.45492957 9.88791787 290.48375357 8.16828537 290.5269928 C-5.32203237 290.85264571 -5.32203237 290.85264571 -9.2658844 287.94566345 C-10.81752732 285.90649315 -11.87909884 284.01712584 -12.91137695 281.68115234 C-13.55461914 280.75431641 -14.19786133 279.82748047 -14.8605957 278.87255859 C-15.72104492 277.57125 -15.72104492 277.57125 -16.59887695 276.24365234 C-17.60241211 274.72771484 -17.60241211 274.72771484 -18.6262207 273.18115234 C-20.34086305 270.5651549 -22.03655111 267.93733783 -23.7277832 265.30615234 C-24.4563855 264.17391235 -24.4563855 264.17391235 -25.19970703 263.01879883 C-26.15417524 261.53313167 -27.10595907 260.04573554 -28.0546875 258.55639648 C-30.49630645 254.75106246 -33.05273995 251.19175919 -35.91137695 247.68115234 C-36.8303812 246.07289491 -37.74712984 244.46320388 -38.6418457 242.84130859 C-40.92098811 238.96326013 -43.4891011 235.2726157 -46.0090332 231.54833984 C-50.91137695 224.15959177 -50.91137695 224.15959177 -50.91137695 221.68115234 C-51.57137695 221.68115234 -52.23137695 221.68115234 -52.91137695 221.68115234 C-54.06762695 220.02099609 -54.06762695 220.02099609 -55.41137695 217.61865234 C-57.91538096 213.30720181 -60.5624583 209.12640704 -63.34887695 204.99365234 C-67.80591312 198.36635433 -72.18110436 191.68823628 -76.53637695 184.99365234 C-82.18429452 176.31133422 -82.18429452 176.31133422 -87.91137695 167.68115234 C-91.82738289 161.83302013 -95.68396162 155.94633178 -99.53637695 150.05615234 C-100.1705957 149.08935547 -100.80481445 148.12255859 -101.45825195 147.12646484 C-105.41995171 141.05959409 -109.23317848 134.92402884 -112.91137695 128.68115234 C-108.41918945 122.43115234 -108.41918945 122.43115234 -106.91137695 120.68115234 C-106.25137695 120.68115234 -105.59137695 120.68115234 -104.91137695 120.68115234 C-104.56719727 119.88837891 -104.56719727 119.88837891 -104.21606445 119.07958984 C-102.48276453 115.89322412 -100.28711057 113.13519672 -98.03637695 110.30615234 C-97.55386475 109.69545898 -97.07135254 109.08476563 -96.57421875 108.45556641 C-92.56497452 103.41935224 -88.40224712 98.52558002 -84.18994141 93.65893555 C-80.64295836 89.55674238 -77.21263031 85.3802354 -73.8527832 81.12255859 C-71.65763195 78.36205652 -69.41022067 75.64804809 -67.16137695 72.93115234 C-64.77073077 70.03028219 -62.4845282 67.17033182 -60.47387695 63.99365234 C-59.95825195 63.23052734 -59.44262695 62.46740234 -58.91137695 61.68115234 C-58.25137695 61.68115234 -57.59137695 61.68115234 -56.91137695 61.68115234 C-56.68708008 61.14748047 -56.4627832 60.61380859 -56.23168945 60.06396484 C-54.47235381 56.88883247 -52.1579035 54.28032225 -49.78637695 51.55615234 C-48.78532769 50.39038587 -47.7853352 49.22371114 -46.78637695 48.05615234 C-46.29524414 47.48251953 -45.80411133 46.90888672 -45.2980957 46.31787109 C-42.74575638 43.30539172 -40.3030152 40.2071582 -37.84887695 37.11474609 C-31.88350576 29.62195123 -25.74804398 22.26300794 -19.66137695 14.86865234 C-19.0708252 14.1512085 -18.48027344 13.43376465 -17.87182617 12.69458008 C-17.30222168 12.00307861 -16.73261719 11.31157715 -16.14575195 10.59912109 C-15.64269531 9.98834717 -15.13963867 9.37757324 -14.62133789 8.74829102 C-13.77490723 7.72505737 -13.77490723 7.72505737 -12.91137695 6.68115234 C-11.86573326 5.15327339 -11.86573326 5.15327339 -10.79896545 3.5945282 C-7.73598255 -0.05016111 -4.55275034 -0.1345195 0 0 Z " fill="#4D6AFE" transform="translate(3678.911376953125,989.31884765625)"/>
</svg>
