<svg version="1.1" id="Layer_1" xmlns="http://www.w3.org/2000/svg" xmlns:xlink="http://www.w3.org/1999/xlink" x="0px" y="0px"
	 width="100%" viewBox="0 0 3840 2160" enable-background="new 0 0 3840 2160" xml:space="preserve">
<path fill="#47704C" opacity="1.000000" stroke="none" 
	d="
M2436.000000,2162.000000 
	C1624.000122,2162.000000 813.000305,2162.000000 2.000327,2162.000000 
	C2.000218,1442.000244 2.000218,722.000549 2.000109,2.000617 
	C1281.999512,2.000411 2561.999023,2.000411 3841.999023,2.000206 
	C3841.999268,721.999329 3841.999268,1441.998657 3841.999512,2161.999023 
	C3373.666748,2162.000000 2905.333252,2162.000000 2436.000000,2162.000000 
M3433.727051,1102.391479 
	C3432.013916,1092.923462 3430.742432,1083.350098 3428.512939,1074.005249 
	C3417.647949,1028.461060 3390.989502,997.751282 3344.823242,985.367126 
	C3329.586182,981.279724 3314.112061,979.526428 3298.433105,979.353821 
	C3272.885254,979.072449 3247.896240,982.341919 3224.508545,993.287842 
	C3189.035400,1009.890076 3170.760986,1039.752808 3162.291260,1076.476440 
	C3155.758545,1104.801025 3154.477295,1133.551025 3158.398682,1162.413086 
	C3160.416260,1177.262085 3163.623779,1191.854614 3169.150146,1205.866089 
	C3180.417969,1234.434326 3199.260254,1256.025513 3227.906006,1267.873291 
	C3264.861328,1283.158203 3303.228027,1284.215454 3341.601318,1275.270508 
	C3382.517090,1265.733154 3410.681641,1240.825806 3424.240479,1200.461182 
	C3425.261475,1197.421021 3425.767578,1194.207886 3426.470703,1191.254395 
	C3424.937256,1190.567627 3424.334229,1190.064209 3423.727539,1190.059570 
	C3405.071289,1189.916626 3386.414307,1189.864014 3367.758545,1189.689453 
	C3363.492188,1189.649658 3361.315674,1192.320801 3358.920898,1195.246704 
	C3351.983643,1203.721924 3342.949951,1209.569824 3332.767578,1213.009888 
	C3311.190918,1220.299683 3289.183350,1221.578125 3266.980957,1215.618774 
	C3244.937744,1209.702393 3228.732666,1196.836670 3221.023438,1175.050537 
	C3210.452148,1145.176147 3210.446533,1114.916138 3220.961182,1085.042847 
	C3227.213623,1067.279663 3239.152588,1054.005737 3257.170410,1047.407593 
	C3279.637695,1039.179810 3302.482910,1038.134155 3325.759521,1044.542969 
	C3350.503418,1051.355835 3365.640869,1067.472168 3373.123535,1091.434692 
	C3374.447998,1095.675293 3375.028564,1100.148071 3376.267578,1106.001953 
	C3338.091064,1106.001953 3301.592529,1106.001953 3264.327881,1106.001953 
	C3263.366699,1122.307373 3263.147461,1137.359863 3264.453613,1153.679321 
	C3269.250732,1153.679321 3273.170898,1153.679443 3277.091064,1153.679443 
	C3322.416260,1153.679688 3367.741699,1153.680786 3413.066895,1153.679077 
	C3418.065918,1153.678833 3423.071777,1153.821045 3428.062500,1153.612061 
	C3434.715820,1153.333618 3435.669189,1152.670166 3435.559326,1145.934570 
	C3435.363281,1133.953247 3434.587646,1121.981323 3434.311279,1109.020264 
	C3434.140869,1107.358398 3433.970459,1105.696533 3433.727051,1102.391479 
M2944.196289,1131.416016 
	C2944.196289,1138.330078 2944.196289,1145.244141 2944.196289,1153.078369 
	C2949.151855,1153.312134 2953.048828,1153.650757 2956.946289,1153.655518 
	C2991.264648,1153.697876 3025.582764,1153.683350 3059.901123,1153.679688 
	C3075.894043,1153.677979 3091.888184,1153.780640 3107.879150,1153.598877 
	C3114.674805,1153.521729 3115.413574,1152.735718 3115.615479,1146.118896 
	C3116.504395,1117.020630 3114.357422,1088.192139 3105.131104,1060.410034 
	C3093.135742,1024.289795 3069.425537,999.390991 3032.706543,987.708862 
	C2998.519043,976.832092 2963.885498,976.565002 2929.294434,984.869019 
	C2889.887695,994.329102 2862.143066,1017.888794 2848.711426,1056.534302 
	C2832.347168,1103.617554 2832.316406,1151.354614 2847.026367,1198.717163 
	C2858.666504,1236.196289 2883.633057,1261.447021 2921.720703,1272.735229 
	C2959.817383,1284.026001 2998.003174,1283.535278 3035.603027,1271.112915 
	C3072.201904,1259.021240 3094.606445,1232.705322 3105.882568,1196.386108 
	C3106.432373,1194.615967 3106.265137,1192.623169 3106.436035,1190.687500 
	C3104.974365,1190.293335 3104.031006,1189.820068 3103.085449,1189.816162 
	C3085.094482,1189.740723 3067.101807,1189.825684 3049.112793,1189.611084 
	C3044.930908,1189.561279 3042.417725,1191.423096 3039.908691,1194.402588 
	C3031.760254,1204.077393 3021.467529,1210.555664 3009.362305,1214.251709 
	C2988.813477,1220.526001 2968.167480,1220.779907 2947.366211,1215.629517 
	C2921.212158,1209.153687 2905.269043,1192.077759 2898.458740,1166.720215 
	C2892.065674,1142.915649 2891.964844,1118.672974 2898.060303,1094.702393 
	C2904.229248,1070.443359 2918.367432,1053.188110 2942.995850,1045.553955 
	C2964.602783,1038.856445 2986.148193,1038.736450 3007.840332,1045.116943 
	C3027.573486,1050.921265 3041.801270,1062.885132 3049.850830,1081.912476 
	C3052.921387,1089.170044 3055.822510,1096.515137 3055.142822,1105.965820 
	C3018.252441,1105.965820 2981.764404,1105.965820 2944.370850,1105.965820 
	C2944.370850,1114.133423 2944.370850,1121.038818 2944.239014,1128.984741 
	C2944.284912,1129.331299 2944.330566,1129.677734 2944.196289,1131.416016 
M467.830902,1473.514038 
	C481.436127,1474.453613 495.038818,1476.107544 508.647217,1476.156006 
	C526.593811,1476.219971 544.595642,1475.647949 562.480103,1474.196045 
	C580.669617,1472.719238 598.908081,1470.717773 616.835999,1467.389038 
	C650.820679,1461.078857 682.999023,1449.228271 712.451782,1431.001221 
	C727.980957,1421.391113 742.762207,1410.522461 757.474670,1399.670898 
	C762.393127,1396.043091 766.385498,1394.997559 771.998535,1397.647705 
	C777.375671,1400.186401 783.120850,1402.399292 788.940430,1403.459229 
	C804.269897,1406.251587 819.728455,1408.335083 835.134216,1410.709473 
	C863.919495,1415.146118 892.224670,1411.306396 920.241150,1405.041748 
	C925.752808,1403.809326 931.082825,1399.966064 935.545044,1396.199585 
	C946.095093,1387.293945 948.347473,1367.240112 929.576599,1359.918457 
	C905.110107,1350.375488 880.926575,1340.107422 856.614990,1330.166626 
	C852.064697,1328.306152 847.519165,1326.468750 844.023132,1321.901489 
	C852.926331,1311.832764 861.490112,1302.140015 870.062561,1292.454834 
	C892.394470,1267.223755 913.155518,1240.818359 929.773010,1211.396973 
	C962.652649,1153.182861 979.770203,1089.855835 990.400146,1024.393677 
	C992.770325,1009.797607 992.244385,995.263550 991.776917,980.631104 
	C991.486694,971.546204 992.756775,970.421753 1001.538757,968.753357 
	C1010.676758,967.017334 1020.020386,966.064453 1028.955688,963.609619 
	C1079.083374,949.838074 1116.868042,920.601868 1140.260864,873.639282 
	C1153.396484,847.268372 1158.156372,818.773743 1161.226562,789.917175 
	C1161.660522,785.838257 1160.282715,781.267029 1158.718994,777.330688 
	C1153.782837,764.905518 1142.184570,762.337830 1132.449219,771.305847 
	C1127.797241,775.591187 1123.209839,779.976379 1118.916748,784.615723 
	C1102.116211,802.770935 1081.987427,811.890442 1056.724976,810.506714 
	C1026.137817,808.831360 999.184387,819.068848 975.742310,838.705261 
	C973.265869,840.779724 970.544983,842.562195 967.194275,845.026917 
	C965.990601,841.756531 965.190674,839.354065 964.230286,837.017578 
	C961.585266,830.583008 959.394104,823.893066 956.089722,817.811340 
	C946.274292,799.745850 930.374207,788.572205 912.168213,780.084045 
	C903.737488,776.153564 895.351318,772.042969 887.307007,767.388367 
	C875.629028,760.631042 867.682373,750.581909 863.432434,737.705383 
	C861.036194,730.445251 858.904114,723.083374 856.147766,715.962891 
	C854.743469,712.335388 852.708191,708.696594 850.102112,705.845520 
	C845.304871,700.597290 838.392090,700.892700 833.523987,706.140076 
	C831.504150,708.317261 829.439697,710.711792 828.288757,713.391235 
	C823.569214,724.378906 818.216980,735.230042 814.890381,746.653503 
	C807.430664,772.269287 807.137634,798.348083 811.466248,824.707886 
	C818.137634,865.334778 835.913818,899.701233 867.089844,926.816284 
	C874.366150,933.144836 882.069458,938.989685 889.680176,944.923828 
	C894.290955,948.518982 896.882141,952.615723 894.856140,958.703125 
	C891.075562,970.062134 887.653687,981.544800 883.671997,992.831116 
	C880.223450,1002.606201 877.800110,1003.458069 867.982788,999.269531 
	C841.958557,988.166504 818.875916,972.489624 798.590271,952.929688 
	C778.446350,933.506470 758.937805,913.422974 739.208801,893.571167 
	C720.881958,875.130127 702.181152,857.102051 681.127136,841.739929 
	C672.527466,835.465271 663.565857,829.689087 654.839417,823.585327 
	C634.863892,809.613342 623.634399,782.218445 644.681030,758.992249 
	C650.798340,752.241394 658.727661,746.983154 666.323425,741.764099 
	C673.627747,736.745300 674.278015,731.921509 666.349243,727.822998 
	C660.870483,724.990845 654.533203,723.193909 648.388977,722.387878 
	C626.987976,719.580505 605.715942,721.657104 585.184875,727.817078 
	C561.635742,734.882507 538.421692,743.108887 515.234619,751.318359 
	C503.338776,755.530090 491.765289,757.371887 479.096222,754.601257 
	C467.784454,752.127502 456.057709,751.022095 444.459717,750.483154 
	C406.094971,748.700134 368.009216,750.547668 330.420898,759.578674 
	C292.910126,768.591064 258.914612,784.756531 228.517746,808.321167 
	C194.860275,834.413574 169.123260,867.197815 148.455566,904.273682 
	C125.354637,945.714600 113.334000,990.437195 109.971634,1037.337158 
	C107.927826,1065.845093 109.747849,1094.470703 114.278473,1122.853760 
	C120.664879,1162.862671 131.728027,1201.381348 149.233170,1237.990234 
	C174.911270,1291.691284 211.221603,1337.119751 256.303192,1375.719482 
	C290.661682,1405.137939 328.166779,1429.505737 370.064423,1446.947998 
	C400.975708,1459.816528 433.037048,1468.258423 467.830902,1473.514038 
M2405.580322,1184.446411 
	C2402.394531,1187.822021 2399.526611,1191.585571 2395.965820,1194.503540 
	C2383.132568,1205.020508 2368.060303,1209.783447 2351.663574,1210.249634 
	C2339.677490,1210.590332 2327.673584,1210.259277 2315.678711,1210.370117 
	C2312.514648,1210.399292 2309.355713,1210.955811 2305.658203,1211.323486 
	C2305.658203,1231.235596 2305.658203,1250.081665 2305.658203,1270.333374 
	C2317.547607,1270.333374 2328.795166,1270.311890 2340.042969,1270.338501 
	C2355.397949,1270.374878 2370.631104,1269.195068 2385.574219,1265.490723 
	C2424.606201,1255.814331 2451.902832,1233.033081 2465.170410,1194.399048 
	C2470.504150,1178.867432 2473.051025,1162.952515 2474.799316,1146.639648 
	C2477.969971,1117.055054 2475.289062,1088.187988 2466.713379,1059.901855 
	C2455.480469,1022.851440 2431.494629,997.946045 2394.235840,986.399231 
	C2376.583496,980.928650 2358.398682,979.098633 2340.007568,979.444519 
	C2316.227295,979.891602 2293.630371,983.948181 2275.458496,1001.299561 
	C2272.087891,1004.518188 2267.664551,1004.454041 2262.851807,1001.992188 
	C2262.493652,994.951965 2262.129150,987.787964 2261.779297,980.911255 
	C2250.722900,978.386536 2206.298096,978.746582 2198.363525,981.351929 
	C2198.363525,1108.301758 2198.363525,1235.395142 2198.363525,1363.808105 
	C2219.803955,1363.703491 2240.534912,1364.492554 2262.343262,1363.198364 
	C2262.343262,1357.947021 2262.343262,1353.680908 2262.343262,1349.414673 
	C2262.343262,1276.440308 2262.167480,1203.465210 2262.515625,1130.492554 
	C2262.574219,1118.272949 2263.928711,1105.864380 2266.382812,1093.891235 
	C2271.843018,1067.254517 2287.204834,1049.229004 2314.330566,1042.105957 
	C2330.787109,1037.784546 2347.412354,1037.669434 2363.779053,1040.668335 
	C2389.197754,1045.325806 2407.575195,1059.287720 2415.478027,1084.909668 
	C2423.227051,1110.033936 2424.010986,1135.369629 2416.460693,1160.592651 
	C2414.112549,1168.437500 2409.776611,1175.687378 2405.580322,1184.446411 
M1242.142212,1093.416382 
	C1241.261963,1102.010498 1240.409790,1110.607422 1239.496216,1119.197998 
	C1236.493286,1147.435059 1240.139282,1175.033203 1248.634277,1201.899780 
	C1259.092773,1234.975098 1280.368652,1258.436157 1313.215332,1270.685547 
	C1339.350952,1280.432007 1366.381470,1282.439941 1393.836670,1278.848267 
	C1410.625366,1276.651978 1426.236816,1271.211914 1438.585205,1258.859985 
	C1442.149292,1255.294922 1446.091187,1255.081055 1451.102539,1256.897095 
	C1451.576660,1264.176147 1452.066162,1271.690308 1452.617310,1280.151245 
	C1474.136230,1280.539551 1494.826538,1281.167480 1515.325562,1279.833008 
	C1517.543945,1263.441895 1516.707520,904.495117 1514.503052,896.989868 
	C1494.139038,896.989868 1473.682617,896.989868 1452.389282,896.989868 
	C1452.148682,902.615112 1451.766968,907.524231 1451.760742,912.433838 
	C1451.741577,927.413818 1451.934814,942.394104 1451.922485,957.374146 
	C1451.895142,990.332886 1451.773804,1023.291626 1451.726074,1056.250366 
	C1451.684692,1084.881592 1451.873901,1113.514648 1451.592407,1142.143188 
	C1451.470947,1154.500122 1449.202637,1166.605469 1444.765015,1178.237549 
	C1437.408447,1197.520752 1424.157104,1210.329102 1404.266846,1216.538574 
	C1387.281982,1221.840942 1369.898560,1222.020508 1352.844238,1219.356934 
	C1326.568604,1215.253174 1307.426392,1201.235107 1299.379150,1174.599609 
	C1291.356567,1148.045532 1291.485962,1121.616577 1299.460327,1095.010376 
	C1307.731812,1067.412720 1330.696655,1051.836304 1358.993164,1049.814453 
	C1372.248657,1048.867432 1385.578735,1048.976807 1398.873779,1048.566040 
	C1402.093994,1048.466553 1405.309204,1048.203369 1409.309570,1047.969727 
	C1409.886841,1028.328491 1410.276123,1009.569214 1409.038940,989.803345 
	C1392.552368,989.803345 1376.906982,989.024536 1361.379883,990.045166 
	C1348.523560,990.890320 1335.516479,992.774048 1323.086914,996.104309 
	C1294.141602,1003.859680 1271.714111,1020.750793 1257.280884,1047.410156 
	C1249.769653,1061.284302 1245.505615,1076.319702 1242.142212,1093.416382 
M2662.925781,1224.316528 
	C2647.922119,1224.552734 2632.929932,1224.535522 2618.414795,1219.950073 
	C2605.972656,1216.019409 2596.239502,1209.312622 2593.834473,1195.284424 
	C2593.572510,1193.755249 2592.665039,1192.336792 2592.104248,1190.981445 
	C2567.383789,1190.981445 2543.200928,1190.981445 2517.880371,1190.981445 
	C2517.880371,1194.859253 2517.566895,1198.116089 2517.929932,1201.295776 
	C2520.830811,1226.703857 2532.578369,1246.638428 2554.946045,1259.642578 
	C2579.185059,1273.734375 2606.081543,1278.376831 2633.466553,1279.450806 
	C2654.024170,1280.256836 2674.725586,1279.534058 2695.263428,1278.082642 
	C2715.606445,1276.645264 2735.531494,1271.894897 2753.500244,1261.878052 
	C2762.089111,1257.089722 2770.982910,1251.306519 2777.041992,1243.797974 
	C2798.952393,1216.646851 2801.480469,1186.235840 2787.474121,1154.767456 
	C2777.093262,1131.444458 2756.767334,1119.641968 2733.501465,1112.242065 
	C2710.154785,1104.816528 2686.099365,1102.151611 2661.671387,1102.305664 
	C2646.946533,1102.398438 2632.386719,1101.251709 2618.549316,1095.630737 
	C2606.563721,1090.761841 2599.918701,1081.993896 2599.782715,1068.867188 
	C2599.647705,1055.820435 2605.683350,1046.673096 2617.777100,1041.632324 
	C2620.229492,1040.609985 2622.655273,1039.353882 2625.221924,1038.803467 
	C2646.959717,1034.140747 2668.749756,1033.520508 2690.437744,1038.969849 
	C2705.013916,1042.632324 2714.529541,1051.268555 2716.243896,1066.968628 
	C2716.304932,1067.527222 2717.000000,1068.016724 2717.739014,1068.981689 
	C2738.558105,1068.981689 2759.705566,1068.981689 2780.718750,1068.981689 
	C2781.352295,1067.438721 2781.883545,1066.573242 2782.047852,1065.642944 
	C2782.277588,1064.341675 2782.386963,1062.979980 2782.283936,1061.664795 
	C2780.554443,1039.608398 2773.136230,1020.296814 2755.679199,1005.643005 
	C2742.297607,994.410400 2726.516113,988.442444 2709.853271,984.643188 
	C2683.649414,978.668518 2657.024658,978.446045 2630.396240,980.452087 
	C2614.113525,981.678711 2598.121582,984.857117 2582.815674,990.854858 
	C2558.825439,1000.255676 2541.554688,1016.236572 2534.235107,1041.494141 
	C2529.823730,1056.715820 2528.954102,1072.153320 2532.326172,1087.867920 
	C2538.060791,1114.594604 2553.202637,1133.267944 2578.301270,1144.133667 
	C2600.051270,1153.549561 2623.037109,1156.333252 2646.357178,1157.697998 
	C2660.293213,1158.513672 2674.313477,1158.799194 2688.113037,1160.670532 
	C2695.477539,1161.669189 2703.041992,1164.524658 2709.490234,1168.296509 
	C2726.206787,1178.074463 2727.141602,1201.433960 2711.516113,1212.764404 
	C2707.046387,1216.005615 2701.705322,1218.808960 2696.368652,1219.927979 
	C2686.022705,1222.097412 2675.395996,1222.929443 2662.925781,1224.316528 
M2150.223389,1153.613403 
	C2154.349365,1153.704224 2156.318115,1151.711792 2156.287354,1147.560913 
	C2156.242676,1141.562988 2156.368896,1135.563965 2156.326660,1129.566040 
	C2156.142334,1103.443115 2153.244629,1077.764282 2143.511719,1053.249146 
	C2131.883545,1023.960022 2112.253906,1002.183105 2082.457275,991.023193 
	C2037.923828,974.343750 1993.091797,974.720947 1948.892822,992.145996 
	C1928.936035,1000.013855 1913.075073,1013.843628 1901.528687,1032.109375 
	C1890.887085,1048.943604 1884.918091,1067.541138 1881.587036,1087.092773 
	C1876.099121,1119.304565 1876.637207,1151.359741 1883.806030,1183.257812 
	C1894.723267,1231.834229 1923.086548,1263.846436 1972.325928,1275.573853 
	C1998.552002,1281.820190 2025.131714,1282.083374 2051.623779,1277.663330 
	C2071.498291,1274.347168 2090.391602,1267.736450 2106.770020,1255.630249 
	C2127.344727,1240.422241 2139.910156,1219.548218 2147.444824,1195.423218 
	C2147.891357,1193.993042 2147.502686,1192.301880 2147.502686,1190.916870 
	C2146.402100,1190.473755 2145.792725,1190.017090 2145.180420,1190.012817 
	C2126.523926,1189.884399 2107.864258,1189.609253 2089.214111,1189.917847 
	C2086.453125,1189.963501 2083.108154,1192.229370 2081.112061,1194.441528 
	C2072.867432,1203.577637 2063.111328,1210.240723 2051.411621,1213.939209 
	C2030.608765,1220.515259 2009.565918,1221.052246 1988.468262,1215.590698 
	C1967.592041,1210.186646 1951.813843,1198.199219 1943.510986,1177.969727 
	C1938.714111,1166.282349 1935.593262,1154.071411 1935.587646,1141.136841 
	C1935.579468,1122.151855 1934.997192,1103.239014 1942.108032,1085.040771 
	C1949.461304,1066.221558 1962.236816,1053.002319 1981.330688,1046.514526 
	C1989.142212,1043.860352 1997.412354,1041.991333 2005.615112,1041.161743 
	C2027.965576,1038.901001 2049.640625,1041.690674 2068.722168,1054.514526 
	C2086.097656,1066.191772 2093.980225,1083.565674 2096.858887,1105.028809 
	C2092.182129,1105.280029 2088.645508,1105.629272 2085.108398,1105.634888 
	C2056.114502,1105.680542 2027.120728,1105.637573 1998.126831,1105.693481 
	C1994.275879,1105.700928 1990.425659,1106.112061 1986.840942,1106.320679 
	C1984.723022,1119.703491 1985.244629,1145.752563 1987.871826,1153.660278 
	C2041.151978,1153.660278 2094.749023,1153.660278 2150.223389,1153.613403 
M1689.116333,979.627930 
	C1680.180054,980.483276 1671.140381,980.748413 1662.324829,982.292664 
	C1616.248657,990.364197 1583.152588,1014.903748 1568.694336,1060.338379 
	C1554.190186,1105.917847 1554.272217,1152.123657 1568.226074,1197.945435 
	C1579.117676,1233.711426 1602.071167,1259.136475 1637.690308,1271.013184 
	C1675.541748,1283.633789 1714.083130,1284.183594 1752.543701,1272.456787 
	C1789.799072,1261.097534 1813.759644,1236.307129 1826.250000,1199.878540 
	C1827.244873,1196.977173 1827.499634,1193.821899 1828.297852,1189.772339 
	C1807.208130,1189.772339 1787.593872,1189.643799 1767.986694,1189.955811 
	C1765.848145,1189.989868 1763.314575,1192.180664 1761.705200,1194.019531 
	C1752.901123,1204.078735 1742.218750,1210.817627 1729.311157,1214.530518 
	C1711.719849,1219.590698 1694.149780,1220.722168 1676.107056,1217.230225 
	C1645.484619,1211.303711 1626.164185,1193.942505 1619.169556,1163.171143 
	C1613.593750,1138.641235 1613.817139,1114.175171 1620.739014,1090.117676 
	C1626.222900,1071.057983 1637.807983,1056.310669 1656.654663,1048.487793 
	C1680.277832,1038.682129 1704.332397,1038.265259 1728.929565,1045.036011 
	C1749.437866,1050.681274 1763.235962,1063.486450 1771.508667,1082.534424 
	C1774.479614,1089.374634 1777.535889,1096.479858 1776.524536,1105.788818 
	C1739.814819,1105.788818 1703.365601,1105.788818 1666.446045,1105.788818 
	C1666.446045,1122.294678 1666.446045,1137.381226 1666.446045,1152.308472 
	C1678.146240,1154.536987 1828.120117,1154.122070 1835.735962,1151.926514 
	C1836.036621,1150.419922 1836.619751,1148.807861 1836.642822,1147.187866 
	C1837.043091,1119.176025 1836.188965,1091.292725 1827.727051,1064.229004 
	C1816.527710,1028.410400 1794.713013,1002.302124 1758.833130,989.195068 
	C1736.954590,981.202759 1714.244019,978.708679 1689.116333,979.627930 
M3541.677002,1073.000122 
	C3541.677002,1052.004639 3541.676758,1031.009033 3541.676758,1010.013489 
	C3541.676758,989.017883 3541.763916,968.021729 3541.652344,947.026733 
	C3541.541504,926.176880 3542.164062,905.301880 3541.238525,884.722473 
	C3526.067871,882.276672 3483.831543,882.978333 3476.699463,885.584351 
	C3476.699463,1016.707520 3476.699463,1147.855103 3476.699463,1280.331421 
	C3498.423584,1280.486450 3519.438965,1280.874146 3541.677002,1280.117432 
	C3541.677002,1210.807617 3541.677002,1142.903931 3541.677002,1073.000122 
M3695.129639,1066.144409 
	C3714.608398,1042.268921 3734.087158,1018.393372 3754.744873,993.072449 
	C3749.608643,992.736572 3746.417969,992.356384 3743.226562,992.347351 
	C3723.560547,992.291687 3703.888428,992.592896 3684.231445,992.175232 
	C3677.149414,992.024719 3672.668457,994.568970 3668.289795,999.994995 
	C3643.832520,1030.304810 3618.976318,1060.292358 3594.321289,1090.443237 
	C3586.131104,1100.458984 3578.134521,1110.632935 3570.007324,1120.787109 
	C3571.772217,1123.681885 3573.085938,1125.982544 3574.536377,1128.193848 
	C3606.484863,1176.906372 3638.525635,1225.558716 3670.290283,1274.390747 
	C3673.518311,1279.353149 3677.368408,1280.626953 3682.705078,1280.589966 
	C3703.988525,1280.442505 3725.273193,1280.508789 3746.557129,1280.416016 
	C3748.675781,1280.406860 3750.792236,1279.855591 3754.301270,1279.359009 
	C3719.240479,1225.989258 3684.939209,1173.775879 3650.221191,1120.928101 
	C3665.150635,1102.708496 3679.683105,1084.973511 3695.129639,1066.144409 
z"/>
<path fill="#4D6BFD" opacity="1.000000" stroke="none" 
	d="
M466.962280,1473.336914 
	C433.037048,1468.258423 400.975708,1459.816528 370.064423,1446.947998 
	C328.166779,1429.505737 290.661682,1405.137939 256.303192,1375.719482 
	C211.221603,1337.119751 174.911270,1291.691284 149.233170,1237.990234 
	C131.728027,1201.381348 120.664879,1162.862671 114.278473,1122.853760 
	C109.747849,1094.470703 107.927826,1065.845093 109.971634,1037.337158 
	C113.334000,990.437195 125.354637,945.714600 148.455566,904.273682 
	C169.123260,867.197815 194.860275,834.413574 228.517746,808.321167 
	C258.914612,784.756531 292.910126,768.591064 330.420898,759.578674 
	C368.009216,750.547668 406.094971,748.700134 444.459717,750.483154 
	C456.057709,751.022095 467.784454,752.127502 479.096222,754.601257 
	C491.765289,757.371887 503.338776,755.530090 515.234619,751.318359 
	C538.421692,743.108887 561.635742,734.882507 585.184875,727.817078 
	C605.715942,721.657104 626.987976,719.580505 648.388977,722.387878 
	C654.533203,723.193909 660.870483,724.990845 666.349243,727.822998 
	C674.278015,731.921509 673.627747,736.745300 666.323425,741.764099 
	C658.727661,746.983154 650.798340,752.241394 644.681030,758.992249 
	C623.634399,782.218445 634.863892,809.613342 654.839417,823.585327 
	C663.565857,829.689087 672.527466,835.465271 681.127136,841.739929 
	C702.181152,857.102051 720.881958,875.130127 739.208801,893.571167 
	C758.937805,913.422974 778.446350,933.506470 798.590271,952.929688 
	C818.875916,972.489624 841.958557,988.166504 867.982788,999.269531 
	C877.800110,1003.458069 880.223450,1002.606201 883.671997,992.831116 
	C887.653687,981.544800 891.075562,970.062134 894.856140,958.703125 
	C896.882141,952.615723 894.290955,948.518982 889.680176,944.923828 
	C882.069458,938.989685 874.366150,933.144836 867.089844,926.816284 
	C835.913818,899.701233 818.137634,865.334778 811.466248,824.707886 
	C807.137634,798.348083 807.430664,772.269287 814.890381,746.653503 
	C818.216980,735.230042 823.569214,724.378906 828.288757,713.391235 
	C829.439697,710.711792 831.504150,708.317261 833.523987,706.140076 
	C838.392090,700.892700 845.304871,700.597290 850.102112,705.845520 
	C852.708191,708.696594 854.743469,712.335388 856.147766,715.962891 
	C858.904114,723.083374 861.036194,730.445251 863.432434,737.705383 
	C867.682373,750.581909 875.629028,760.631042 887.307007,767.388367 
	C895.351318,772.042969 903.737488,776.153564 912.168213,780.084045 
	C930.374207,788.572205 946.274292,799.745850 956.089722,817.811340 
	C959.394104,823.893066 961.585266,830.583008 964.230286,837.017578 
	C965.190674,839.354065 965.990601,841.756531 967.194275,845.026917 
	C970.544983,842.562195 973.265869,840.779724 975.742310,838.705261 
	C999.184387,819.068848 1026.137817,808.831360 1056.724976,810.506714 
	C1081.987427,811.890442 1102.116211,802.770935 1118.916748,784.615723 
	C1123.209839,779.976379 1127.797241,775.591187 1132.449219,771.305847 
	C1142.184570,762.337830 1153.782837,764.905518 1158.718994,777.330688 
	C1160.282715,781.267029 1161.660522,785.838257 1161.226562,789.917175 
	C1158.156372,818.773743 1153.396484,847.268372 1140.260864,873.639282 
	C1116.868042,920.601868 1079.083374,949.838074 1028.955688,963.609619 
	C1020.020386,966.064453 1010.676758,967.017334 1001.538757,968.753357 
	C992.756775,970.421753 991.486694,971.546204 991.776917,980.631104 
	C992.244385,995.263550 992.770325,1009.797607 990.400146,1024.393677 
	C979.770203,1089.855835 962.652649,1153.182861 929.773010,1211.396973 
	C913.155518,1240.818359 892.394470,1267.223755 870.062561,1292.454834 
	C861.490112,1302.140015 852.926331,1311.832764 844.023132,1321.901489 
	C847.519165,1326.468750 852.064697,1328.306152 856.614990,1330.166626 
	C880.926575,1340.107422 905.110107,1350.375488 929.576599,1359.918457 
	C948.347473,1367.240112 946.095093,1387.293945 935.545044,1396.199585 
	C931.082825,1399.966064 925.752808,1403.809326 920.241150,1405.041748 
	C892.224670,1411.306396 863.919495,1415.146118 835.134216,1410.709473 
	C819.728455,1408.335083 804.269897,1406.251587 788.940430,1403.459229 
	C783.120850,1402.399292 777.375671,1400.186401 771.998535,1397.647705 
	C766.385498,1394.997559 762.393127,1396.043091 757.474670,1399.670898 
	C742.762207,1410.522461 727.980957,1421.391113 712.451782,1431.001221 
	C682.999023,1449.228271 650.820679,1461.078857 616.835999,1467.389038 
	C598.908081,1470.717773 580.669617,1472.719238 562.480103,1474.196045 
	C544.595642,1475.647949 526.593811,1476.219971 508.647217,1476.156006 
	C495.038818,1476.107544 481.436127,1474.453613 466.962280,1473.336914 
M571.352295,1323.666748 
	C585.111694,1334.168823 598.651917,1344.976318 612.710022,1355.062134 
	C621.587585,1361.431274 630.804504,1367.630981 640.625305,1372.324341 
	C668.636719,1385.710938 698.767944,1388.235352 729.293091,1387.506470 
	C734.208313,1387.389160 739.089478,1385.843994 745.829102,1384.625977 
	C740.890686,1380.765503 737.721497,1378.402344 734.677124,1375.888184 
	C722.360107,1365.715576 709.646301,1355.972534 697.867981,1345.207764 
	C657.996582,1308.766846 626.587646,1265.343872 596.632751,1220.796997 
	C574.521179,1187.914185 552.626038,1154.898315 526.587280,1124.873169 
	C492.858185,1085.980469 453.350433,1054.137329 408.545441,1029.047241 
	C366.647308,1005.584839 321.623505,990.764160 274.244202,982.852600 
	C249.642136,978.744507 225.199509,978.703247 200.779266,983.645020 
	C183.687973,987.103638 179.747665,991.421082 180.503723,1008.564636 
	C181.176254,1023.814026 182.442261,1039.130493 184.861282,1054.190063 
	C189.667603,1084.111328 197.111481,1113.418579 208.035202,1141.784668 
	C222.823944,1180.187500 241.412277,1216.502808 266.420319,1249.338257 
	C292.521942,1283.609497 324.340759,1311.713257 359.871002,1335.804932 
	C375.973206,1346.723145 392.974121,1355.750488 412.208008,1359.681641 
	C427.957733,1362.900635 443.742798,1365.050659 459.312317,1358.328857 
	C472.078491,1352.817139 476.228241,1343.043213 468.389984,1331.227051 
	C465.817505,1327.348999 463.670898,1323.190430 461.279144,1319.190308 
	C455.051514,1308.775146 451.051025,1297.640991 449.420197,1285.548828 
	C447.261475,1269.542236 456.130219,1260.825439 471.566986,1264.955688 
	C478.904968,1266.919067 486.060486,1269.964478 492.895782,1273.336426 
	C520.486145,1286.946777 545.334351,1304.909546 571.352295,1323.666748 
M661.787109,1018.808533 
	C657.150208,1023.164246 653.635620,1028.285645 656.557434,1034.688232 
	C659.352478,1040.813110 665.413696,1042.015015 671.675232,1042.436157 
	C676.310120,1042.747803 680.911377,1043.626831 685.513794,1044.342041 
	C702.357300,1046.959717 719.020447,1063.638672 713.238647,1085.179321 
	C709.402588,1099.470703 710.034302,1114.827026 720.146423,1127.067139 
	C737.222839,1147.737061 759.714539,1160.842773 790.634338,1149.027588 
	C808.248291,1142.296997 811.585938,1136.040527 803.301758,1118.902588 
	C787.510925,1086.234863 766.618591,1057.271729 739.153137,1033.246216 
	C726.350403,1022.046936 712.050232,1014.379089 695.112061,1011.379883 
	C683.325806,1009.292908 672.695618,1010.956482 661.787109,1018.808533 
M662.962769,1083.312012 
	C663.979675,1084.619019 664.773010,1086.226318 666.053284,1087.179565 
	C670.805359,1090.717773 677.650452,1090.678711 681.861877,1087.330933 
	C686.181824,1083.896729 687.691833,1076.988892 685.232849,1071.909912 
	C682.811218,1066.908081 677.607300,1064.256714 671.976257,1065.155762 
	C665.975525,1066.113892 662.416260,1070.111328 661.790466,1076.898193 
	C661.641357,1078.515137 662.113647,1080.189331 662.962769,1083.312012 
z"/>
<path fill="#4D6BFD" opacity="1.000000" stroke="none" 
	d="
M2405.965576,1183.828003 
	C2409.776611,1175.687378 2414.112549,1168.437500 2416.460693,1160.592651 
	C2424.010986,1135.369629 2423.227051,1110.033936 2415.478027,1084.909668 
	C2407.575195,1059.287720 2389.197754,1045.325806 2363.779053,1040.668335 
	C2347.412354,1037.669434 2330.787109,1037.784546 2314.330566,1042.105957 
	C2287.204834,1049.229004 2271.843018,1067.254517 2266.382812,1093.891235 
	C2263.928711,1105.864380 2262.574219,1118.272949 2262.515625,1130.492554 
	C2262.167480,1203.465210 2262.343262,1276.440308 2262.343262,1349.414673 
	C2262.343262,1353.680908 2262.343262,1357.947021 2262.343262,1363.198364 
	C2240.534912,1364.492554 2219.803955,1363.703491 2198.363525,1363.808105 
	C2198.363525,1235.395142 2198.363525,1108.301758 2198.363525,981.351929 
	C2206.298096,978.746582 2250.722900,978.386536 2261.779297,980.911255 
	C2262.129150,987.787964 2262.493652,994.951965 2262.851807,1001.992188 
	C2267.664551,1004.454041 2272.087891,1004.518188 2275.458496,1001.299561 
	C2293.630371,983.948181 2316.227295,979.891602 2340.007568,979.444519 
	C2358.398682,979.098633 2376.583496,980.928650 2394.235840,986.399231 
	C2431.494629,997.946045 2455.480469,1022.851440 2466.713379,1059.901855 
	C2475.289062,1088.187988 2477.969971,1117.055054 2474.799316,1146.639648 
	C2473.051025,1162.952515 2470.504150,1178.867432 2465.170410,1194.399048 
	C2451.902832,1233.033081 2424.606201,1255.814331 2385.574219,1265.490723 
	C2370.631104,1269.195068 2355.397949,1270.374878 2340.042969,1270.338501 
	C2328.795166,1270.311890 2317.547607,1270.333374 2305.658203,1270.333374 
	C2305.658203,1250.081665 2305.658203,1231.235596 2305.658203,1211.323486 
	C2309.355713,1210.955811 2312.514648,1210.399292 2315.678711,1210.370117 
	C2327.673584,1210.259277 2339.677490,1210.590332 2351.663574,1210.249634 
	C2368.060303,1209.783447 2383.132568,1205.020508 2395.965820,1194.503540 
	C2399.526611,1191.585571 2402.394531,1187.822021 2405.965576,1183.828003 
z"/>
<path fill="#4D6BFD" opacity="1.000000" stroke="none" 
	d="
M1242.226807,1092.551270 
	C1245.505615,1076.319702 1249.769653,1061.284302 1257.280884,1047.410156 
	C1271.714111,1020.750793 1294.141602,1003.859680 1323.086914,996.104309 
	C1335.516479,992.774048 1348.523560,990.890320 1361.379883,990.045166 
	C1376.906982,989.024536 1392.552368,989.803345 1409.038940,989.803345 
	C1410.276123,1009.569214 1409.886841,1028.328491 1409.309570,1047.969727 
	C1405.309204,1048.203369 1402.093994,1048.466553 1398.873779,1048.566040 
	C1385.578735,1048.976807 1372.248657,1048.867432 1358.993164,1049.814453 
	C1330.696655,1051.836304 1307.731812,1067.412720 1299.460327,1095.010376 
	C1291.485962,1121.616577 1291.356567,1148.045532 1299.379150,1174.599609 
	C1307.426392,1201.235107 1326.568604,1215.253174 1352.844238,1219.356934 
	C1369.898560,1222.020508 1387.281982,1221.840942 1404.266846,1216.538574 
	C1424.157104,1210.329102 1437.408447,1197.520752 1444.765015,1178.237549 
	C1449.202637,1166.605469 1451.470947,1154.500122 1451.592407,1142.143188 
	C1451.873901,1113.514648 1451.684692,1084.881592 1451.726074,1056.250366 
	C1451.773804,1023.291626 1451.895142,990.332886 1451.922485,957.374146 
	C1451.934814,942.394104 1451.741577,927.413818 1451.760742,912.433838 
	C1451.766968,907.524231 1452.148682,902.615112 1452.389282,896.989868 
	C1473.682617,896.989868 1494.139038,896.989868 1514.503052,896.989868 
	C1516.707520,904.495117 1517.543945,1263.441895 1515.325562,1279.833008 
	C1494.826538,1281.167480 1474.136230,1280.539551 1452.617310,1280.151245 
	C1452.066162,1271.690308 1451.576660,1264.176147 1451.102539,1256.897095 
	C1446.091187,1255.081055 1442.149292,1255.294922 1438.585205,1258.859985 
	C1426.236816,1271.211914 1410.625366,1276.651978 1393.836670,1278.848267 
	C1366.381470,1282.439941 1339.350952,1280.432007 1313.215332,1270.685547 
	C1280.368652,1258.436157 1259.092773,1234.975098 1248.634277,1201.899780 
	C1240.139282,1175.033203 1236.493286,1147.435059 1239.496216,1119.197998 
	C1240.409790,1110.607422 1241.261963,1102.010498 1242.226807,1092.551270 
z"/>
<path fill="#4D6BFC" opacity="1.000000" stroke="none" 
	d="
M2663.905762,1224.316162 
	C2675.395996,1222.929443 2686.022705,1222.097412 2696.368652,1219.927979 
	C2701.705322,1218.808960 2707.046387,1216.005615 2711.516113,1212.764404 
	C2727.141602,1201.433960 2726.206787,1178.074463 2709.490234,1168.296509 
	C2703.041992,1164.524658 2695.477539,1161.669189 2688.113037,1160.670532 
	C2674.313477,1158.799194 2660.293213,1158.513672 2646.357178,1157.697998 
	C2623.037109,1156.333252 2600.051270,1153.549561 2578.301270,1144.133667 
	C2553.202637,1133.267944 2538.060791,1114.594604 2532.326172,1087.867920 
	C2528.954102,1072.153320 2529.823730,1056.715820 2534.235107,1041.494141 
	C2541.554688,1016.236572 2558.825439,1000.255676 2582.815674,990.854858 
	C2598.121582,984.857117 2614.113525,981.678711 2630.396240,980.452087 
	C2657.024658,978.446045 2683.649414,978.668518 2709.853271,984.643188 
	C2726.516113,988.442444 2742.297607,994.410400 2755.679199,1005.643005 
	C2773.136230,1020.296814 2780.554443,1039.608398 2782.283936,1061.664795 
	C2782.386963,1062.979980 2782.277588,1064.341675 2782.047852,1065.642944 
	C2781.883545,1066.573242 2781.352295,1067.438721 2780.718750,1068.981689 
	C2759.705566,1068.981689 2738.558105,1068.981689 2717.739014,1068.981689 
	C2717.000000,1068.016724 2716.304932,1067.527222 2716.243896,1066.968628 
	C2714.529541,1051.268555 2705.013916,1042.632324 2690.437744,1038.969849 
	C2668.749756,1033.520508 2646.959717,1034.140747 2625.221924,1038.803467 
	C2622.655273,1039.353882 2620.229492,1040.609985 2617.777100,1041.632324 
	C2605.683350,1046.673096 2599.647705,1055.820435 2599.782715,1068.867188 
	C2599.918701,1081.993896 2606.563721,1090.761841 2618.549316,1095.630737 
	C2632.386719,1101.251709 2646.946533,1102.398438 2661.671387,1102.305664 
	C2686.099365,1102.151611 2710.154785,1104.816528 2733.501465,1112.242065 
	C2756.767334,1119.641968 2777.093262,1131.444458 2787.474121,1154.767456 
	C2801.480469,1186.235840 2798.952393,1216.646851 2777.041992,1243.797974 
	C2770.982910,1251.306519 2762.089111,1257.089722 2753.500244,1261.878052 
	C2735.531494,1271.894897 2715.606445,1276.645264 2695.263428,1278.082642 
	C2674.725586,1279.534058 2654.024170,1280.256836 2633.466553,1279.450806 
	C2606.081543,1278.376831 2579.185059,1273.734375 2554.946045,1259.642578 
	C2532.578369,1246.638428 2520.830811,1226.703857 2517.929932,1201.295776 
	C2517.566895,1198.116089 2517.880371,1194.859253 2517.880371,1190.981445 
	C2543.200928,1190.981445 2567.383789,1190.981445 2592.104248,1190.981445 
	C2592.665039,1192.336792 2593.572510,1193.755249 2593.834473,1195.284424 
	C2596.239502,1209.312622 2605.972656,1216.019409 2618.414795,1219.950073 
	C2632.929932,1224.535522 2647.922119,1224.552734 2663.905762,1224.316162 
z"/>
<path fill="#4D6BFD" opacity="1.000000" stroke="none" 
	d="
M2944.370850,1127.944336 
	C2944.370850,1121.038818 2944.370850,1114.133423 2944.370850,1105.965820 
	C2981.764404,1105.965820 3018.252441,1105.965820 3055.142822,1105.965820 
	C3055.822510,1096.515137 3052.921387,1089.170044 3049.850830,1081.912476 
	C3041.801270,1062.885132 3027.573486,1050.921265 3007.840332,1045.116943 
	C2986.148193,1038.736450 2964.602783,1038.856445 2942.995850,1045.553955 
	C2918.367432,1053.188110 2904.229248,1070.443359 2898.060303,1094.702393 
	C2891.964844,1118.672974 2892.065674,1142.915649 2898.458740,1166.720215 
	C2905.269043,1192.077759 2921.212158,1209.153687 2947.366211,1215.629517 
	C2968.167480,1220.779907 2988.813477,1220.526001 3009.362305,1214.251709 
	C3021.467529,1210.555664 3031.760254,1204.077393 3039.908691,1194.402588 
	C3042.417725,1191.423096 3044.930908,1189.561279 3049.112793,1189.611084 
	C3067.101807,1189.825684 3085.094482,1189.740723 3103.085449,1189.816162 
	C3104.031006,1189.820068 3104.974365,1190.293335 3106.436035,1190.687500 
	C3106.265137,1192.623169 3106.432373,1194.615967 3105.882568,1196.386108 
	C3094.606445,1232.705322 3072.201904,1259.021240 3035.603027,1271.112915 
	C2998.003174,1283.535278 2959.817383,1284.026001 2921.720703,1272.735229 
	C2883.633057,1261.447021 2858.666504,1236.196289 2847.026367,1198.717163 
	C2832.316406,1151.354614 2832.347168,1103.617554 2848.711426,1056.534302 
	C2862.143066,1017.888794 2889.887695,994.329102 2929.294434,984.869019 
	C2963.885498,976.565002 2998.519043,976.832092 3032.706543,987.708862 
	C3069.425537,999.390991 3093.135742,1024.289795 3105.131104,1060.410034 
	C3114.357422,1088.192139 3116.504395,1117.020630 3115.615479,1146.118896 
	C3115.413574,1152.735718 3114.674805,1153.521729 3107.879150,1153.598877 
	C3091.888184,1153.780640 3075.894043,1153.677979 3059.901123,1153.679688 
	C3025.582764,1153.683350 2991.264648,1153.697876 2956.946289,1153.655518 
	C2953.048828,1153.650757 2949.151855,1153.312134 2944.196289,1153.078369 
	C2944.196289,1145.244141 2944.196289,1138.330078 2944.437500,1130.479126 
	C2944.849609,1128.957153 2944.747070,1128.424561 2944.370850,1127.944336 
z"/>
<path fill="#4D6BFD" opacity="1.000000" stroke="none" 
	d="
M2149.284668,1153.636841 
	C2094.749023,1153.660278 2041.151978,1153.660278 1987.871826,1153.660278 
	C1985.244629,1145.752563 1984.723022,1119.703491 1986.840942,1106.320679 
	C1990.425659,1106.112061 1994.275879,1105.700928 1998.126831,1105.693481 
	C2027.120728,1105.637573 2056.114502,1105.680542 2085.108398,1105.634888 
	C2088.645508,1105.629272 2092.182129,1105.280029 2096.858887,1105.028809 
	C2093.980225,1083.565674 2086.097656,1066.191772 2068.722168,1054.514526 
	C2049.640625,1041.690674 2027.965576,1038.901001 2005.615112,1041.161743 
	C1997.412354,1041.991333 1989.142212,1043.860352 1981.330688,1046.514526 
	C1962.236816,1053.002319 1949.461304,1066.221558 1942.108032,1085.040771 
	C1934.997192,1103.239014 1935.579468,1122.151855 1935.587646,1141.136841 
	C1935.593262,1154.071411 1938.714111,1166.282349 1943.510986,1177.969727 
	C1951.813843,1198.199219 1967.592041,1210.186646 1988.468262,1215.590698 
	C2009.565918,1221.052246 2030.608765,1220.515259 2051.411621,1213.939209 
	C2063.111328,1210.240723 2072.867432,1203.577637 2081.112061,1194.441528 
	C2083.108154,1192.229370 2086.453125,1189.963501 2089.214111,1189.917847 
	C2107.864258,1189.609253 2126.523926,1189.884399 2145.180420,1190.012817 
	C2145.792725,1190.017090 2146.402100,1190.473755 2147.502686,1190.916870 
	C2147.502686,1192.301880 2147.891357,1193.993042 2147.444824,1195.423218 
	C2139.910156,1219.548218 2127.344727,1240.422241 2106.770020,1255.630249 
	C2090.391602,1267.736450 2071.498291,1274.347168 2051.623779,1277.663330 
	C2025.131714,1282.083374 1998.552002,1281.820190 1972.325928,1275.573853 
	C1923.086548,1263.846436 1894.723267,1231.834229 1883.806030,1183.257812 
	C1876.637207,1151.359741 1876.099121,1119.304565 1881.587036,1087.092773 
	C1884.918091,1067.541138 1890.887085,1048.943604 1901.528687,1032.109375 
	C1913.075073,1013.843628 1928.936035,1000.013855 1948.892822,992.145996 
	C1993.091797,974.720947 2037.923828,974.343750 2082.457275,991.023193 
	C2112.253906,1002.183105 2131.883545,1023.960022 2143.511719,1053.249146 
	C2153.244629,1077.764282 2156.142334,1103.443115 2156.326660,1129.566040 
	C2156.368896,1135.563965 2156.242676,1141.562988 2156.287354,1147.560913 
	C2156.318115,1151.711792 2154.349365,1153.704224 2149.284668,1153.636841 
z"/>
<path fill="#4D6BFD" opacity="1.000000" stroke="none" 
	d="
M1690.099854,979.582764 
	C1714.244019,978.708679 1736.954590,981.202759 1758.833130,989.195068 
	C1794.713013,1002.302124 1816.527710,1028.410400 1827.727051,1064.229004 
	C1836.188965,1091.292725 1837.043091,1119.176025 1836.642822,1147.187866 
	C1836.619751,1148.807861 1836.036621,1150.419922 1835.735962,1151.926514 
	C1828.120117,1154.122070 1678.146240,1154.536987 1666.446045,1152.308472 
	C1666.446045,1137.381226 1666.446045,1122.294678 1666.446045,1105.788818 
	C1703.365601,1105.788818 1739.814819,1105.788818 1776.524536,1105.788818 
	C1777.535889,1096.479858 1774.479614,1089.374634 1771.508667,1082.534424 
	C1763.235962,1063.486450 1749.437866,1050.681274 1728.929565,1045.036011 
	C1704.332397,1038.265259 1680.277832,1038.682129 1656.654663,1048.487793 
	C1637.807983,1056.310669 1626.222900,1071.057983 1620.739014,1090.117676 
	C1613.817139,1114.175171 1613.593750,1138.641235 1619.169556,1163.171143 
	C1626.164185,1193.942505 1645.484619,1211.303711 1676.107056,1217.230225 
	C1694.149780,1220.722168 1711.719849,1219.590698 1729.311157,1214.530518 
	C1742.218750,1210.817627 1752.901123,1204.078735 1761.705200,1194.019531 
	C1763.314575,1192.180664 1765.848145,1189.989868 1767.986694,1189.955811 
	C1787.593872,1189.643799 1807.208130,1189.772339 1828.297852,1189.772339 
	C1827.499634,1193.821899 1827.244873,1196.977173 1826.250000,1199.878540 
	C1813.759644,1236.307129 1789.799072,1261.097534 1752.543701,1272.456787 
	C1714.083130,1284.183594 1675.541748,1283.633789 1637.690308,1271.013184 
	C1602.071167,1259.136475 1579.117676,1233.711426 1568.226074,1197.945435 
	C1554.272217,1152.123657 1554.190186,1105.917847 1568.694336,1060.338379 
	C1583.152588,1014.903748 1616.248657,990.364197 1662.324829,982.292664 
	C1671.140381,980.748413 1680.180054,980.483276 1690.099854,979.582764 
z"/>
<path fill="#4D6BFD" opacity="1.000000" stroke="none" 
	d="
M3434.054932,1110.005493 
	C3434.587646,1121.981323 3435.363281,1133.953247 3435.559326,1145.934570 
	C3435.669189,1152.670166 3434.715820,1153.333618 3428.062500,1153.612061 
	C3423.071777,1153.821045 3418.065918,1153.678833 3413.066895,1153.679077 
	C3367.741699,1153.680786 3322.416260,1153.679688 3277.091064,1153.679443 
	C3273.170898,1153.679443 3269.250732,1153.679321 3264.453613,1153.679321 
	C3263.147461,1137.359863 3263.366699,1122.307373 3264.327881,1106.001953 
	C3301.592529,1106.001953 3338.091064,1106.001953 3376.267578,1106.001953 
	C3375.028564,1100.148071 3374.447998,1095.675293 3373.123535,1091.434692 
	C3365.640869,1067.472168 3350.503418,1051.355835 3325.759521,1044.542969 
	C3302.482910,1038.134155 3279.637695,1039.179810 3257.170410,1047.407593 
	C3239.152588,1054.005737 3227.213623,1067.279663 3220.961182,1085.042847 
	C3210.446533,1114.916138 3210.452148,1145.176147 3221.023438,1175.050537 
	C3228.732666,1196.836670 3244.937744,1209.702393 3266.980957,1215.618774 
	C3289.183350,1221.578125 3311.190918,1220.299683 3332.767578,1213.009888 
	C3342.949951,1209.569824 3351.983643,1203.721924 3358.920898,1195.246704 
	C3361.315674,1192.320801 3363.492188,1189.649658 3367.758545,1189.689453 
	C3386.414307,1189.864014 3405.071289,1189.916626 3423.727539,1190.059570 
	C3424.334229,1190.064209 3424.937256,1190.567627 3426.470703,1191.254395 
	C3425.767578,1194.207886 3425.261475,1197.421021 3424.240479,1200.461182 
	C3410.681641,1240.825806 3382.517090,1265.733154 3341.601318,1275.270508 
	C3303.228027,1284.215454 3264.861328,1283.158203 3227.906006,1267.873291 
	C3199.260254,1256.025513 3180.417969,1234.434326 3169.150146,1205.866089 
	C3163.623779,1191.854614 3160.416260,1177.262085 3158.398682,1162.413086 
	C3154.477295,1133.551025 3155.758545,1104.801025 3162.291260,1076.476440 
	C3170.760986,1039.752808 3189.035400,1009.890076 3224.508545,993.287842 
	C3247.896240,982.341919 3272.885254,979.072449 3298.433105,979.353821 
	C3314.112061,979.526428 3329.586182,981.279724 3344.823242,985.367126 
	C3390.989502,997.751282 3417.647949,1028.461060 3428.512939,1074.005249 
	C3430.742432,1083.350098 3432.013916,1092.923462 3433.603027,1103.701050 
	C3433.670898,1106.675537 3433.863037,1108.340576 3434.054932,1110.005493 
z"/>
<path fill="#4D6BFD" opacity="1.000000" stroke="none" 
	d="
M3541.677002,1074.000244 
	C3541.677002,1142.903931 3541.677002,1210.807617 3541.677002,1280.117432 
	C3519.438965,1280.874146 3498.423584,1280.486450 3476.699463,1280.331421 
	C3476.699463,1147.855103 3476.699463,1016.707520 3476.699463,885.584351 
	C3483.831543,882.978333 3526.067871,882.276672 3541.238525,884.722473 
	C3542.164062,905.301880 3541.541504,926.176880 3541.652344,947.026733 
	C3541.763916,968.021729 3541.676758,989.017883 3541.676758,1010.013489 
	C3541.676758,1031.009033 3541.677002,1052.004639 3541.677002,1074.000244 
z"/>
<path fill="#4D6BFD" opacity="1.000000" stroke="none" 
	d="
M3694.672363,1066.691406 
	C3679.683105,1084.973511 3665.150635,1102.708496 3650.221191,1120.928101 
	C3684.939209,1173.775879 3719.240479,1225.989258 3754.301270,1279.359009 
	C3750.792236,1279.855591 3748.675781,1280.406860 3746.557129,1280.416016 
	C3725.273193,1280.508789 3703.988525,1280.442505 3682.705078,1280.589966 
	C3677.368408,1280.626953 3673.518311,1279.353149 3670.290283,1274.390747 
	C3638.525635,1225.558716 3606.484863,1176.906372 3574.536377,1128.193848 
	C3573.085938,1125.982544 3571.772217,1123.681885 3570.007324,1120.787109 
	C3578.134521,1110.632935 3586.131104,1100.458984 3594.321289,1090.443237 
	C3618.976318,1060.292358 3643.832520,1030.304810 3668.289795,999.994995 
	C3672.668457,994.568970 3677.149414,992.024719 3684.231445,992.175232 
	C3703.888428,992.592896 3723.560547,992.291687 3743.226562,992.347351 
	C3746.417969,992.356384 3749.608643,992.736572 3754.744873,993.072449 
	C3734.087158,1018.393372 3714.608398,1042.268921 3694.672363,1066.691406 
z"/>
<path fill="#4B6DBD" opacity="1.000000" stroke="none" 
	d="
M3434.183105,1109.512939 
	C3433.863037,1108.340576 3433.670898,1106.675537 3433.639648,1104.522705 
	C3433.970459,1105.696533 3434.140869,1107.358398 3434.183105,1109.512939 
z"/>
<path fill="#4B6CD2" opacity="1.000000" stroke="none" 
	d="
M2944.304932,1128.464600 
	C2944.747070,1128.424561 2944.849609,1128.957153 2944.527344,1129.783203 
	C2944.330566,1129.677734 2944.284912,1129.331299 2944.304932,1128.464600 
z"/>
<path fill="#47704D" opacity="1.000000" stroke="none" 
	d="
M570.788208,1323.223511 
	C545.334351,1304.909546 520.486145,1286.946777 492.895782,1273.336426 
	C486.060486,1269.964478 478.904968,1266.919067 471.566986,1264.955688 
	C456.130219,1260.825439 447.261475,1269.542236 449.420197,1285.548828 
	C451.051025,1297.640991 455.051514,1308.775146 461.279144,1319.190308 
	C463.670898,1323.190430 465.817505,1327.348999 468.389984,1331.227051 
	C476.228241,1343.043213 472.078491,1352.817139 459.312317,1358.328857 
	C443.742798,1365.050659 427.957733,1362.900635 412.208008,1359.681641 
	C392.974121,1355.750488 375.973206,1346.723145 359.871002,1335.804932 
	C324.340759,1311.713257 292.521942,1283.609497 266.420319,1249.338257 
	C241.412277,1216.502808 222.823944,1180.187500 208.035202,1141.784668 
	C197.111481,1113.418579 189.667603,1084.111328 184.861282,1054.190063 
	C182.442261,1039.130493 181.176254,1023.814026 180.503723,1008.564636 
	C179.747665,991.421082 183.687973,987.103638 200.779266,983.645020 
	C225.199509,978.703247 249.642136,978.744507 274.244202,982.852600 
	C321.623505,990.764160 366.647308,1005.584839 408.545441,1029.047241 
	C453.350433,1054.137329 492.858185,1085.980469 526.587280,1124.873169 
	C552.626038,1154.898315 574.521179,1187.914185 596.632751,1220.796997 
	C626.587646,1265.343872 657.996582,1308.766846 697.867981,1345.207764 
	C709.646301,1355.972534 722.360107,1365.715576 734.677124,1375.888184 
	C737.721497,1378.402344 740.890686,1380.765503 745.829102,1384.625977 
	C739.089478,1385.843994 734.208313,1387.389160 729.293091,1387.506470 
	C698.767944,1388.235352 668.636719,1385.710938 640.625305,1372.324341 
	C630.804504,1367.630981 621.587585,1361.431274 612.710022,1355.062134 
	C598.651917,1344.976318 585.111694,1334.168823 570.788208,1323.223511 
z"/>
<path fill="#47704E" opacity="1.000000" stroke="none" 
	d="
M662.325317,1018.273682 
	C672.695618,1010.956482 683.325806,1009.292908 695.112061,1011.379883 
	C712.050232,1014.379089 726.350403,1022.046936 739.153137,1033.246216 
	C766.618591,1057.271729 787.510925,1086.234863 803.301758,1118.902588 
	C811.585938,1136.040527 808.248291,1142.296997 790.634338,1149.027588 
	C759.714539,1160.842773 737.222839,1147.737061 720.146423,1127.067139 
	C710.034302,1114.827026 709.402588,1099.470703 713.238647,1085.179321 
	C719.020447,1063.638672 702.357300,1046.959717 685.513794,1044.342041 
	C680.911377,1043.626831 676.310120,1042.747803 671.675232,1042.436157 
	C665.413696,1042.015015 659.352478,1040.813110 656.557434,1034.688232 
	C653.635620,1028.285645 657.150208,1023.164246 662.325317,1018.273682 
z"/>
<path fill="#47704E" opacity="1.000000" stroke="none" 
	d="
M662.631470,1082.574707 
	C662.113647,1080.189331 661.641357,1078.515137 661.790466,1076.898193 
	C662.416260,1070.111328 665.975525,1066.113892 671.976257,1065.155762 
	C677.607300,1064.256714 682.811218,1066.908081 685.232849,1071.909912 
	C687.691833,1076.988892 686.181824,1083.896729 681.861877,1087.330933 
	C677.650452,1090.678711 670.805359,1090.717773 666.053284,1087.179565 
	C664.773010,1086.226318 663.979675,1084.619019 662.631470,1082.574707 
z"/>
</svg>