<?xml version="1.0" encoding="UTF-8"?>
<svg version="1.1" xmlns="http://www.w3.org/2000/svg" width="1080" height="520">
<path d="M0 0 C19.28892153 -0.14027337 38.5777393 -0.24602151 57.86706543 -0.31087303 C66.82382272 -0.34178757 75.78026277 -0.38392182 84.73681641 -0.45263672 C92.54500704 -0.5125127 100.35296788 -0.55116662 108.16138172 -0.56453097 C112.29453295 -0.57234101 116.42702687 -0.59064506 120.55996704 -0.63438034 C124.45399614 -0.67525172 128.34710024 -0.68764028 132.24132347 -0.67864609 C133.66674014 -0.68029031 135.09218927 -0.69213997 136.51741982 -0.71523285 C144.10182209 -0.8320449 149.66060247 -0.77851972 155.49690247 4.41428185 C169.18678232 18.85665204 178.12854019 36.9258118 186 55 C186.35964844 55.81855469 186.71929687 56.63710937 187.08984375 57.48046875 C189.76587005 63.83224438 191.47709061 70.28535406 193 77 C193.97453125 76.7834375 194.9490625 76.566875 195.953125 76.34375 C222.45232444 70.95440739 250.77082748 72.21238117 275 85 C273.59614027 88.172723 271.91428166 90.27635076 269.5 92.75 C260.57142041 102.63290241 254.4227754 114.64465119 248.69140625 126.57421875 C247.25146877 129.49067411 245.68672686 132.22412952 244 135 C243.26151892 136.70171728 242.52439931 138.4041798 241.8125 140.1171875 C240.65605792 142.79701963 239.34228485 145.38736125 238.01953125 147.98828125 C237.37986032 149.25046718 236.75057815 150.51802999 236.13671875 151.79296875 C230.79128137 162.83706624 224.56014828 174.31023249 217 184 C216.34 184 215.68 184 215 184 C214.9071875 184.8353125 214.9071875 184.8353125 214.8125 185.6875 C213.90259677 188.27722458 212.61804329 189.54602842 210.640625 191.3984375 C208.56623491 193.42343735 206.67170703 195.57968053 204.75 197.75 C198.53859791 204.67215954 192.35917087 211.33984272 184.7265625 216.7109375 C182.94058322 217.97154084 182.94058322 217.97154084 181.3984375 219.6640625 C180 221 180 221 178 221 C178 221.66 178 222.32 178 223 C171.56231301 228.06084064 164.22245216 232.13542496 157.1875 236.3125 C156.48310791 236.73273438 155.77871582 237.15296875 155.05297852 237.5859375 C150.79939462 240.07926221 146.56526543 242.13848754 142 244 C141.10539063 244.39960938 140.21078125 244.79921875 139.2890625 245.2109375 C131.38999709 248.66243529 123.35690763 251.12035559 115.06689453 253.41357422 C113.21021713 253.94035654 111.36756489 254.51598905 109.52734375 255.09765625 C71.25774682 266.65322915 26.49628265 262.35457416 -10 247 C-11.28764704 246.49507327 -12.57680065 245.99397696 -13.8671875 245.49609375 C-22.89749493 241.9852779 -30.97557196 237.74768553 -39.125 232.5625 C-39.71925781 232.19318359 -40.31351563 231.82386719 -40.92578125 231.44335938 C-50.08626361 225.60936564 -50.08626361 225.60936564 -51.62578487 221.21294022 C-52.08694206 218.48586371 -52.12269896 215.89522351 -52.12025452 213.12811279 C-52.12231651 211.32764999 -52.12231651 211.32764999 -52.12442017 209.49081421 C-52.12082489 208.17739044 -52.11722961 206.86396667 -52.11352539 205.51074219 C-52.11324326 204.11115521 -52.11340176 202.71156809 -52.1139679 201.3119812 C-52.11425487 197.51480554 -52.10837427 193.71766145 -52.10139394 189.92049313 C-52.09514378 185.95133054 -52.09455528 181.98216724 -52.09336853 178.01300049 C-52.09026013 170.49785846 -52.08205333 162.98273097 -52.07201904 155.46759534 C-52.06084269 146.91144005 -52.05534361 138.35528406 -52.05032361 129.79912329 C-52.03987033 112.19940728 -52.02228036 94.59970481 -52 77 C-49.64257812 76.39404297 -49.64257812 76.39404297 -47 76 C-44.71875 77.6953125 -44.71875 77.6953125 -42.5 80.125 C-41.7678125 80.91132813 -41.035625 81.69765625 -40.28125 82.5078125 C-39.5284375 83.33023438 -38.775625 84.15265625 -38 85 C-36.33856616 86.67188311 -34.67185066 88.3385335 -33 90 C-32.22140625 90.80179687 -31.4428125 91.60359375 -30.640625 92.4296875 C-25.89767898 97.28113229 -21.12786245 101.65883948 -15.6171875 105.625 C-15.08351562 106.07875 -14.54984375 106.5325 -14 107 C-14 107.66 -14 108.32 -14 109 C-13.45085937 109.23976563 -12.90171875 109.47953125 -12.3359375 109.7265625 C-9.44914621 111.30029822 -7.13810675 113.25610608 -4.625 115.375 C-1.60201671 117.89617616 1.35194121 120.3438199 4.6875 122.4375 C5.450625 122.953125 6.21375 123.46875 7 124 C7 124.66 7 125.32 7 126 C8.32 126.33 9.64 126.66 11 127 C11 127.66 11 128.32 11 129 C11.66 129.20625 12.32 129.4125 13 129.625 C15.63381936 130.83216721 17.37798397 131.98382691 19.625 133.75 C24.40696459 137.46930579 29.63453212 140.21863613 35 143 C35 143.66 35 144.32 35 145 C35.82757813 145.23460937 36.65515625 145.46921875 37.5078125 145.7109375 C41.64609037 147.23848973 45.12859847 149.3252459 48.875 151.625 C54.75940676 155.1422058 60.67380249 158.57345084 66.75 161.75 C67.73202393 162.28874756 67.73202393 162.28874756 68.73388672 162.83837891 C71.57605717 164.29091225 73.36512815 165.13555635 76.54296875 164.45703125 C80.16215111 162.31083885 83.73642471 160.1166229 87.27148438 157.83398438 C90.13201684 156.02398664 92.62820094 154.53586049 96 154 C96 153.34 96 152.68 96 152 C97.68113694 150.6662784 99.42195478 149.40728884 101.1875 148.1875 C105.19439367 145.34821206 108.69463911 142.61523848 112 139 C113 138 114 137 115 136 C112.04691509 130.7090562 108.89170088 125.55822367 105.64257812 120.44458008 C103 116.22032653 103 116.22032653 103 114 C102.34 114 101.68 114 101 114 C99.4921875 111.8828125 99.4921875 111.8828125 97.875 109.125 C97.33617187 108.22007812 96.79734375 107.31515625 96.2421875 106.3828125 C95 104 95 104 95 102 C94.34 102 93.68 102 93 102 C91.95547504 100.48041413 90.99175725 98.90518785 90.0625 97.3125 C86.83608307 92.08047255 83.21937933 87.54095226 79.19848633 82.92480469 C76.01713742 79.25565258 73.10167441 75.49450157 70.25 71.5625 C67.70692522 68.08925552 65.27795382 65.15538427 61.9375 62.4375 C60.4834375 61.2309375 60.4834375 61.2309375 59 60 C59 59.01 59 58.02 59 57 C57.68 56.34 56.36 55.68 55 55 C55 54.34 55 53.68 55 53 C53.68 52.34 52.36 51.68 51 51 C51 50.34 51 49.68 51 49 C49.68 48.34 48.36 47.68 47 47 C47 46.34 47 45.68 47 45 C45.68 44.34 44.36 43.68 43 43 C43 42.34 43 41.68 43 41 C42.443125 40.773125 41.88625 40.54625 41.3125 40.3125 C38.9988957 38.99937323 37.41808234 37.50027113 35.58203125 35.59765625 C29.78963234 29.74804846 23.47846883 24.50093946 17 19.4375 C16.40687012 18.97384033 15.81374023 18.51018066 15.20263672 18.0324707 C12.45415428 15.89161511 9.694556 13.76849745 6.91796875 11.6640625 C6.01691406 10.97054687 5.11585938 10.27703125 4.1875 9.5625 C3.39730469 8.96566406 2.60710937 8.36882812 1.79296875 7.75390625 C-0.19456149 5.80967732 -0.74621071 4.74656413 -1 2 C-0.67 1.34 -0.34 0.68 0 0 Z " fill="#326FFE" transform="translate(181,136)"/>
<path d="M0 0 C10.56 0 21.12 0 32 0 C32 10.23 32 20.46 32 31 C57.245 30.505 57.245 30.505 83 30 C78.85086889 23.07029062 78.85086889 23.07029062 74.625 16.1875 C73.0293212 13.05751467 72.49424421 11.43913937 73 8 C75.51250899 5.48749101 82.3734222 6.81445404 85.75 6.8125 C86.84828125 6.80025391 87.9465625 6.78800781 89.078125 6.77539062 C90.1403125 6.77345703 91.2025 6.77152344 92.296875 6.76953125 C93.75625488 6.76336792 93.75625488 6.76336792 95.24511719 6.75708008 C101.0872524 7.27222759 104.20540665 9.65010031 108 14 C111.40221814 18.5390368 114.15648731 22.2962475 115 28 C115.66 28 116.32 28 117 28 C119.20485196 31.9050378 121.40492679 35.812518 123.59375 39.7265625 C125.02485574 42.28194671 126.47985109 44.81308101 127.96875 47.3359375 C128.78859375 48.74746094 128.78859375 48.74746094 129.625 50.1875 C130.11226562 51.00605469 130.59953125 51.82460937 131.1015625 52.66796875 C132.20564366 55.53377941 131.69336822 57.06490352 131 60 C127.14597871 60.08770383 123.29221709 60.14062735 119.4375 60.1875 C117.80844727 60.22520508 117.80844727 60.22520508 116.14648438 60.26367188 C109.98161602 60.31988648 105.39036601 60.1144337 100 57 C98.5625 54.8125 98.5625 54.8125 98 53 C97.34 53 96.68 53 96 53 C95.34 66.53 94.68 80.06 94 94 C101.67336227 93.92112459 101.67336227 93.92112459 109.34643555 93.81982422 C110.308479 93.8148291 111.27052246 93.80983398 112.26171875 93.8046875 C113.73064575 93.78897705 113.73064575 93.78897705 115.22924805 93.77294922 C118.17112772 94.01402315 120.33237726 94.76944458 123 96 C123 96.66 123 97.32 123 98 C123.66 98 124.32 98 125 98 C126.28572934 100.57145868 126.12948005 102.41444406 126.1328125 105.29296875 C126.13490723 106.38722168 126.13700195 107.48147461 126.13916016 108.60888672 C126.13215088 110.38030029 126.13215088 110.38030029 126.125 112.1875 C126.12161621 113.39680176 126.11823242 114.60610352 126.11474609 115.85205078 C125.86049416 161.02020189 125.86049416 161.02020189 117 172 C116.50371094 172.74121094 116.00742187 173.48242188 115.49609375 174.24609375 C114.75552734 175.11427734 114.75552734 175.11427734 114 176 C113.01 176 112.02 176 111 176 C110.67 176.99 110.34 177.98 110 179 C100.56133164 184.75503448 90.3204607 184.78199077 79.63134766 184.65185547 C76.97547537 184.6247497 74.3237228 184.65187888 71.66796875 184.68359375 C69.96613658 184.68029423 68.26430695 184.6738975 66.5625 184.6640625 C65.38276611 184.67924423 65.38276611 184.67924423 64.17919922 184.69473267 C60.25201145 184.61091681 58.20064264 184.1457663 54.99536133 181.81713867 C52.71883343 178.6030367 52.40773615 177.15066792 52.51171875 173.26171875 C52.53588867 171.66166992 52.53588867 171.66166992 52.56054688 170.02929688 C52.60244141 168.92650391 52.64433594 167.82371094 52.6875 166.6875 C52.71005859 165.56537109 52.73261719 164.44324219 52.75585938 163.28710938 C52.81466224 160.52337464 52.89679599 157.76237446 53 155 C54.00377686 154.9906543 55.00755371 154.98130859 56.04174805 154.97167969 C59.7788471 154.93169769 63.51512998 154.86591744 67.25170898 154.79248047 C68.86651089 154.76431814 70.48144943 154.74308 72.09643555 154.72900391 C74.42307237 154.70750742 76.74807477 154.66082789 79.07421875 154.609375 C79.79212082 154.60814636 80.51002289 154.60691772 81.24967957 154.60565186 C84.68381599 154.50611683 86.88177542 154.06849926 89.87036133 152.33691406 C96.8449751 144.6834688 94.56494028 132.13625411 95 123 C74.21 123 53.42 123 32 123 C32 150.06 32 177.12 32 205 C21.44 205 10.88 205 0 205 C0 177.94 0 150.88 0 123 C-20.882531 123.15828629 -20.882531 123.15828629 -41.76464844 123.36035156 C-44.37955067 123.37203228 -46.99446016 123.38222556 -49.609375 123.390625 C-50.28728088 123.40107849 -50.96518677 123.41153198 -51.66363525 123.42230225 C-53.66586965 123.45162626 -55.66844946 123.45335633 -57.67089844 123.45410156 C-58.79896912 123.46298401 -59.92703979 123.47186646 -61.08929443 123.48101807 C-64 123 -64 123 -68 119 C-68 110.75 -68 102.5 -68 94 C-45.56 94 -23.12 94 0 94 C0 82.78 0 71.56 0 60 C-3.33480469 60.04640625 -6.66960938 60.0928125 -10.10546875 60.140625 C-13.33893309 60.17182908 -16.57238059 60.19611211 -19.8059082 60.21972656 C-22.05142741 60.2398294 -24.29689435 60.26711605 -26.54223633 60.30175781 C-29.7717784 60.3503331 -33.00062775 60.37298237 -36.23046875 60.390625 C-37.73386055 60.42159271 -37.73386055 60.42159271 -39.2676239 60.45318604 C-43.70350849 60.45461086 -46.25923501 60.45233118 -50.1105957 58.10058594 C-57.27445292 50.13601332 -53 45.90214737 -53 31 C-35.51 31 -18.02 31 0 31 C0 20.77 0 10.54 0 0 Z M32 60 C32 71.22 32 82.44 32 94 C42.56 94 53.12 94 64 94 C65.47908271 91.04183458 65.12201325 88.04551087 65.09765625 84.8046875 C65.09515869 83.51030762 65.09266113 82.21592773 65.09008789 80.88232422 C65.08098389 79.22990723 65.07187988 77.57749023 65.0625 75.875 C65.041875 70.63625 65.02125 65.3975 65 60 C54.11 60 43.22 60 32 60 Z " fill="#000000" transform="translate(819,164)"/>
<path d="M0 0 C14.92503789 -0.0467164 29.85007012 -0.08198708 44.77516556 -0.10362434 C51.7051157 -0.11393784 58.63502042 -0.12799956 65.56494141 -0.15087891 C72.24982072 -0.17293873 78.93464305 -0.18456143 85.61956024 -0.18975449 C88.17289728 -0.19345639 90.72623166 -0.20068505 93.27954865 -0.21146011 C96.84950902 -0.22592939 100.41927295 -0.22797983 103.98925781 -0.22705078 C105.05021164 -0.23424133 106.11116547 -0.24143188 107.20426941 -0.24884033 C108.66395897 -0.24471634 108.66395897 -0.24471634 110.15313721 -0.24050903 C110.99749958 -0.24235262 111.84186195 -0.24419621 112.71181107 -0.24609566 C115.2575238 0.02769679 116.83542269 0.64819678 119 2 C121.69919975 5.56238336 122.38150472 8.19091083 122.43237305 12.61645508 C122.45216721 13.71721878 122.47196136 14.81798248 122.49235535 15.95210266 C122.49874527 17.1293541 122.50513519 18.30660553 122.51171875 19.51953125 C122.52966995 20.73323898 122.54762115 21.94694672 122.56611633 23.19743347 C122.62024301 27.06908711 122.65412377 30.94061728 122.6875 34.8125 C122.72067086 37.43947031 122.75516029 40.06642433 122.79101562 42.69335938 C122.87597111 49.12879554 122.94431127 55.56424763 123 62 C126.18728993 58.8376018 129.37114992 55.67180021 132.55200195 52.50292969 C133.63246667 51.42746488 134.71383081 50.35290284 135.79614258 49.27929688 C137.36001464 47.72768199 138.92052315 46.17274873 140.48046875 44.6171875 C140.95775925 44.14505829 141.43504974 43.67292908 141.92680359 43.18649292 C145.17235309 39.94147622 148.08516883 36.53641524 151 33 C152.13350137 31.96255807 153.29570334 30.9543483 154.5 30 C156.87065389 28.05102424 158.80702249 26.11186946 160.6875 23.6875 C163.62053866 20.27883344 163.62053866 20.27883344 167 20 C173.06641152 23.47771261 179.71876331 30.57474096 182.16015625 37.1015625 C182.36887258 40.90127007 181.83913879 43.79826666 179.63720703 46.95166016 C179.07888184 47.55800293 178.52055664 48.1643457 177.9453125 48.7890625 C177.00377319 49.81604248 177.00377319 49.81604248 176.04321289 50.86376953 C172.60111661 54.46256777 169.10476495 57.99986629 165.5625 61.5 C164.46518555 62.59054688 164.46518555 62.59054688 163.34570312 63.703125 C161.56610176 65.47109499 159.78419082 67.23666378 158 69 C159.47122616 72.40353022 161.36942513 74.61255749 163.99072266 77.21777344 C164.81142242 78.03832214 165.63212219 78.85887085 166.47769165 79.70428467 C167.80744522 81.01855438 167.80744522 81.01855438 169.1640625 82.359375 C170.07127045 83.26375305 170.97847839 84.1681311 171.91317749 85.09991455 C174.31884419 87.49796458 176.73045736 89.88994618 179.14337158 92.28070068 C181.60702344 94.72385171 184.06498577 97.17271206 186.5234375 99.62109375 C191.34373573 104.41933788 196.16969843 109.21182732 201 114 C199.19675513 117.88878189 196.70304854 120.62947503 193.6875 123.625 C192.9769043 124.35976563 192.9769043 124.35976563 192.25195312 125.109375 C189.38111392 127.98414148 186.93910113 129.9209723 183 131 C178.16742675 130.66087205 173.99525712 130.07549534 170.54296875 126.484375 C170.09566406 125.91203125 169.64835938 125.3396875 169.1875 124.75 C167.09681067 122.19999256 164.98245105 120.03431836 162.4375 117.9375 C159.19257334 115.26061302 156.6952421 112.23429052 154 109 C152.85153776 107.97914468 151.68378078 106.97968065 150.5 106 C147.23571822 103.29852543 144.71481621 100.25777945 142 97 C140.87216944 96.00015021 139.72515771 95.021629 138.5625 94.0625 C135.53932552 91.56281894 133.07933804 88.88475369 130.65234375 85.80859375 C128.3174304 83.25288481 125.68783707 81.18083868 123 79 C124.40401579 98.9286421 127.1777599 119.12699971 134 138 C134.29390625 138.85980469 134.5878125 139.71960938 134.890625 140.60546875 C138.66314929 150.91596945 143.76762357 160.16756676 154 165 C157.77492079 166.54983971 161.01592214 167.44716906 165.0625 166.53515625 C173.09987143 163.12869219 178.55323095 155.2259997 183 148 C187.75884213 150.1483934 190.99276039 153.51111578 194.6875 157.125 C195.37650391 157.764375 196.06550781 158.40375 196.77539062 159.0625 C200.04286571 162.2625051 202.35726128 164.67903596 203.046875 169.3046875 C202.95529181 176.52449539 197.61267853 180.61665974 192.8046875 185.4609375 C191 187 191 187 189 187 C189 187.66 189 188.32 189 189 C173.45650949 197.16469867 162.05380071 200.2733274 144.6171875 195.28125 C139.68620514 193.53463854 135.0593425 191.34298794 131 188 C131 187.34 131 186.68 131 186 C130.4225 185.9175 129.845 185.835 129.25 185.75 C126.3298567 184.7766189 124.98212207 183.32386725 123 181 C122.67 180.01 122.34 179.02 122 178 C120.515 177.01 120.515 177.01 119 176 C118.00802489 174.34670815 117.02354129 172.6876318 116.10546875 170.9921875 C114.96333951 168.9339334 113.71717159 166.97522883 112.4375 165 C110.22618229 161.4645802 108.46831515 157.90132044 107 154 C106.61972656 153.00226563 106.23945312 152.00453125 105.84765625 150.9765625 C91.29407486 111.60669188 91.66337553 71.37160525 92 30 C90.35961761 30.01332367 90.35961761 30.01332367 88.68609619 30.0269165 C78.38609905 30.10796103 68.0861665 30.16794557 57.785923 30.20724869 C52.49028497 30.22813408 47.19490409 30.25646932 41.89941406 30.30175781 C36.79009215 30.34518128 31.68101776 30.36912993 26.57152557 30.37950897 C24.62103121 30.38690661 22.67055058 30.40135233 20.72016144 30.42292023 C17.99055072 30.45190772 15.26196613 30.45595796 12.53222656 30.45410156 C11.72374268 30.46848267 10.91525879 30.48286377 10.08227539 30.49768066 C6.71735149 30.47287645 4.52808444 30.39352186 1.78554916 28.34981918 C-0.5028646 25.33821991 -0.46419138 23.67376028 -0.390625 19.921875 C-0.37773438 18.76171875 -0.36484375 17.6015625 -0.3515625 16.40625 C-0.31804688 15.1996875 -0.28453125 13.993125 -0.25 12.75 C-0.22292969 10.91695312 -0.22292969 10.91695312 -0.1953125 9.046875 C-0.148181 6.03045922 -0.08239413 3.01562509 0 0 Z " fill="#000000" transform="translate(529,171)"/>
<path d="M0 0 C19.28892153 -0.14027337 38.5777393 -0.24602151 57.86706543 -0.31087303 C66.82382272 -0.34178757 75.78026277 -0.38392182 84.73681641 -0.45263672 C92.54500704 -0.5125127 100.35296788 -0.55116662 108.16138172 -0.56453097 C112.29453295 -0.57234101 116.42702687 -0.59064506 120.55996704 -0.63438034 C124.45399614 -0.67525172 128.34710024 -0.68764028 132.24132347 -0.67864609 C133.66674014 -0.68029031 135.09218927 -0.69213997 136.51741982 -0.71523285 C144.10182209 -0.8320449 149.66060247 -0.77851972 155.49690247 4.41428185 C169.19377246 18.8640264 178.10542486 36.92774959 186 55 C186.35964844 55.79535156 186.71929687 56.59070313 187.08984375 57.41015625 C190.09617487 64.38711337 191.584037 71.55546727 193 79 C188.82124394 81.1667624 184.73194262 83.12977881 180.3125 84.75 C165.34874512 90.63436444 153.49674726 101.20725493 142.43994141 112.54516602 C138.94325113 116.12270732 135.37917342 119.48343537 131.51220703 122.65991211 C129.73891397 124.16278135 129.73891397 124.16278135 127.5625 126.9375 C124.38454319 130.73554595 120.7857579 133.82484821 117 137 C113.25868718 133.56203686 111.15481676 130.56821153 109 126 C107.42949515 123.3730473 105.82489147 120.7698987 104.20703125 118.171875 C103 116 103 116 103 114 C102.34 114 101.68 114 101 114 C99.4921875 111.8828125 99.4921875 111.8828125 97.875 109.125 C97.33617187 108.22007812 96.79734375 107.31515625 96.2421875 106.3828125 C95 104 95 104 95 102 C94.34 102 93.68 102 93 102 C91.95547504 100.48041413 90.99175725 98.90518785 90.0625 97.3125 C86.83608307 92.08047255 83.21937933 87.54095226 79.19848633 82.92480469 C76.01713742 79.25565258 73.10167441 75.49450157 70.25 71.5625 C67.70692522 68.08925552 65.27795382 65.15538427 61.9375 62.4375 C60.4834375 61.2309375 60.4834375 61.2309375 59 60 C59 59.01 59 58.02 59 57 C57.68 56.34 56.36 55.68 55 55 C55 54.34 55 53.68 55 53 C53.68 52.34 52.36 51.68 51 51 C51 50.34 51 49.68 51 49 C49.68 48.34 48.36 47.68 47 47 C47 46.34 47 45.68 47 45 C45.68 44.34 44.36 43.68 43 43 C43 42.34 43 41.68 43 41 C42.443125 40.773125 41.88625 40.54625 41.3125 40.3125 C38.9988957 38.99937323 37.41808234 37.50027113 35.58203125 35.59765625 C29.78963234 29.74804846 23.47846883 24.50093946 17 19.4375 C16.40687012 18.97384033 15.81374023 18.51018066 15.20263672 18.0324707 C12.45415428 15.89161511 9.694556 13.76849745 6.91796875 11.6640625 C6.01691406 10.97054687 5.11585938 10.27703125 4.1875 9.5625 C3.39730469 8.96566406 2.60710937 8.36882812 1.79296875 7.75390625 C-0.19456149 5.80967732 -0.74621071 4.74656413 -1 2 C-0.67 1.34 -0.34 0.68 0 0 Z " fill="#00D5B8" transform="translate(181,136)"/>
<path d="M0 0 C1.84706543 0.00845947 1.84706543 0.00845947 3.73144531 0.01708984 C20.1752415 0.23590716 35.62134264 3.59181973 50.25 11.3125 C48.84614027 14.485223 47.16428166 16.58885076 44.75 19.0625 C35.82142041 28.94540241 29.6727754 40.95715119 23.94140625 52.88671875 C22.50146877 55.80317411 20.93672686 58.53662952 19.25 61.3125 C18.51151892 63.01421728 17.77439931 64.7166798 17.0625 66.4296875 C15.91139645 69.09714862 14.60401858 71.67586416 13.2890625 74.265625 C12.23823228 76.33568153 11.21315245 78.41737747 10.1875 80.5 C7.42911666 85.97400104 4.63040652 89.97521985 0.25 94.3125 C-0.71135408 95.32657189 -1.66958737 96.34360965 -2.625 97.36328125 C-17.01144752 112.50254815 -33.4671555 121.32187636 -54.56640625 122.53125 C-71.23702524 122.92234957 -85.78476463 118.55299105 -101.37060547 113.12304688 C-104.55801731 112.03724682 -107.77012008 111.07696461 -111 110.125 C-115.30190837 108.82339695 -119.31699138 107.28131906 -123.3828125 105.375 C-126.25525273 104.0857199 -129.17848257 102.98427715 -132.125 101.875 C-138.12240653 99.60036525 -143.94840823 97.04471256 -149.75 94.3125 C-148.62856895 90.94820685 -148.16715792 90.65056775 -145.29296875 88.8671875 C-144.59236328 88.43019531 -143.89175781 87.99320312 -143.16992188 87.54296875 C-142.43322266 87.09566406 -141.69652344 86.64835937 -140.9375 86.1875 C-140.21240234 85.73246094 -139.48730469 85.27742188 -138.74023438 84.80859375 C-135.41092235 82.75556877 -132.61414563 81.11160853 -128.75 80.3125 C-128.75 79.6525 -128.75 78.9925 -128.75 78.3125 C-127.06886306 76.9787784 -125.32804522 75.71978884 -123.5625 74.5 C-119.57408025 71.67805295 -116.15965829 68.81687102 -112.75 65.3125 C-106.46546961 60.3125 -106.46546961 60.3125 -103.75 60.3125 C-103.09 58.9925 -102.43 57.6725 -101.75 56.3125 C-101.09 56.3125 -100.43 56.3125 -99.75 56.3125 C-99.09 54.9925 -98.43 53.6725 -97.75 52.3125 C-97.09 52.3125 -96.43 52.3125 -95.75 52.3125 C-95.09 50.9925 -94.43 49.6725 -93.75 48.3125 C-93.09 48.3125 -92.43 48.3125 -91.75 48.3125 C-91.48960937 47.714375 -91.22921875 47.11625 -90.9609375 46.5 C-89.65933899 44.14872528 -88.45180804 42.9949774 -86.375 41.3125 C-83.25253133 38.69075153 -80.38114032 35.93712467 -77.56030273 32.99291992 C-65.7662952 20.74522277 -51.30976374 11.5858593 -35.16015625 6.1484375 C-32.53566568 5.28654944 -32.53566568 5.28654944 -29.3125 3.6875 C-19.96318832 0.07899374 -9.90709426 -0.04766955 0 0 Z " fill="#133C9A" transform="translate(405.75,209.6875)"/>
<path d="M0 0 C0.33 0.66 0.66 1.32 1 2 C-0.23879385 5.38232479 -2.17151529 7.3091848 -4.875 9.625 C-5.55304688 10.21539062 -6.23109375 10.80578125 -6.9296875 11.4140625 C-8.88666469 12.91318087 -10.76048537 13.98569068 -13 15 C-8.70214922 9.96836982 -4.36574458 4.97281557 0 0 Z " fill="#2C64E8" transform="translate(409,299)"/>
</svg>
