<svg version="1.1" id="Layer_1" xmlns="http://www.w3.org/2000/svg" xmlns:xlink="http://www.w3.org/1999/xlink" x="0px" y="0px"
	 width="100%" viewBox="0 0 1200 406" enable-background="new 0 0 1200 406" xml:space="preserve">
<path fill="#000000" opacity="1.000000" stroke="none" 
	d="
M0.999999,144.000000 
	C1.000000,96.339592 1.000000,48.679192 1.000000,1.014089 
	C400.941193,1.009393 800.882385,1.009393 1200.911865,1.009393 
	C1200.911865,136.256699 1200.911865,271.513458 1200.911865,406.885132 
	C801.000000,406.885132 401.000000,406.885132 1.000005,406.886292 
	C1.000000,326.898132 1.000000,246.908768 1.391268,166.229126 
	C2.187471,166.553680 2.766207,167.534805 2.970559,168.588531 
	C5.103525,179.586945 6.032198,190.972351 9.495183,201.528625 
	C17.648285,226.381897 31.571348,247.769241 50.981010,265.614807 
	C64.465302,278.012482 79.341850,287.934326 96.197495,295.090820 
	C110.999451,301.375397 126.386665,305.630219 142.309174,306.763367 
	C154.152863,307.606293 166.159409,306.574738 178.070953,305.949890 
	C194.360718,305.095337 209.580276,300.074249 224.310410,293.302612 
	C240.880295,285.685242 254.277527,273.983398 266.618347,260.879669 
	C276.691528,250.183746 284.408203,237.925461 288.903992,223.995392 
	C292.328949,213.383392 295.452850,202.492401 296.944153,191.486160 
	C298.644623,178.936081 298.590790,166.124695 298.851288,153.417679 
	C298.928101,149.669983 297.486145,145.891159 296.794006,142.398102 
	C249.571838,142.398102 202.848877,142.398102 156.266724,142.398102 
	C156.266724,156.403778 156.266724,170.010208 156.266724,184.073273 
	C189.280701,184.073273 222.031326,184.073273 254.762451,184.073273 
	C254.873001,185.017776 255.044891,185.524429 254.966202,185.988586 
	C254.694717,187.590027 254.279160,189.167419 254.018570,190.770248 
	C249.610977,217.881607 235.062286,237.903931 211.285126,251.239731 
	C186.350479,265.224701 159.756638,268.350250 132.085388,261.949982 
	C99.723610,254.464798 76.136345,235.261826 60.759617,206.168732 
	C50.802486,187.329620 46.649361,167.194305 48.800167,145.632874 
	C50.113358,132.468414 52.937542,119.894691 58.540852,108.063583 
	C70.251419,83.337318 88.581772,65.163063 113.726112,54.058876 
	C132.966644,45.561920 153.139145,42.907658 173.758743,46.183788 
	C195.816132,49.688366 215.118118,59.484283 230.965546,74.423492 
	C240.915848,64.444283 250.767929,54.563564 261.143677,44.157669 
	C256.525177,40.332645 251.721725,36.159664 246.717361,32.243454 
	C224.560623,14.904428 199.178848,5.271840 171.348465,3.284957 
	C157.779175,2.316209 143.893692,3.494760 130.335281,5.180663 
	C109.080376,7.823580 89.719879,16.268774 71.770546,27.800907 
	C57.026352,37.273796 44.439648,49.292850 33.683525,63.013077 
	C25.460705,73.501884 18.714878,84.993118 13.698435,97.506676 
	C7.965467,111.807602 3.732417,126.362663 2.912844,141.821457 
	C2.872666,142.579315 1.664360,143.275238 0.999999,144.000000 
M817.658325,393.998413 
	C820.752502,394.332245 823.866516,395.073029 826.937256,394.923889 
	C836.298706,394.469299 845.732483,394.268158 854.977173,392.889252 
	C877.494812,389.530548 895.745972,378.548187 908.946655,359.927277 
	C921.830261,341.753632 926.601501,320.701630 926.807434,299.015228 
	C927.367615,240.026779 927.001526,181.029495 926.990723,122.035713 
	C926.990417,120.436172 926.855774,118.836655 926.790039,117.375267 
	C912.610657,117.375267 898.884827,117.375267 884.790588,117.375267 
	C884.790588,122.635925 884.790588,127.524483 884.790588,132.791946 
	C883.970154,132.220108 883.519592,132.020172 883.224426,131.683914 
	C871.741943,118.603203 856.651733,112.613922 839.908386,111.154701 
	C821.075989,109.513412 803.237305,113.520226 786.896912,123.528328 
	C771.149658,133.173157 758.648804,145.932083 750.030090,162.203110 
	C739.311401,182.438507 735.867432,203.876572 739.904846,226.629730 
	C744.459290,252.296875 756.946533,273.188477 777.551392,288.693085 
	C794.375183,301.352539 813.548401,307.835938 835.138489,307.158447 
	C854.718445,306.544098 871.009644,299.560638 885.459717,284.717621 
	C884.938416,294.519104 885.039490,303.428040 883.869080,312.166718 
	C881.973450,326.320160 876.304932,338.698029 863.909424,346.965057 
	C853.057739,354.202454 841.126221,356.404083 828.181458,355.107056 
	C816.242615,353.910797 806.078552,349.414917 798.187866,340.506836 
	C792.857483,334.489105 788.253296,327.828156 783.067078,321.122314 
	C771.192383,326.078796 758.644897,331.316071 745.763611,336.692688 
	C747.524048,340.167419 749.171814,343.657410 751.024048,347.035339 
	C759.736877,362.924469 771.808960,375.746582 788.028809,383.781189 
	C797.073425,388.261505 807.151245,390.656036 817.658325,393.998413 
M511.999817,210.475571 
	C511.657379,204.049423 512.015015,197.493118 510.848755,191.220123 
	C506.313141,166.824326 494.701172,146.434113 474.760803,131.294617 
	C450.044159,112.528854 422.128754,106.931328 392.056427,113.110413 
	C361.283997,119.433357 338.528076,137.077789 324.544983,165.185150 
	C315.572815,183.220062 313.486969,202.523239 315.839508,222.630905 
	C318.890411,248.707886 331.007843,269.683563 350.796356,286.013092 
	C372.588989,303.996460 398.638397,309.760132 426.169617,306.740448 
	C448.645660,304.275238 468.295868,294.833984 484.452576,278.234070 
	C502.675995,259.510681 511.383301,237.249466 511.999817,210.475571 
M597.000671,303.497192 
	C607.771729,307.212769 618.934692,306.988037 630.121826,307.063141 
	C644.290588,307.158264 657.492737,303.328186 670.036987,297.348724 
	C683.195862,291.076263 694.171387,281.911713 703.247925,270.353638 
	C716.133789,253.944733 722.695435,235.206406 723.818298,214.660919 
	C724.261902,206.544739 723.023621,198.270111 721.934570,190.150345 
	C719.553589,172.399689 711.614868,157.008148 700.012329,143.679184 
	C687.750732,129.593201 672.333923,120.177223 654.293701,114.918228 
	C638.684204,110.367836 622.754517,109.330742 607.030029,112.247971 
	C582.325317,116.831215 561.529053,128.619202 546.196594,149.227356 
	C527.018860,175.003922 522.843689,203.705582 529.810181,234.266373 
	C535.037964,257.199799 547.703186,275.710266 566.960205,289.325500 
	C575.843628,295.606323 585.404541,300.846802 597.000671,303.497192 
M1119.249268,306.999756 
	C1151.609619,304.125366 1180.499878,282.946503 1190.470459,262.933167 
	C1179.261597,255.507858 1168.043335,248.076340 1156.828613,240.647186 
	C1132.563354,277.795685 1080.878296,276.991608 1062.285889,239.105164 
	C1105.840576,221.055923 1149.379517,203.013229 1193.440308,184.754257 
	C1189.047241,175.282959 1185.417969,166.000824 1180.597412,157.385406 
	C1171.974731,141.975372 1160.304688,129.319839 1144.496338,120.814964 
	C1125.584595,110.640648 1105.702515,108.773384 1084.856445,112.893707 
	C1055.968018,118.603600 1035.504272,135.362167 1022.159912,160.955582 
	C1016.114075,172.550964 1013.046997,185.172699 1011.739319,198.437683 
	C1010.439941,211.619263 1011.586975,224.308731 1014.992065,236.855576 
	C1020.070984,255.570267 1029.714355,271.489441 1044.608276,284.255890 
	C1053.067871,291.507080 1062.548950,296.757202 1072.685791,300.998566 
	C1087.324097,307.123383 1102.766846,307.470978 1119.249268,306.999756 
M993.999573,87.500000 
	C993.999573,63.093555 993.999573,38.687111 993.999573,14.338975 
	C979.257812,14.338975 965.343506,14.338975 951.411133,14.338975 
	C951.411133,110.022804 951.411133,205.367081 951.411133,300.660889 
	C965.739319,300.660889 979.653137,300.660889 993.999573,300.660889 
	C993.999573,229.715134 993.999573,159.107574 993.999573,87.500000 
z"/>
<path fill="#4285F4" opacity="1.000000" stroke="none" 
	d="
M0.999999,144.468567 
	C1.664360,143.275238 2.872666,142.579315 2.912844,141.821457 
	C3.732417,126.362663 7.965467,111.807602 13.698435,97.506676 
	C18.714878,84.993118 25.460705,73.501884 33.683525,63.013077 
	C44.439648,49.292850 57.026352,37.273796 71.770546,27.800907 
	C89.719879,16.268774 109.080376,7.823580 130.335281,5.180663 
	C143.893692,3.494760 157.779175,2.316209 171.348465,3.284957 
	C199.178848,5.271840 224.560623,14.904428 246.717361,32.243454 
	C251.721725,36.159664 256.525177,40.332645 261.143677,44.157669 
	C250.767929,54.563564 240.915848,64.444283 230.965546,74.423492 
	C215.118118,59.484283 195.816132,49.688366 173.758743,46.183788 
	C153.139145,42.907658 132.966644,45.561920 113.726112,54.058876 
	C88.581772,65.163063 70.251419,83.337318 58.540852,108.063583 
	C52.937542,119.894691 50.113358,132.468414 48.800167,145.632874 
	C46.649361,167.194305 50.802486,187.329620 60.759617,206.168732 
	C76.136345,235.261826 99.723610,254.464798 132.085388,261.949982 
	C159.756638,268.350250 186.350479,265.224701 211.285126,251.239731 
	C235.062286,237.903931 249.610977,217.881607 254.018570,190.770248 
	C254.279160,189.167419 254.694717,187.590027 254.966202,185.988586 
	C255.044891,185.524429 254.873001,185.017776 254.762451,184.073273 
	C222.031326,184.073273 189.280701,184.073273 156.266724,184.073273 
	C156.266724,170.010208 156.266724,156.403778 156.266724,142.398102 
	C202.848877,142.398102 249.571838,142.398102 296.794006,142.398102 
	C297.486145,145.891159 298.928101,149.669983 298.851288,153.417679 
	C298.590790,166.124695 298.644623,178.936081 296.944153,191.486160 
	C295.452850,202.492401 292.328949,213.383392 288.903992,223.995392 
	C284.408203,237.925461 276.691528,250.183746 266.618347,260.879669 
	C254.277527,273.983398 240.880295,285.685242 224.310410,293.302612 
	C209.580276,300.074249 194.360718,305.095337 178.070953,305.949890 
	C166.159409,306.574738 154.152863,307.606293 142.309174,306.763367 
	C126.386665,305.630219 110.999451,301.375397 96.197495,295.090820 
	C79.341850,287.934326 64.465302,278.012482 50.981010,265.614807 
	C31.571348,247.769241 17.648285,226.381897 9.495183,201.528625 
	C6.032198,190.972351 5.103525,179.586945 2.970559,168.588531 
	C2.766207,167.534805 2.187471,166.553680 1.391268,165.769424 
	C1.000000,158.979050 1.000000,151.958099 0.999999,144.468567 
z"/>
<path fill="#4285F4" opacity="1.000000" stroke="none" 
	d="
M817.210938,393.994446 
	C807.151245,390.656036 797.073425,388.261505 788.028809,383.781189 
	C771.808960,375.746582 759.736877,362.924469 751.024048,347.035339 
	C749.171814,343.657410 747.524048,340.167419 745.763611,336.692688 
	C758.644897,331.316071 771.192383,326.078796 783.067078,321.122314 
	C788.253296,327.828156 792.857483,334.489105 798.187866,340.506836 
	C806.078552,349.414917 816.242615,353.910797 828.181458,355.107056 
	C841.126221,356.404083 853.057739,354.202454 863.909424,346.965057 
	C876.304932,338.698029 881.973450,326.320160 883.869080,312.166718 
	C885.039490,303.428040 884.938416,294.519104 885.459717,284.717621 
	C871.009644,299.560638 854.718445,306.544098 835.138489,307.158447 
	C813.548401,307.835938 794.375183,301.352539 777.551392,288.693085 
	C756.946533,273.188477 744.459290,252.296875 739.904846,226.629730 
	C735.867432,203.876572 739.311401,182.438507 750.030090,162.203110 
	C758.648804,145.932083 771.149658,133.173157 786.896912,123.528328 
	C803.237305,113.520226 821.075989,109.513412 839.908386,111.154701 
	C856.651733,112.613922 871.741943,118.603203 883.224426,131.683914 
	C883.519592,132.020172 883.970154,132.220108 884.790588,132.791946 
	C884.790588,127.524483 884.790588,122.635925 884.790588,117.375267 
	C898.884827,117.375267 912.610657,117.375267 926.790039,117.375267 
	C926.855774,118.836655 926.990417,120.436172 926.990723,122.035713 
	C927.001526,181.029495 927.367615,240.026779 926.807434,299.015228 
	C926.601501,320.701630 921.830261,341.753632 908.946655,359.927277 
	C895.745972,378.548187 877.494812,389.530548 854.977173,392.889252 
	C845.732483,394.268158 836.298706,394.469299 826.937256,394.923889 
	C823.866516,395.073029 820.752502,394.332245 817.210938,393.994446 
M809.674805,158.068649 
	C801.304688,163.049927 794.834229,169.979431 790.295532,178.459564 
	C784.030701,190.164795 781.568481,202.651077 782.865479,216.079926 
	C784.034607,228.184952 788.060303,239.086334 795.813110,248.077362 
	C808.536560,262.833069 824.503784,270.424347 844.600708,267.041779 
	C856.203735,265.088837 866.132812,259.747955 873.369629,250.860687 
	C887.200989,233.874725 891.049500,214.257401 886.004700,192.907684 
	C882.722229,179.015945 875.532166,167.806366 863.894592,159.366379 
	C853.002319,151.466965 840.849915,148.789688 827.914490,151.211182 
	C821.872742,152.342224 816.238586,155.651031 809.674805,158.068649 
z"/>
<path fill="#EA4335" opacity="1.000000" stroke="none" 
	d="
M511.999847,210.966553 
	C511.383301,237.249466 502.675995,259.510681 484.452576,278.234070 
	C468.295868,294.833984 448.645660,304.275238 426.169617,306.740448 
	C398.638397,309.760132 372.588989,303.996460 350.796356,286.013092 
	C331.007843,269.683563 318.890411,248.707886 315.839508,222.630905 
	C313.486969,202.523239 315.572815,183.220062 324.544983,165.185150 
	C338.528076,137.077789 361.283997,119.433357 392.056427,113.110413 
	C422.128754,106.931328 450.044159,112.528854 474.760803,131.294617 
	C494.701172,146.434113 506.313141,166.824326 510.848755,191.220123 
	C512.015015,197.493118 511.657379,204.049423 511.999847,210.966553 
M403.121094,151.365616 
	C389.224792,154.428253 377.995361,161.823196 370.010437,173.426147 
	C357.442444,191.688797 355.378021,211.718826 363.222565,232.242203 
	C371.175873,253.050201 387.048553,265.506042 409.000244,267.685394 
	C428.909058,269.661957 445.293793,261.093536 457.025543,244.674057 
	C467.385620,230.174347 470.269653,213.846588 466.893036,196.582626 
	C463.298279,178.203247 453.220856,164.269348 436.300720,155.763321 
	C426.087708,150.629028 415.221313,149.220154 403.121094,151.365616 
z"/>
<path fill="#FBBC05" opacity="1.000000" stroke="none" 
	d="
M596.641968,303.281494 
	C585.404541,300.846802 575.843628,295.606323 566.960205,289.325500 
	C547.703186,275.710266 535.037964,257.199799 529.810181,234.266373 
	C522.843689,203.705582 527.018860,175.003922 546.196594,149.227356 
	C561.529053,128.619202 582.325317,116.831215 607.030029,112.247971 
	C622.754517,109.330742 638.684204,110.367836 654.293701,114.918228 
	C672.333923,120.177223 687.750732,129.593201 700.012329,143.679184 
	C711.614868,157.008148 719.553589,172.399689 721.934570,190.150345 
	C723.023621,198.270111 724.261902,206.544739 723.818298,214.660919 
	C722.695435,235.206406 716.133789,253.944733 703.247925,270.353638 
	C694.171387,281.911713 683.195862,291.076263 670.036987,297.348724 
	C657.492737,303.328186 644.290588,307.158264 630.121826,307.063141 
	C618.934692,306.988037 607.771729,307.212769 596.641968,303.281494 
M661.991028,165.493469 
	C660.259033,163.985260 658.610168,162.366882 656.781494,160.986771 
	C645.038269,152.124039 631.774109,148.771667 617.328491,151.078293 
	C604.740112,153.088348 593.633057,158.644211 585.343079,168.421448 
	C574.445984,181.273651 569.950317,196.379700 570.915955,213.313843 
	C571.738220,227.733521 576.604980,240.451370 586.455627,250.774857 
	C599.706055,264.661407 616.177307,270.532043 635.290039,266.911224 
	C648.992676,264.315308 659.822510,256.813568 668.079285,245.569992 
	C678.138062,231.872665 681.507812,216.723083 679.110596,199.890320 
	C677.224426,186.646729 672.097961,175.306534 661.991028,165.493469 
z"/>
<path fill="#EA4335" opacity="1.000000" stroke="none" 
	d="
M1118.772949,306.999908 
	C1102.766846,307.470978 1087.324097,307.123383 1072.685791,300.998566 
	C1062.548950,296.757202 1053.067871,291.507080 1044.608276,284.255890 
	C1029.714355,271.489441 1020.070984,255.570267 1014.992065,236.855576 
	C1011.586975,224.308731 1010.439941,211.619263 1011.739319,198.437683 
	C1013.046997,185.172699 1016.114075,172.550964 1022.159912,160.955582 
	C1035.504272,135.362167 1055.968018,118.603600 1084.856445,112.893707 
	C1105.702515,108.773384 1125.584595,110.640648 1144.496338,120.814964 
	C1160.304688,129.319839 1171.974731,141.975372 1180.597412,157.385406 
	C1185.417969,166.000824 1189.047241,175.282959 1193.440308,184.754257 
	C1149.379517,203.013229 1105.840576,221.055923 1062.285889,239.105164 
	C1080.878296,276.991608 1132.563354,277.795685 1156.828613,240.647186 
	C1168.043335,248.076340 1179.261597,255.507858 1190.470459,262.933167 
	C1180.499878,282.946503 1151.609619,304.125366 1118.772949,306.999908 
M1065.991211,170.497757 
	C1058.079224,180.528763 1054.625122,191.937088 1055.059448,205.183838 
	C1083.939819,193.196274 1112.316040,181.417984 1140.689209,169.640930 
	C1137.853271,162.808502 1132.775757,158.358810 1126.486450,154.738388 
	C1118.662964,150.235016 1110.285889,149.262772 1101.690308,150.080917 
	C1087.109375,151.468735 1075.502563,158.526672 1065.991211,170.497757 
z"/>
<path fill="#34A853" opacity="1.000000" stroke="none" 
	d="
M993.999573,88.000000 
	C993.999573,159.107574 993.999573,229.715134 993.999573,300.660889 
	C979.653137,300.660889 965.739319,300.660889 951.411133,300.660889 
	C951.411133,205.367081 951.411133,110.022804 951.411133,14.338975 
	C965.343506,14.338975 979.257812,14.338975 993.999573,14.338975 
	C993.999573,38.687111 993.999573,63.093555 993.999573,88.000000 
z"/>
<path fill="#000000" opacity="1.000000" stroke="none" 
	d="
M810.047241,158.020691 
	C816.238586,155.651031 821.872742,152.342224 827.914490,151.211182 
	C840.849915,148.789688 853.002319,151.466965 863.894592,159.366379 
	C875.532166,167.806366 882.722229,179.015945 886.004700,192.907684 
	C891.049500,214.257401 887.200989,233.874725 873.369629,250.860687 
	C866.132812,259.747955 856.203735,265.088837 844.600708,267.041779 
	C824.503784,270.424347 808.536560,262.833069 795.813110,248.077362 
	C788.060303,239.086334 784.034607,228.184952 782.865479,216.079926 
	C781.568481,202.651077 784.030701,190.164795 790.295532,178.459564 
	C794.834229,169.979431 801.304688,163.049927 810.047241,158.020691 
z"/>
<path fill="#000000" opacity="1.000000" stroke="none" 
	d="
M403.529785,151.215149 
	C415.221313,149.220154 426.087708,150.629028 436.300720,155.763321 
	C453.220856,164.269348 463.298279,178.203247 466.893036,196.582626 
	C470.269653,213.846588 467.385620,230.174347 457.025543,244.674057 
	C445.293793,261.093536 428.909058,269.661957 409.000244,267.685394 
	C387.048553,265.506042 371.175873,253.050201 363.222565,232.242203 
	C355.378021,211.718826 357.442444,191.688797 370.010437,173.426147 
	C377.995361,161.823196 389.224792,154.428253 403.529785,151.215149 
z"/>
<path fill="#000000" opacity="1.000000" stroke="none" 
	d="
M662.243164,165.747467 
	C672.097961,175.306534 677.224426,186.646729 679.110596,199.890320 
	C681.507812,216.723083 678.138062,231.872665 668.079285,245.569992 
	C659.822510,256.813568 648.992676,264.315308 635.290039,266.911224 
	C616.177307,270.532043 599.706055,264.661407 586.455627,250.774857 
	C576.604980,240.451370 571.738220,227.733521 570.915955,213.313843 
	C569.950317,196.379700 574.445984,181.273651 585.343079,168.421448 
	C593.633057,158.644211 604.740112,153.088348 617.328491,151.078293 
	C631.774109,148.771667 645.038269,152.124039 656.781494,160.986771 
	C658.610168,162.366882 660.259033,163.985260 662.243164,165.747467 
z"/>
<path fill="#000000" opacity="1.000000" stroke="none" 
	d="
M1066.232910,170.227173 
	C1075.502563,158.526672 1087.109375,151.468735 1101.690308,150.080917 
	C1110.285889,149.262772 1118.662964,150.235016 1126.486450,154.738388 
	C1132.775757,158.358810 1137.853271,162.808502 1140.689209,169.640930 
	C1112.316040,181.417984 1083.939819,193.196274 1055.059448,205.183838 
	C1054.625122,191.937088 1058.079224,180.528763 1066.232910,170.227173 
z"/>
</svg>