<?xml version="1.0" encoding="UTF-8"?>
<svg version="1.1" xmlns="http://www.w3.org/2000/svg" width="1200" height="406">
<path d="M0 0 C1.14150009 -0.00151062 1.14150009 -0.00151062 2.30606079 -0.00305176 C13.68522031 0.00714314 24.53460491 0.56702642 35.625 3.25 C37.52572266 3.66765625 37.52572266 3.66765625 39.46484375 4.09375 C64.27785466 10.0345328 86.35504933 23.7257616 104.625 41.25 C102.97263349 45.54067546 99.7344793 48.3929553 96.5234375 51.546875 C95.92697418 52.14050842 95.33051086 52.73414185 94.7159729 53.34576416 C92.8153019 55.23526627 90.90778526 57.11768392 89 59 C87.70787532 60.28209065 86.41620324 61.56463761 85.125 62.84765625 C81.96355521 65.98708432 78.7959539 69.12017801 75.625 72.25 C75.11638428 71.86763184 74.60776855 71.48526367 74.08374023 71.09130859 C71.93231861 69.47554088 69.77871172 67.86271343 67.625 66.25 C66.62597656 65.49976562 65.62695312 64.74953125 64.59765625 63.9765625 C41.21428714 47.09031743 12.65310157 39.75221744 -16.01000977 44.07006836 C-44.55377549 49.02890103 -70.60046111 63.88067259 -87.4831543 87.74584961 C-104.84844858 113.50431369 -110.89572938 143.71247978 -105.375 174.25 C-100.9590797 195.37540767 -91.43585955 213.75495351 -76.375 229.25 C-75.75238281 229.93449219 -75.12976563 230.61898437 -74.48828125 231.32421875 C-56.97349254 250.01400376 -30.06237947 260.43375468 -4.79296875 261.46875 C24.42984785 262.22688911 50.21117656 254.12644628 72.625 235.25 C73.30046875 234.68925781 73.9759375 234.12851563 74.671875 233.55078125 C89.51401284 220.03626583 94.4602474 199.99138669 98.625 181.25 C65.955 181.25 33.285 181.25 -0.375 181.25 C-0.375 167.39 -0.375 153.53 -0.375 139.25 C46.155 139.25 92.685 139.25 140.625 139.25 C142.34712943 147.86064716 142.97480402 154.98747391 142.9375 163.625 C142.93600952 164.28307648 142.93451904 164.94115295 142.9329834 165.61917114 C142.88663927 177.0417887 142.03667459 188.07702304 139.625 199.25 C139.4081958 200.25474365 139.4081958 200.25474365 139.18701172 201.27978516 C131.35934977 236.04916731 110.80701832 265.07309311 80.625 284.25 C60.2027347 296.94835366 35.67252248 304.29938551 11.6015625 304.453125 C10.4926918 304.46371445 10.4926918 304.46371445 9.36141968 304.47451782 C-21.3268859 304.70117657 -21.3268859 304.70117657 -34.375 301.25 C-35.54675781 300.95198486 -35.54675781 300.95198486 -36.7421875 300.64794922 C-67.46229723 292.66287397 -97.08205052 276.08431519 -117.375 251.25 C-117.77976563 250.76289551 -118.18453125 250.27579102 -118.6015625 249.77392578 C-144.68095287 218.27086102 -157.35846783 179.38098821 -154.15673828 138.46044922 C-150.27152957 100.5028478 -133.14861649 68.86353508 -106.375 42.25 C-105.84986816 41.70126221 -105.32473633 41.15252441 -104.78369141 40.5871582 C-100.65057125 36.31657933 -96.31853612 32.75733254 -91.4375 29.375 C-90.32616699 28.6030127 -90.32616699 28.6030127 -89.19238281 27.81542969 C-62.31646389 9.41461992 -32.57029396 0.02979859 0 0 Z " fill="#4185F4" transform="translate(155.375,1.75)"/>
<path d="M0 0 C4.00758368 3.32766736 4.00758368 3.32766736 5.1875 5.6875 C5.5175 0.7375 5.8475 -4.2125 6.1875 -9.3125 C20.0475 -9.3125 33.9075 -9.3125 48.1875 -9.3125 C48.25544743 14.68931872 48.31061524 38.69105852 48.34293652 62.6929493 C48.3583485 73.83960561 48.37932846 84.98619754 48.41381836 96.1328125 C48.44389553 105.85800565 48.46311609 115.58315212 48.46976548 125.3083905 C48.47364699 130.44891958 48.48264808 135.58931523 48.50469017 140.72980118 C48.71711009 192.27721043 48.71711009 192.27721043 42 210.6875 C41.69666748 211.54794922 41.39333496 212.40839844 41.08081055 213.29492188 C32.93990889 235.53632268 18.00688678 250.96657765 -3.26953125 261.15234375 C-26.97573187 271.42415945 -56.40852528 272.36157018 -80.5625 262.9375 C-102.46154567 253.79374768 -119.93991087 237.8730597 -130.8125 216.6875 C-131.50482838 214.3616517 -132.17479687 212.02891487 -132.8125 209.6875 C-127.74331732 207.54446797 -122.67127312 205.408415 -117.59643555 203.27880859 C-115.87004214 202.55318767 -114.14444978 201.82565787 -112.41967773 201.09619141 C-109.94201878 200.04869107 -107.46157092 199.00806373 -104.98046875 197.96875 C-104.20849655 197.64064331 -103.43652435 197.31253662 -102.64115906 196.9744873 C-97.15411512 194.6875 -97.15411512 194.6875 -93.8125 194.6875 C-93.31943359 195.70457031 -93.31943359 195.70457031 -92.81640625 196.7421875 C-87.56452532 207.01822552 -80.59517866 215.44784379 -70.8125 221.6875 C-70.22339844 222.06519531 -69.63429688 222.44289063 -69.02734375 222.83203125 C-57.19049551 229.54209172 -43.27669754 229.72529614 -30.29296875 226.9296875 C-17.97001178 223.51541072 -9.15131117 216.94911169 -2.23046875 206.203125 C5.99597082 191.60856003 5.46648048 175.90484991 5.1875 159.6875 C4.42179688 160.45320312 3.65609375 161.21890625 2.8671875 162.0078125 C1.98289062 162.89210938 1.09859375 163.77640625 0.1875 164.6875 C-0.55113281 165.45707031 -0.55113281 165.45707031 -1.3046875 166.2421875 C-12.92212802 177.33454596 -30.45847641 181.28129439 -46 181.125 C-47.08861328 181.11597656 -48.17722656 181.10695313 -49.29882812 181.09765625 C-69.64305155 180.66505611 -88.08136208 173.7140732 -103.8125 160.6875 C-104.65039062 160.00042969 -105.48828125 159.31335938 -106.3515625 158.60546875 C-128.44804359 139.62164986 -138.77515004 114.76699111 -141.08984375 86.2734375 C-141.96574327 58.59501277 -131.10794476 32.75912249 -112.30810547 12.72900391 C-83.17863878 -17.22546124 -34.43590608 -26.91373652 0 0 Z M-81.8125 41.6875 C-93.12354054 55.14145251 -97.61139221 71.94359512 -96.6015625 89.31640625 C-94.64944877 105.79887596 -87.57952322 119.95579933 -74.8125 130.6875 C-62.61847205 139.46720012 -48.67177127 143.47244134 -33.75 141.2265625 C-19.8530573 138.15041633 -8.83760161 130.64827234 -0.5625 119.125 C8.89924024 104.26194697 11.77396832 85.567244 8.06054688 68.390625 C4.07356023 52.25505552 -4.42792496 38.53435131 -18.8125 29.6875 C-40.74336673 18.56314731 -65.22712131 23.92156484 -81.8125 41.6875 Z " fill="#4285F4" transform="translate(877.8125,125.3125)"/>
<path d="M0 0 C1.01578125 0.2784375 2.0315625 0.556875 3.078125 0.84375 C27.50116643 8.26017096 47.55461463 24.86334695 60 47 C72.48967268 71.38716261 75.13869356 100.97965098 66.7109375 127.109375 C58.23995052 151.82537439 40.87703443 172.11688143 17.49609375 183.7421875 C2.82317255 190.3327063 -11.02415503 193.18512347 -27 193.25 C-28.85818359 193.2809375 -28.85818359 193.2809375 -30.75390625 193.3125 C-57.33508897 193.42337042 -80.64975037 182.21086699 -99.5 163.9375 C-117.65301955 145.77660153 -126.1820199 120.96306296 -126.25 95.5625 C-126.22241552 69.49122111 -118.20655167 45.50170811 -99.7421875 26.7109375 C-98.83726562 25.81632812 -97.93234375 24.92171875 -97 24 C-96.19820313 23.18789062 -95.39640625 22.37578125 -94.5703125 21.5390625 C-70.40223492 -1.67813989 -31.778343 -8.99094582 0 0 Z M-67 54 C-67.58652344 54.5878125 -68.17304688 55.175625 -68.77734375 55.78125 C-79.73779329 67.60626427 -82.89307779 84.13191312 -82.32421875 99.7578125 C-81.52458845 112.69623484 -76.49700037 123.63013334 -69 134 C-67.88625 135.546875 -67.88625 135.546875 -66.75 137.125 C-56.4262437 147.91801794 -42.49488754 153.88993484 -27.6875 154.3125 C-13.50170177 154.01593279 -0.18066773 148.73776964 10.2265625 138.9453125 C23.46397643 124.42497739 27.96067867 107.57316309 27.18359375 88.33642578 C26.00668845 73.35905385 19.41206804 61.43017598 9 51 C8.43410156 50.4225 7.86820312 49.845 7.28515625 49.25 C-2.0298234 40.50439563 -14.90956359 36.36524075 -27.5 35.859375 C-43.3978833 36.49812924 -55.98063214 42.80321835 -67 54 Z " fill="#EA4334" transform="translate(440,113)"/>
<path d="M0 0 C1.72859005 1.49776942 3.43787527 3.01817266 5.125 4.5625 C5.92679688 5.2946875 6.72859375 6.026875 7.5546875 6.78125 C26.41200369 24.81316178 35.70945872 49.70621976 36.40844727 75.44482422 C36.7158674 101.15961409 28.5053663 125.31482162 11.125 144.5625 C10.37605469 145.40554688 9.62710938 146.24859375 8.85546875 147.1171875 C-6.24404862 163.19329057 -28.80425566 174.45851648 -50.93261719 175.73950195 C-83.23308141 176.35055234 -108.31892825 170.71039829 -132.875 148.5625 C-151.15384862 130.81690791 -160.70370776 106.40292968 -161.34570312 81.22851562 C-161.58193457 51.66808727 -152.45385266 27.0917082 -131.875 5.5625 C-96.90343956 -27.70313067 -37.67870029 -30.11142994 0 0 Z M-100.78515625 34.16015625 C-114.12247381 49.49183906 -118.41275514 65.95335648 -117.11865234 86.04638672 C-115.64332514 101.28157927 -108.05525926 114.34231841 -96.875 124.5625 C-84.93590411 133.80367032 -70.94136757 138.08987894 -55.875 136.5625 C-40.52668503 134.21465409 -28.84892032 126.0030701 -19.0625 114.1875 C-8.9924122 100.46848627 -6.24609638 83.71112739 -8.30859375 67.0625 C-11.28727864 50.48547104 -19.91281702 37.04941941 -33.4375 27.09375 C-54.59215304 13.80428847 -82.72774995 16.64077323 -100.78515625 34.16015625 Z " fill="#FBBC04" transform="translate(686.875,130.4375)"/>
<path d="M0 0 C17.896088 15.02937406 28.26514004 34.21652848 35.51171875 56.109375 C26.19863721 60.53749329 16.76048379 64.54678503 7.20986938 68.42703247 C2.91071274 70.17405891 -1.3841531 71.93159075 -5.6796875 73.6875 C-7.0149926 74.23290184 -7.0149926 74.23290184 -8.37727356 74.7893219 C-17.99017315 78.71787255 -27.58444379 82.69102684 -37.17578125 86.671875 C-38.01684418 87.02084839 -38.8579071 87.36982178 -39.72445679 87.72937012 C-57.65397366 95.16956103 -75.57272741 102.63563416 -93.48828125 110.109375 C-93.48828125 115.51336233 -87.46175787 121.40157321 -83.98828125 125.234375 C-73.30757857 135.48456951 -59.60176083 138.59876288 -45.26171875 138.35546875 C-30.33843252 137.38221095 -17.71682762 130.9001287 -7.48828125 120.109375 C-5.34783189 117.52799307 -3.35514768 114.89449687 -1.48828125 112.109375 C2.96875002 113.65546551 6.68456822 116.05206697 10.5625 118.6796875 C11.22130661 119.1207785 11.88011322 119.56186951 12.55888367 120.0163269 C14.65027252 121.41801446 16.73727551 122.82607924 18.82421875 124.234375 C20.24645951 125.18922714 21.66898262 126.14365888 23.09179688 127.09765625 C26.56839213 129.43004087 30.04106984 131.76815223 33.51171875 134.109375 C21.52574467 155.61479194 0.52338791 169.00678161 -22.72949219 175.65161133 C-49.10155425 182.8129352 -76.93162968 178.02399356 -100.484375 164.9296875 C-104.7932854 162.31856624 -108.65321736 159.36625177 -112.48828125 156.109375 C-113.50148438 155.29533203 -113.50148438 155.29533203 -114.53515625 154.46484375 C-132.97142028 139.20847797 -143.00047986 115.93928641 -146.23828125 92.609375 C-148.5231755 63.29585371 -141.77963869 34.76700958 -122.48828125 12.109375 C-91.70671869 -23.34249361 -36.95654975 -28.50460339 0 0 Z M-71.48828125 25.109375 C-72.33648438 25.54507813 -73.1846875 25.98078125 -74.05859375 26.4296875 C-88.18168764 34.33343729 -96.98236079 45.55668181 -101.48828125 61.109375 C-102.33079217 64.61708387 -102.59883891 67.81755051 -102.55078125 71.421875 C-102.52994792 72.984375 -102.50911458 74.546875 -102.48828125 76.109375 C-95.88425807 74.02277347 -89.50946584 71.55079539 -83.12890625 68.86328125 C-82.15334778 68.45550949 -81.17778931 68.04773773 -80.17266846 67.62760925 C-77.0266459 66.31194054 -73.88247416 64.9919094 -70.73828125 63.671875 C-68.57762684 62.76753829 -66.41681884 61.86356845 -64.25585938 60.95996094 C-61.02809401 59.61022945 -57.80041576 58.26029507 -54.57324219 56.90914917 C-45.72094949 53.2031448 -36.85819366 49.52297738 -27.98828125 45.859375 C-26.79235352 45.3651001 -25.59642578 44.8708252 -24.36425781 44.36157227 C-21.73916548 43.27694017 -19.11387116 42.19280188 -16.48828125 41.109375 C-18.65919421 36.55422237 -20.72851565 33.51106769 -24.48828125 30.109375 C-25.23078125 29.42875 -25.97328125 28.748125 -26.73828125 28.046875 C-39.49001517 19.06269883 -57.65791334 17.99535189 -71.48828125 25.109375 Z " fill="#EA4234" transform="translate(1156.48828125,127.890625)"/>
<path d="M0 0 C14.19 0 28.38 0 43 0 C43 94.71 43 189.42 43 287 C28.81 287 14.62 287 0 287 C0 192.29 0 97.58 0 0 Z " fill="#34A852" transform="translate(950,13)"/>
</svg>
