<svg version="1.1" id="Layer_1" xmlns="http://www.w3.org/2000/svg" xmlns:xlink="http://www.w3.org/1999/xlink" x="0px" y="0px"
	 width="100%" viewBox="0 0 1200 480" enable-background="new 0 0 1200 480" xml:space="preserve">
<path fill="#000000" opacity="1.000000" stroke="none" 
	d="
M754.000000,481.000000 
	C504.166687,481.000000 254.833389,480.990173 5.500128,481.093323 
	C1.751138,481.094879 0.903437,480.249664 0.906053,476.500031 
	C1.015590,319.500122 1.015579,162.500107 0.906098,5.500212 
	C0.903483,1.751150 1.750421,0.906058 5.499876,0.906995 
	C402.499817,1.006188 799.499817,1.006181 1196.499756,0.907071 
	C1200.248169,0.906135 1201.096680,1.749702 1201.094116,5.499775 
	C1200.984497,162.499680 1200.984375,319.499664 1201.093872,476.499603 
	C1201.096436,480.248169 1200.250610,481.096954 1196.500244,481.094116 
	C1049.166870,480.983429 901.833435,481.000000 754.000000,481.000000 
z"/>
<path fill="#EA4B71" opacity="1.000000" stroke="none" 
	d="
M567.003784,286.006653 
	C572.486267,293.367218 574.218506,301.784332 574.844238,310.135651 
	C576.257385,328.997314 570.301514,345.408508 556.116577,358.342804 
	C546.018555,367.550476 534.261597,372.640503 520.356506,373.098724 
	C506.444519,373.557159 493.783752,370.702728 482.518280,362.205841 
	C472.957764,354.994965 465.808899,345.991272 462.164368,334.606415 
	C460.908630,330.683716 459.172302,329.713623 455.367981,329.932892 
	C437.222900,330.978790 422.095886,324.497070 409.715179,311.249908 
	C401.159180,302.095154 396.852478,291.141541 394.920776,278.928986 
	C393.887390,272.395844 393.605194,265.653961 390.236511,259.597748 
	C384.675720,249.600525 376.450226,244.144608 364.913971,244.012787 
	C358.748688,243.942337 352.579315,244.106247 346.417023,243.952942 
	C343.658722,243.884308 342.601654,244.825287 341.624298,247.556442 
	C331.933258,274.636597 307.999023,289.775421 279.968201,286.782959 
	C256.696289,284.298523 239.009476,269.561401 231.216614,246.978546 
	C230.354233,244.479446 229.715240,243.953522 227.484879,243.972549 
	C219.152939,244.043686 210.819031,244.072784 202.488022,243.959412 
	C199.805313,243.922913 198.566971,244.645401 197.653717,247.495682 
	C193.157333,261.528687 184.133591,272.488800 171.554382,279.592743 
	C156.068024,288.338470 139.084473,290.022766 122.337357,283.535950 
	C106.666214,277.465881 94.762604,266.872772 88.765381,250.485214 
	C81.840912,231.563889 83.105751,213.310806 94.272224,196.599243 
	C109.874557,173.249039 138.756165,164.832458 164.487442,175.185410 
	C180.981888,181.821915 191.769623,193.997879 197.652924,210.533447 
	C198.655746,213.351929 199.857742,214.070343 202.511581,214.037308 
	C210.842834,213.933533 219.176727,213.948746 227.508438,214.031937 
	C229.781052,214.054642 230.346390,213.415970 231.238922,211.004288 
	C239.060455,189.870010 253.557663,176.198792 276.236938,171.965179 
	C305.265869,166.546234 332.293884,183.323166 341.752655,210.521942 
	C342.297974,212.089951 342.310150,214.093323 344.532013,213.934158 
	C354.686432,213.206818 365.051971,215.960953 375.014374,212.029251 
	C384.934509,208.114243 390.904236,200.907181 392.983307,190.510529 
	C395.113251,179.859299 395.544586,168.690079 401.061523,159.016296 
	C411.949005,139.925446 427.999329,128.460571 450.522888,128.075882 
	C471.348206,127.720184 492.186096,127.860489 513.014221,128.120499 
	C517.071167,128.171143 518.726868,126.845032 520.004089,123.201080 
	C527.615845,101.483734 543.401184,88.682808 565.663330,85.278328 
	C584.937744,82.330757 602.619141,87.767487 616.495850,102.143936 
	C625.397095,111.365746 630.600464,122.502892 632.114990,135.539322 
	C634.399414,155.202072 628.239624,171.662659 614.230652,185.099640 
	C605.089783,193.867294 593.980835,198.719162 581.083374,200.150986 
	C561.772644,202.294739 545.737671,196.036758 532.357239,182.671341 
	C526.240356,176.561310 521.445312,169.205276 519.356506,160.585205 
	C518.658142,157.703094 517.357178,156.940018 514.593506,156.952621 
	C494.929108,157.042389 475.239594,156.389435 455.606293,157.176041 
	C436.815552,157.928894 426.445831,166.890244 424.036865,186.759598 
	C422.206360,201.857773 417.549194,215.651871 406.675934,226.750214 
	C405.066498,228.392990 404.786774,229.354507 406.553619,231.138229 
	C417.494080,242.183258 422.198975,255.982620 424.026398,271.076416 
	C425.734711,285.186279 431.296234,295.274170 445.850739,299.334595 
	C448.658722,300.117981 451.579803,300.529663 454.469635,300.978027 
	C458.598999,301.618622 460.544373,300.392303 462.328156,295.834747 
	C470.943970,273.821381 486.885956,260.826752 510.887787,257.855255 
	C522.760010,256.385468 533.497314,258.790741 543.910339,263.990173 
	C553.742615,268.899658 561.193420,276.364532 567.003784,286.006653 
z"/>
<path fill="#101330" opacity="1.000000" stroke="none" 
	d="
M991.392578,198.381470 
	C989.038940,201.978149 985.584290,203.787659 982.626160,206.159668 
	C981.502441,207.060669 979.215088,207.100113 979.280273,208.725235 
	C979.355103,210.592270 981.667114,210.766983 983.072144,211.499527 
	C991.716187,216.006226 997.803040,222.832703 1001.092041,231.932556 
	C1008.986450,253.775085 999.467224,278.344360 973.543823,285.812225 
	C953.849182,291.485687 933.941650,291.552765 915.295105,281.556396 
	C890.699280,268.370636 887.392822,237.532883 905.834290,217.809601 
	C908.652649,214.795380 912.268127,212.554047 916.154907,210.923996 
	C919.119202,209.680847 919.904419,208.593307 916.458130,206.573532 
	C910.043823,202.814285 904.690430,197.977020 902.037720,190.665024 
	C894.843750,170.835693 904.056763,149.702103 924.828186,141.873032 
	C946.010925,133.888977 966.923401,134.542419 985.848877,148.912338 
	C991.942322,153.539047 995.650146,159.975662 997.073792,167.269104 
	C999.185791,178.089325 999.175049,188.842361 991.392578,198.381470 
z"/>
<path fill="#101330" opacity="1.000000" stroke="none" 
	d="
M787.777466,202.776123 
	C782.035828,209.426163 780.019653,217.007492 780.008179,225.239441 
	C779.982361,243.735733 779.872681,262.233521 780.083984,280.727417 
	C780.137817,285.439056 778.768127,287.348846 773.864990,287.081726 
	C767.551514,286.737762 761.203857,286.910156 754.873901,287.026886 
	C751.609314,287.087067 749.967957,286.048004 749.974670,282.472412 
	C750.040955,247.146240 750.032227,211.819916 749.986206,176.493683 
	C749.982117,173.344284 751.187378,171.933563 754.408447,171.985916 
	C760.738770,172.088806 767.074219,172.112625 773.403015,171.968155 
	C776.505432,171.897339 778.061218,173.109238 778.298950,176.197357 
	C778.387512,177.347397 778.783997,178.471619 779.008850,179.613724 
	C779.327393,181.231522 779.281250,183.390335 780.884338,183.983688 
	C782.967102,184.754639 783.261475,182.140350 784.386780,181.095825 
	C792.561951,173.507401 802.057983,169.797363 813.327820,169.632324 
	C829.739807,169.392014 843.541443,174.202606 852.846436,188.378372 
	C857.703979,195.778625 859.784058,204.336426 859.897339,213.053711 
	C860.191772,235.712067 859.900208,258.377533 860.079956,281.038300 
	C860.116150,285.599884 858.664307,287.309479 854.057312,287.073212 
	C848.074280,286.766327 842.047607,286.728851 836.069702,287.081818 
	C831.087341,287.376038 829.868225,285.297119 829.917969,280.664276 
	C830.118225,262.003448 829.950317,243.338989 830.040283,224.676468 
	C830.058960,220.792252 829.497742,217.020370 828.535400,213.329239 
	C824.509705,197.887421 807.078369,190.944534 792.947632,199.103836 
	C791.226135,200.097839 789.667786,201.374191 787.777466,202.776123 
z"/>
<path fill="#101330" opacity="1.000000" stroke="none" 
	d="
M1118.000000,267.999329 
	C1117.998779,252.675842 1118.235718,237.846985 1117.908691,223.030563 
	C1117.705444,213.824493 1115.535522,205.130173 1106.995483,199.673096 
	C1092.521851,190.424454 1073.372437,198.084885 1069.338745,214.762421 
	C1068.441528,218.471924 1067.935669,222.244949 1067.956177,226.122803 
	C1068.053345,244.443604 1067.876099,262.766571 1068.082764,281.085541 
	C1068.135010,285.709259 1066.553955,287.306915 1062.012573,287.069275 
	C1056.364990,286.773773 1050.690308,287.009613 1045.027344,286.997009 
	C1038.032593,286.981476 1038.007812,286.973083 1038.004883,280.133179 
	C1037.993774,253.983673 1037.999634,227.834167 1038.000244,201.684662 
	C1038.000366,193.523361 1038.135132,185.359055 1037.948975,177.202042 
	C1037.860229,173.313980 1039.301758,171.808990 1043.198120,171.952087 
	C1048.853394,172.159821 1054.530884,172.195480 1060.181885,171.934525 
	C1064.006348,171.757904 1066.267944,172.855988 1066.505615,176.945328 
	C1066.572632,178.098068 1066.838379,179.254700 1067.142334,180.374344 
	C1067.520752,181.767883 1067.436768,183.681198 1069.122437,184.096603 
	C1070.735596,184.494141 1071.022705,182.540268 1071.916504,181.657272 
	C1080.141357,173.531448 1089.970947,169.739838 1101.580811,169.610855 
	C1117.975830,169.428741 1131.752075,174.355026 1140.986328,188.566437 
	C1145.712891,195.840546 1147.764893,204.249649 1147.885376,212.777054 
	C1148.207886,235.590866 1147.916260,258.412750 1148.069946,281.230072 
	C1148.098633,285.502319 1146.826782,287.267609 1142.370728,287.070465 
	C1135.887695,286.783630 1129.379150,286.869354 1122.887939,287.040283 
	C1119.172974,287.138123 1117.826172,285.589294 1117.964844,281.988892 
	C1118.137695,277.498535 1118.002319,272.996307 1118.000000,267.999329 
z"/>
<path fill="#000000" opacity="1.000000" stroke="none" 
	d="
M559.741333,166.337021 
	C550.533813,160.240341 545.421570,151.705673 546.291870,141.325577 
	C547.406494,128.030746 554.864685,118.784111 568.246460,115.020302 
	C580.418152,111.596848 594.012878,118.951675 599.453369,129.171860 
	C605.608154,140.733963 603.666870,152.384140 594.677368,161.952377 
	C585.125000,172.119781 570.129944,173.532944 559.741333,166.337021 
z"/>
<path fill="#000000" opacity="1.000000" stroke="none" 
	d="
M543.792114,306.523987 
	C549.105225,325.574982 536.931274,342.874420 517.590698,343.740936 
	C502.751404,344.405792 489.922516,333.058899 488.982788,316.856384 
	C488.028687,300.406128 499.773438,288.705261 514.754028,287.209290 
	C526.176331,286.068665 538.264404,292.243530 543.792114,306.523987 
z"/>
<path fill="#000000" opacity="1.000000" stroke="none" 
	d="
M138.437836,256.996460 
	C124.119194,253.626923 115.835594,244.829681 114.202385,230.742249 
	C113.273758,222.732269 117.707420,210.981339 128.027374,204.922455 
	C145.925903,194.414185 168.680878,205.009750 170.771744,227.059036 
	C172.236252,242.503036 160.161575,256.187225 144.374649,256.987213 
	C142.548584,257.079742 140.713776,256.999451 138.437836,256.996460 
z"/>
<path fill="#000000" opacity="1.000000" stroke="none" 
	d="
M292.327881,256.836182 
	C283.810974,257.686218 276.353149,256.397461 269.601654,251.312286 
	C257.734070,242.373672 254.775833,226.669312 262.391663,214.371292 
	C269.561554,202.793381 283.871948,197.526047 297.022766,202.928543 
	C307.930420,207.409515 313.883331,215.975082 314.747559,227.139755 
	C315.505493,236.931244 311.738007,245.595917 303.080658,251.590302 
	C299.826721,253.843323 296.371613,255.367798 292.327881,256.836182 
z"/>
<path fill="#000000" opacity="1.000000" stroke="none" 
	d="
M965.750244,228.253738 
	C972.893005,235.953674 973.884949,244.636612 970.040955,253.526855 
	C966.332703,262.102722 959.145081,265.561371 949.703064,266.151276 
	C931.655945,267.278870 920.664795,249.538208 928.227478,233.645828 
	C934.552673,220.353897 954.121094,217.478302 965.750244,228.253738 
z"/>
<path fill="#000000" opacity="1.000000" stroke="none" 
	d="
M942.581970,160.329224 
	C956.181824,157.148010 965.799377,162.747467 968.197815,174.793884 
	C969.661011,182.142883 967.607300,188.492737 962.011780,193.136322 
	C955.963928,198.155350 948.744812,198.949646 941.390442,196.098541 
	C933.727478,193.127777 928.731384,185.553726 929.050720,177.918365 
	C929.406372,169.411804 933.980286,163.329468 942.581970,160.329224 
z"/>
</svg>