<?xml version="1.0" standalone="no"?>
<!DOCTYPE svg PUBLIC "-//W3C//DTD SVG 20010904//EN"
 "http://www.w3.org/TR/2001/REC-SVG-20010904/DTD/svg10.dtd">
<svg version="1.0" xmlns="http://www.w3.org/2000/svg"
 width="1984.000000pt" height="672.000000pt" viewBox="0 0 1984.000000 672.000000"
 preserveAspectRatio="xMidYMid meet">

<g transform="translate(0.000000,672.000000) scale(0.100000,-0.100000)"
fill="#000000" stroke="none">
<path d="M4300 3340 l0 -3080 635 0 635 0 0 946 0 946 193 -4 c177 -3 196 -5
239 -26 30 -15 61 -41 83 -72 19 -26 220 -394 446 -816 225 -423 425 -788 443
-812 73 -93 160 -137 306 -153 47 -5 340 -8 651 -7 l566 3 -606 1030 c-333
567 -622 1053 -640 1080 -58 85 -166 208 -219 250 -28 22 -51 42 -52 45 0 3
30 26 68 51 87 60 194 160 264 246 31 37 297 401 593 808 l537 740 -623 3
c-535 2 -631 0 -683 -13 -76 -20 -137 -55 -196 -114 -25 -25 -234 -327 -465
-671 -230 -343 -438 -643 -462 -666 -23 -23 -59 -49 -79 -59 -46 -22 -176 -37
-281 -33 l-78 3 -3 1728 -2 1727 -635 0 -635 0 0 -3080z"/>
<path d="M18270 3340 l0 -3080 635 0 635 0 0 3080 0 3080 -635 0 -635 0 0
-3080z"/>
<path d="M1845 4574 c-323 -38 -627 -147 -847 -304 -99 -71 -244 -216 -305
-305 -165 -243 -238 -537 -212 -852 20 -254 88 -440 225 -620 113 -147 243
-249 454 -354 170 -84 309 -137 630 -238 370 -116 490 -171 587 -268 56 -56
77 -105 81 -193 5 -95 -21 -169 -83 -237 -92 -104 -222 -146 -450 -146 -233 0
-328 25 -565 147 -85 43 -184 94 -220 113 -156 80 -352 55 -456 -59 -39 -43
-344 -517 -344 -536 0 -27 207 -165 370 -247 360 -180 762 -275 1166 -275 591
0 1047 150 1369 449 217 203 346 457 395 781 16 107 14 339 -5 442 -37 210
-151 413 -308 551 -202 175 -432 283 -992 466 -339 110 -481 175 -565 260 -85
84 -107 170 -77 288 26 98 114 182 233 223 31 11 105 25 166 31 210 22 381
-13 683 -141 91 -39 194 -78 228 -87 112 -28 226 -4 289 64 14 15 97 138 183
273 l157 244 -43 38 c-313 275 -699 440 -1155 493 -154 18 -434 18 -589 -1z"/>
</g>
</svg>
